<svg xmlns="http://www.w3.org/2000/svg" viewBox="2.384185791015625e-7 0 168.8367919921875 35.8524284362793"><g><title>Layer 1</title><g stroke="null" id="svg_177"><path class="firedancer_flame" stroke="null" d="m143.30791,26.88676c0,0.54975 0.43946,0.99505 0.9811,0.99505c0.54205,0 0.9811,-0.44529 0.9811,-0.99505c0,-0.54934 -0.43905,-0.99505 -0.9811,-0.99505c-0.54165,0 -0.9811,0.4457 -0.9811,0.99505z" fill="#1CE7C2" fill-opacity="0.9" id="svg_1"/><path class="firedancer_flame" stroke="null" d="m143.30791,24.89667c0,0.54934 0.43946,0.99505 0.9811,0.99505c0.54165,0 0.9811,-0.4457 0.9811,-0.99505c0,-0.54975 -0.43946,-0.99505 -0.9811,-0.99505c-0.54165,0 -0.9811,0.44529 -0.9811,0.99505z" fill="#1CE7C2" fill-opacity="0.9" id="svg_2"/><path class="firedancer_flame" stroke="null" d="m143.30791,22.90657c0,0.54934 0.43946,0.99505 0.9811,0.99505c0.54165,0 0.9811,-0.4457 0.9811,-0.99505c0,-0.54975 -0.43946,-0.99505 -0.9811,-0.99505c-0.54165,0 -0.9811,0.44529 -0.9811,0.99505z" fill="#1CE7C2" fill-opacity="0.9" id="svg_3"/><path class="firedancer_flame" stroke="null" d="m143.30791,20.91648c0,0.54975 0.43946,0.99505 0.9811,0.99505c0.54165,0 0.9811,-0.44529 0.9811,-0.99505c0,-0.54934 -0.43946,-0.99505 -0.9811,-0.99505c-0.54165,0 -0.9811,0.4457 -0.9811,0.99505z" fill="#1CE7C2" fill-opacity="0.9" id="svg_4"/><path class="firedancer_flame" stroke="null" d="m143.30791,18.92638c0,0.54934 0.43946,0.99505 0.9811,0.99505c0.54205,0 0.9811,-0.4457 0.9811,-0.99505c0,-0.54975 -0.43905,-0.99505 -0.9811,-0.99505c-0.54165,0 -0.9811,0.44529 -0.9811,0.99505z" fill="#1CE7C2" fill-opacity="0.9" id="svg_5"/><path class="firedancer_flame" stroke="null" d="m145.27012,28.87686c0,0.54934 0.43946,0.99505 0.9811,0.99505c0.54205,0 0.9811,-0.4457 0.9811,-0.99505c0,-0.54975 -0.43905,-0.99505 -0.9811,-0.99505c-0.54165,0 -0.9811,0.44529 -0.9811,0.99505z" fill="#1CE7C2" fill-opacity="0.9" id="svg_6"/><path class="firedancer_flame" stroke="null" d="m145.27012,26.88676c0,0.54975 0.43946,0.99505 0.9811,0.99505c0.54205,0 0.9811,-0.44529 0.9811,-0.99505c0,-0.54934 -0.43905,-0.99505 -0.9811,-0.99505c-0.54165,0 -0.9811,0.4457 -0.9811,0.99505z" fill="#1CE7C2" fill-opacity="0.7" id="svg_7"/><path class="firedancer_flame" stroke="null" d="m145.27012,24.89667c0,0.54934 0.43946,0.99505 0.9811,0.99505c0.54205,0 0.9811,-0.4457 0.9811,-0.99505c0,-0.54975 -0.43905,-0.99505 -0.9811,-0.99505c-0.54165,0 -0.9811,0.44529 -0.9811,0.99505z" fill="#1CE7C2" fill-opacity="0.7" id="svg_8"/><path class="firedancer_flame" stroke="null" d="m145.27012,22.90657c0,0.54934 0.43946,0.99505 0.9811,0.99505c0.54205,0 0.9811,-0.4457 0.9811,-0.99505c0,-0.54975 -0.43905,-0.99505 -0.9811,-0.99505c-0.54165,0 -0.9811,0.44529 -0.9811,0.99505z" fill="#1CE7C2" fill-opacity="0.7" id="svg_9"/><path class="firedancer_flame" stroke="null" d="m145.27012,20.91648c0,0.54975 0.43946,0.99505 0.9811,0.99505c0.54205,0 0.9811,-0.44529 0.9811,-0.99505c0,-0.54934 -0.43905,-0.99505 -0.9811,-0.99505c-0.54165,0 -0.9811,0.4457 -0.9811,0.99505z" fill="#1CE7C2" fill-opacity="0.7" id="svg_10"/><path class="firedancer_flame" stroke="null" d="m145.27012,18.92638c0,0.54934 0.43946,0.99505 0.9811,0.99505c0.54205,0 0.9811,-0.4457 0.9811,-0.99505c0,-0.54975 -0.43905,-0.99505 -0.9811,-0.99505c-0.54165,0 -0.9811,0.44529 -0.9811,0.99505z" fill="#1CE7C2" fill-opacity="0.9" id="svg_11"/><path class="firedancer_flame" stroke="null" d="m145.27012,16.93629c0,0.54934 0.43946,0.99505 0.9811,0.99505c0.54205,0 0.9811,-0.4457 0.9811,-0.99505c0,-0.54975 -0.43905,-0.99505 -0.9811,-0.99505c-0.54165,0 -0.9811,0.44529 -0.9811,0.99505z" fill="#1CE7C2" fill-opacity="0.9" id="svg_12"/><path class="firedancer_flame" stroke="null" d="m145.27012,14.94619c0,0.54934 0.43946,0.99505 0.9811,0.99505c0.54205,0 0.9811,-0.4457 0.9811,-0.99505c0,-0.54975 -0.43905,-0.99505 -0.9811,-0.99505c-0.54165,0 -0.9811,0.44529 -0.9811,0.99505z" fill="#1CE7C2" fill-opacity="0.9" id="svg_13"/><path class="firedancer_flame" stroke="null" d="m147.23233,30.87719c0,0.54934 0.43946,0.99505 0.9811,0.99505c0.54205,0 0.9811,-0.4457 0.9811,-0.99505c0,-0.54975 -0.43905,-0.99505 -0.9811,-0.99505c-0.54165,0 -0.9811,0.44529 -0.9811,0.99505z" fill="#1CE7C2" fill-opacity="0.7" id="svg_14"/><path class="firedancer_flame" stroke="null" d="m147.23233,28.87686c0,0.54934 0.43946,0.99505 0.9811,0.99505c0.54205,0 0.9811,-0.4457 0.9811,-0.99505c0,-0.54975 -0.43905,-0.99505 -0.9811,-0.99505c-0.54165,0 -0.9811,0.44529 -0.9811,0.99505z" fill="#1CE7C2" fill-opacity="0.5" id="svg_15"/><path class="firedancer_flame" stroke="null" d="m147.23233,26.88676c0,0.54975 0.43946,0.99505 0.9811,0.99505c0.54205,0 0.9811,-0.44529 0.9811,-0.99505c0,-0.54934 -0.43905,-0.99505 -0.9811,-0.99505c-0.54165,0 -0.9811,0.4457 -0.9811,0.99505z" fill="#1CE7C2" fill-opacity="0.5" id="svg_16"/><path class="firedancer_flame" stroke="null" d="m147.23233,24.89667c0,0.54934 0.43946,0.99505 0.9811,0.99505c0.54205,0 0.9811,-0.4457 0.9811,-0.99505c0,-0.54975 -0.43905,-0.99505 -0.9811,-0.99505c-0.54165,0 -0.9811,0.44529 -0.9811,0.99505z" fill="#1CE7C2" fill-opacity="0.5" id="svg_17"/><path class="firedancer_flame" stroke="null" d="m147.23233,22.90657c0,0.54934 0.43946,0.99505 0.9811,0.99505c0.54205,0 0.9811,-0.4457 0.9811,-0.99505c0,-0.54975 -0.43905,-0.99505 -0.9811,-0.99505c-0.54165,0 -0.9811,0.44529 -0.9811,0.99505z" fill="#1CE7C2" fill-opacity="0.7" id="svg_18"/><path class="firedancer_flame" stroke="null" d="m147.23233,20.91648c0,0.54975 0.43946,0.99505 0.9811,0.99505c0.54205,0 0.9811,-0.44529 0.9811,-0.99505c0,-0.54934 -0.43905,-0.99505 -0.9811,-0.99505c-0.54165,0 -0.9811,0.4457 -0.9811,0.99505z" fill="#1CE7C2" fill-opacity="0.7" id="svg_19"/><path class="firedancer_flame" stroke="null" d="m147.23233,18.92638c0,0.54934 0.43946,0.99505 0.9811,0.99505c0.54205,0 0.9811,-0.4457 0.9811,-0.99505c0,-0.54975 -0.43905,-0.99505 -0.9811,-0.99505c-0.54165,0 -0.9811,0.44529 -0.9811,0.99505z" fill="#1CE7C2" fill-opacity="0.7" id="svg_20"/><path class="firedancer_flame" stroke="null" d="m147.23233,16.93629c0,0.54934 0.43946,0.99505 0.9811,0.99505c0.54205,0 0.9811,-0.4457 0.9811,-0.99505c0,-0.54975 -0.43905,-0.99505 -0.9811,-0.99505c-0.54165,0 -0.9811,0.44529 -0.9811,0.99505z" fill="#1CE7C2" fill-opacity="0.7" id="svg_21"/><path class="firedancer_flame" stroke="null" d="m147.23233,14.94619c0,0.54934 0.43946,0.99505 0.9811,0.99505c0.54205,0 0.9811,-0.4457 0.9811,-0.99505c0,-0.54975 -0.43905,-0.99505 -0.9811,-0.99505c-0.54165,0 -0.9811,0.44529 -0.9811,0.99505z" fill="#1CE7C2" fill-opacity="0.9" id="svg_22"/><path class="firedancer_flame" stroke="null" d="m147.23233,12.94586c0,0.54934 0.43946,0.99505 0.9811,0.99505c0.54205,0 0.9811,-0.4457 0.9811,-0.99505c0,-0.54975 -0.43905,-0.99505 -0.9811,-0.99505c-0.54165,0 -0.9811,0.44529 -0.9811,0.99505z" fill="#1CE7C2" fill-opacity="0.9" id="svg_23"/><path class="firedancer_flame" stroke="null" d="m147.23233,10.96068c0,0.54975 0.43946,1.00037 0.9811,1.00037c0.54205,0 0.9811,-0.45062 0.9811,-1.00037c0,-0.54934 -0.43905,-0.99996 -0.9811,-0.99996c-0.54165,0 -0.9811,0.45062 -0.9811,0.99996z" fill="#1CE7C2" fill-opacity="0.9" id="svg_24"/><path class="firedancer_flame" stroke="null" d="m149.19453,32.86729c0,0.54975 0.43946,0.99505 0.9811,0.99505c0.54205,0 0.9811,-0.44529 0.9811,-0.99505c0,-0.54934 -0.43905,-0.99505 -0.9811,-0.99505c-0.54165,0 -0.9811,0.4457 -0.9811,0.99505z" fill="#1CE7C2" fill-opacity="0.7" id="svg_25"/><path class="firedancer_flame" stroke="null" d="m149.19453,30.87719c0,0.54934 0.43946,0.99505 0.9811,0.99505c0.54205,0 0.9811,-0.4457 0.9811,-0.99505c0,-0.54975 -0.43905,-0.99505 -0.9811,-0.99505c-0.54165,0 -0.9811,0.44529 -0.9811,0.99505z" fill="#1CE7C2" fill-opacity="0.5" id="svg_26"/><path class="firedancer_flame" stroke="null" d="m149.19453,28.87686c0,0.54934 0.43946,0.99505 0.9811,0.99505c0.54205,0 0.9811,-0.4457 0.9811,-0.99505c0,-0.54975 -0.43905,-0.99505 -0.9811,-0.99505c-0.54165,0 -0.9811,0.44529 -0.9811,0.99505z" fill="#1CE7C2" fill-opacity="0.4" id="svg_27"/><path class="firedancer_flame" stroke="null" d="m149.19453,24.89667c0,0.54934 0.43946,0.99505 0.9811,0.99505c0.54205,0 0.9811,-0.4457 0.9811,-0.99505c0,-0.54975 -0.43905,-0.99505 -0.9811,-0.99505c-0.54165,0 -0.9811,0.44529 -0.9811,0.99505z" fill="#1CE7C2" fill-opacity="0.4" id="svg_28"/><path class="firedancer_flame" stroke="null" d="m149.19453,22.90657c0,0.54934 0.43946,0.99505 0.9811,0.99505c0.54205,0 0.9811,-0.4457 0.9811,-0.99505c0,-0.54975 -0.43905,-0.99505 -0.9811,-0.99505c-0.54165,0 -0.9811,0.44529 -0.9811,0.99505z" fill="#1CE7C2" fill-opacity="0.5" id="svg_29"/><path class="firedancer_flame" stroke="null" d="m149.19453,20.91648c0,0.54975 0.43946,0.99505 0.9811,0.99505c0.54205,0 0.9811,-0.44529 0.9811,-0.99505c0,-0.54934 -0.43905,-0.99505 -0.9811,-0.99505c-0.54165,0 -0.9811,0.4457 -0.9811,0.99505z" fill="#1CE7C2" fill-opacity="0.5" id="svg_30"/><path class="firedancer_flame" stroke="null" d="m149.19453,18.92638c0,0.54934 0.43946,0.99505 0.9811,0.99505c0.54205,0 0.9811,-0.4457 0.9811,-0.99505c0,-0.54975 -0.43905,-0.99505 -0.9811,-0.99505c-0.54165,0 -0.9811,0.44529 -0.9811,0.99505z" fill="#1CE7C2" fill-opacity="0.5" id="svg_31"/><path class="firedancer_flame" stroke="null" d="m149.19453,16.93629c0,0.54934 0.43946,0.99505 0.9811,0.99505c0.54205,0 0.9811,-0.4457 0.9811,-0.99505c0,-0.54975 -0.43905,-0.99505 -0.9811,-0.99505c-0.54165,0 -0.9811,0.44529 -0.9811,0.99505z" fill="#1CE7C2" fill-opacity="0.7" id="svg_32"/><path class="firedancer_flame" stroke="null" d="m149.19453,14.94619c0,0.54934 0.43946,0.99505 0.9811,0.99505c0.54205,0 0.9811,-0.4457 0.9811,-0.99505c0,-0.54975 -0.43905,-0.99505 -0.9811,-0.99505c-0.54165,0 -0.9811,0.44529 -0.9811,0.99505z" fill="#1CE7C2" fill-opacity="0.7" id="svg_33"/><path class="firedancer_flame" stroke="null" d="m149.19453,12.94586c0,0.54934 0.43946,0.99505 0.9811,0.99505c0.54205,0 0.9811,-0.4457 0.9811,-0.99505c0,-0.54975 -0.43905,-0.99505 -0.9811,-0.99505c-0.54165,0 -0.9811,0.44529 -0.9811,0.99505z" fill="#1CE7C2" fill-opacity="0.7" id="svg_34"/><path class="firedancer_flame" stroke="null" d="m149.19453,10.96068c0,0.54975 0.43946,1.00037 0.9811,1.00037c0.54205,0 0.9811,-0.45062 0.9811,-1.00037c0,-0.54934 -0.43905,-0.99996 -0.9811,-0.99996c-0.54165,0 -0.9811,0.45062 -0.9811,0.99996z" fill="#1CE7C2" fill-opacity="0.9" id="svg_35"/><path class="firedancer_flame" stroke="null" d="m149.19453,8.96567c0,0.54934 0.43946,0.99505 0.9811,0.99505c0.54205,0 0.9811,-0.4457 0.9811,-0.99505c0,-0.54975 -0.43905,-0.99505 -0.9811,-0.99505c-0.54165,0 -0.9811,0.44529 -0.9811,0.99505z" fill="#1CE7C2" fill-opacity="0.9" id="svg_36"/><path class="firedancer_flame" stroke="null" d="m151.16684,32.86729c0,0.54975 0.43946,0.99505 0.9811,0.99505c0.54205,0 0.9811,-0.44529 0.9811,-0.99505c0,-0.54934 -0.43905,-0.99505 -0.9811,-0.99505c-0.54165,0 -0.9811,0.4457 -0.9811,0.99505z" fill="#1CE7C2" fill-opacity="0.5" id="svg_37"/><path class="firedancer_flame" stroke="null" d="m151.16684,30.87719c0,0.54934 0.43946,0.99505 0.9811,0.99505c0.54205,0 0.9811,-0.4457 0.9811,-0.99505c0,-0.54975 -0.43905,-0.99505 -0.9811,-0.99505c-0.54165,0 -0.9811,0.44529 -0.9811,0.99505z" fill="#1CE7C2" fill-opacity="0.4" id="svg_38"/><path class="firedancer_flame" stroke="null" d="m151.16684,26.88676c0,0.54975 0.43946,0.99505 0.9811,0.99505c0.54205,0 0.9811,-0.44529 0.9811,-0.99505c0,-0.54934 -0.43905,-0.99505 -0.9811,-0.99505c-0.54165,0 -0.9811,0.4457 -0.9811,0.99505z" fill="#1CE7C2" fill-opacity="0.4" id="svg_39"/><path class="firedancer_flame" stroke="null" d="m151.16684,24.89667c0,0.54934 0.43946,0.99505 0.9811,0.99505c0.54205,0 0.9811,-0.4457 0.9811,-0.99505c0,-0.54975 -0.43905,-0.99505 -0.9811,-0.99505c-0.54165,0 -0.9811,0.44529 -0.9811,0.99505z" fill="#1CE7C2" fill-opacity="0.4" id="svg_40"/><path class="firedancer_flame" stroke="null" d="m151.16684,16.93629c0,0.54934 0.43946,0.99505 0.9811,0.99505c0.54205,0 0.9811,-0.4457 0.9811,-0.99505c0,-0.54975 -0.43905,-0.99505 -0.9811,-0.99505c-0.54165,0 -0.9811,0.44529 -0.9811,0.99505z" fill="#1CE7C2" fill-opacity="0.5" id="svg_41"/><path class="firedancer_flame" stroke="null" d="m151.16684,14.94619c0,0.54934 0.43946,0.99505 0.9811,0.99505c0.54205,0 0.9811,-0.4457 0.9811,-0.99505c0,-0.54975 -0.43905,-0.99505 -0.9811,-0.99505c-0.54165,0 -0.9811,0.44529 -0.9811,0.99505z" fill="#1CE7C2" fill-opacity="0.5" id="svg_42"/><path class="firedancer_flame" stroke="null" d="m151.16684,12.94586c0,0.54934 0.43946,0.99505 0.9811,0.99505c0.54205,0 0.9811,-0.4457 0.9811,-0.99505c0,-0.54975 -0.43905,-0.99505 -0.9811,-0.99505c-0.54165,0 -0.9811,0.44529 -0.9811,0.99505z" fill="#1CE7C2" fill-opacity="0.7" id="svg_43"/><path class="firedancer_flame" stroke="null" d="m151.16684,10.96068c0,0.54975 0.43946,1.00037 0.9811,1.00037c0.54205,0 0.9811,-0.45062 0.9811,-1.00037c0,-0.54934 -0.43905,-0.99996 -0.9811,-0.99996c-0.54165,0 -0.9811,0.45062 -0.9811,0.99996z" fill="#1CE7C2" fill-opacity="0.7" id="svg_44"/><path class="firedancer_flame" stroke="null" d="m151.16684,8.96567c0,0.54934 0.43946,0.99505 0.9811,0.99505c0.54205,0 0.9811,-0.4457 0.9811,-0.99505c0,-0.54975 -0.43905,-0.99505 -0.9811,-0.99505c-0.54165,0 -0.9811,0.44529 -0.9811,0.99505z" fill="#1CE7C2" fill-opacity="0.9" id="svg_45"/><path class="firedancer_flame" stroke="null" d="m151.16684,6.96533c0,0.54934 0.43946,0.99505 0.9811,0.99505c0.54205,0 0.9811,-0.4457 0.9811,-0.99505c0,-0.54975 -0.43905,-0.99505 -0.9811,-0.99505c-0.54165,0 -0.9811,0.44529 -0.9811,0.99505z" fill="#1CE7C2" fill-opacity="0.9" id="svg_46"/><path class="firedancer_flame" stroke="null" d="m153.12905,32.86729c0,0.54975 0.43946,0.99505 0.9811,0.99505c0.54205,0 0.9811,-0.44529 0.9811,-0.99505c0,-0.54934 -0.43905,-0.99505 -0.9811,-0.99505c-0.54165,0 -0.9811,0.4457 -0.9811,0.99505z" fill="#1CE7C2" fill-opacity="0.5" id="svg_47"/><path class="firedancer_flame" stroke="null" d="m153.12905,30.87719c0,0.54934 0.43946,0.99505 0.9811,0.99505c0.54205,0 0.9811,-0.4457 0.9811,-0.99505c0,-0.54975 -0.43905,-0.99505 -0.9811,-0.99505c-0.54165,0 -0.9811,0.44529 -0.9811,0.99505z" fill="#1CE7C2" fill-opacity="0.4" id="svg_48"/><path class="firedancer_flame" stroke="null" d="m153.12905,26.88676c0,0.54975 0.43946,0.99505 0.9811,0.99505c0.54205,0 0.9811,-0.44529 0.9811,-0.99505c0,-0.54934 -0.43905,-0.99505 -0.9811,-0.99505c-0.54165,0 -0.9811,0.4457 -0.9811,0.99505z" fill="#1CE7C2" fill-opacity="0.4" id="svg_49"/><path class="firedancer_flame" stroke="null" d="m153.12905,24.89667c0,0.54934 0.43946,0.99505 0.9811,0.99505c0.54205,0 0.9811,-0.4457 0.9811,-0.99505c0,-0.54975 -0.43905,-0.99505 -0.9811,-0.99505c-0.54165,0 -0.9811,0.44529 -0.9811,0.99505z" fill="#1CE7C2" fill-opacity="0.4" id="svg_50"/><path class="firedancer_flame" stroke="null" d="m153.12905,22.90657c0,0.54934 0.43946,0.99505 0.9811,0.99505c0.54205,0 0.9811,-0.4457 0.9811,-0.99505c0,-0.54975 -0.43905,-0.99505 -0.9811,-0.99505c-0.54165,0 -0.9811,0.44529 -0.9811,0.99505z" fill="#1CE7C2" fill-opacity="0.4" id="svg_51"/><path class="firedancer_flame" stroke="null" d="m153.12905,20.91648c0,0.54975 0.43946,0.99505 0.9811,0.99505c0.54205,0 0.9811,-0.44529 0.9811,-0.99505c0,-0.54934 -0.43905,-0.99505 -0.9811,-0.99505c-0.54165,0 -0.9811,0.4457 -0.9811,0.99505z" fill="#1CE7C2" fill-opacity="0.4" id="svg_52"/><path class="firedancer_flame" stroke="null" d="m153.12905,18.92638c0,0.54934 0.43946,0.99505 0.9811,0.99505c0.54205,0 0.9811,-0.4457 0.9811,-0.99505c0,-0.54975 -0.43905,-0.99505 -0.9811,-0.99505c-0.54165,0 -0.9811,0.44529 -0.9811,0.99505z" fill="#1CE7C2" fill-opacity="0.5" id="svg_53"/><path class="firedancer_flame" stroke="null" d="m153.12905,16.93629c0,0.54934 0.43946,0.99505 0.9811,0.99505c0.54205,0 0.9811,-0.4457 0.9811,-0.99505c0,-0.54975 -0.43905,-0.99505 -0.9811,-0.99505c-0.54165,0 -0.9811,0.44529 -0.9811,0.99505z" fill="#1CE7C2" fill-opacity="0.5" id="svg_54"/><path class="firedancer_flame" stroke="null" d="m153.12905,14.94619c0,0.54934 0.43946,0.99505 0.9811,0.99505c0.54205,0 0.9811,-0.4457 0.9811,-0.99505c0,-0.54975 -0.43905,-0.99505 -0.9811,-0.99505c-0.54165,0 -0.9811,0.44529 -0.9811,0.99505z" fill="#1CE7C2" fill-opacity="0.7" id="svg_55"/><path class="firedancer_flame" stroke="null" d="m153.12905,12.94586c0,0.54934 0.43946,0.99505 0.9811,0.99505c0.54205,0 0.9811,-0.4457 0.9811,-0.99505c0,-0.54975 -0.43905,-0.99505 -0.9811,-0.99505c-0.54165,0 -0.9811,0.44529 -0.9811,0.99505z" fill="#1CE7C2" fill-opacity="0.7" id="svg_56"/><path class="firedancer_flame" stroke="null" d="m153.12905,10.96068c0,0.54975 0.43946,1.00037 0.9811,1.00037c0.54205,0 0.9811,-0.45062 0.9811,-1.00037c0,-0.54934 -0.43905,-0.99996 -0.9811,-0.99996c-0.54165,0 -0.9811,0.45062 -0.9811,0.99996z" fill="#1CE7C2" fill-opacity="0.7" id="svg_57"/><path class="firedancer_flame" stroke="null" d="m153.12905,8.96567c0,0.54934 0.43946,0.99505 0.9811,0.99505c0.54205,0 0.9811,-0.4457 0.9811,-0.99505c0,-0.54975 -0.43905,-0.99505 -0.9811,-0.99505c-0.54165,0 -0.9811,0.44529 -0.9811,0.99505z" fill="#1CE7C2" fill-opacity="0.7" id="svg_58"/><path class="firedancer_flame" stroke="null" d="m153.12905,6.96533c0,0.54934 0.43946,0.99505 0.9811,0.99505c0.54205,0 0.9811,-0.4457 0.9811,-0.99505c0,-0.54975 -0.43905,-0.99505 -0.9811,-0.99505c-0.54165,0 -0.9811,0.44529 -0.9811,0.99505z" fill="#1CE7C2" fill-opacity="0.9" id="svg_59"/><path class="firedancer_flame" stroke="null" d="m153.12905,4.97524c0,0.54934 0.43946,0.99505 0.9811,0.99505c0.54205,0 0.9811,-0.4457 0.9811,-0.99505c0,-0.54975 -0.43905,-0.99505 -0.9811,-0.99505c-0.54165,0 -0.9811,0.44529 -0.9811,0.99505z" fill="#1CE7C2" fill-opacity="0.9" id="svg_60"/><path class="firedancer_flame" stroke="null" d="m155.09126,32.86729c0,0.54975 0.43946,0.99505 0.9811,0.99505c0.54205,0 0.9811,-0.44529 0.9811,-0.99505c0,-0.54934 -0.43905,-0.99505 -0.9811,-0.99505c-0.54165,0 -0.9811,0.4457 -0.9811,0.99505z" fill="#1CE7C2" fill-opacity="0.5" id="svg_61"/><path class="firedancer_flame" stroke="null" d="m155.09126,30.87719c0,0.54934 0.43946,0.99505 0.9811,0.99505c0.54205,0 0.9811,-0.4457 0.9811,-0.99505c0,-0.54975 -0.43905,-0.99505 -0.9811,-0.99505c-0.54165,0 -0.9811,0.44529 -0.9811,0.99505z" fill="#1CE7C2" fill-opacity="0.4" id="svg_62"/><path class="firedancer_flame" stroke="null" d="m155.09126,26.88676c0,0.54975 0.43946,0.99505 0.9811,0.99505c0.54205,0 0.9811,-0.44529 0.9811,-0.99505c0,-0.54934 -0.43905,-0.99505 -0.9811,-0.99505c-0.54165,0 -0.9811,0.4457 -0.9811,0.99505z" fill="#1CE7C2" fill-opacity="0.4" id="svg_63"/><path class="firedancer_flame" stroke="null" d="m155.09126,24.89667c0,0.54934 0.43946,0.99505 0.9811,0.99505c0.54205,0 0.9811,-0.4457 0.9811,-0.99505c0,-0.54975 -0.43905,-0.99505 -0.9811,-0.99505c-0.54165,0 -0.9811,0.44529 -0.9811,0.99505z" fill="#1CE7C2" fill-opacity="0.4" id="svg_64"/><path class="firedancer_flame" stroke="null" d="m155.09126,22.90657c0,0.54934 0.43946,0.99505 0.9811,0.99505c0.54205,0 0.9811,-0.4457 0.9811,-0.99505c0,-0.54975 -0.43905,-0.99505 -0.9811,-0.99505c-0.54165,0 -0.9811,0.44529 -0.9811,0.99505z" fill="#1CE7C2" fill-opacity="0.4" id="svg_65"/><path class="firedancer_flame" stroke="null" d="m155.09126,20.91648c0,0.54975 0.43946,0.99505 0.9811,0.99505c0.54205,0 0.9811,-0.44529 0.9811,-0.99505c0,-0.54934 -0.43905,-0.99505 -0.9811,-0.99505c-0.54165,0 -0.9811,0.4457 -0.9811,0.99505z" fill="#1CE7C2" fill-opacity="0.5" id="svg_66"/><path class="firedancer_flame" stroke="null" d="m155.09126,18.92638c0,0.54934 0.43946,0.99505 0.9811,0.99505c0.54205,0 0.9811,-0.4457 0.9811,-0.99505c0,-0.54975 -0.43905,-0.99505 -0.9811,-0.99505c-0.54165,0 -0.9811,0.44529 -0.9811,0.99505z" fill="#1CE7C2" fill-opacity="0.7" id="svg_67"/><path class="firedancer_flame" stroke="null" d="m155.09126,16.93629c0,0.54934 0.43946,0.99505 0.9811,0.99505c0.54205,0 0.9811,-0.4457 0.9811,-0.99505c0,-0.54975 -0.43905,-0.99505 -0.9811,-0.99505c-0.54165,0 -0.9811,0.44529 -0.9811,0.99505z" fill="#1CE7C2" fill-opacity="0.7" id="svg_68"/><path class="firedancer_flame" stroke="null" d="m155.09126,14.94619c0,0.54934 0.43946,0.99505 0.9811,0.99505c0.54205,0 0.9811,-0.4457 0.9811,-0.99505c0,-0.54975 -0.43905,-0.99505 -0.9811,-0.99505c-0.54165,0 -0.9811,0.44529 -0.9811,0.99505z" fill="#1CE7C2" fill-opacity="0.7" id="svg_69"/><path class="firedancer_flame" stroke="null" d="m155.09126,12.94586c0,0.54934 0.43946,0.99505 0.9811,0.99505c0.54205,0 0.9811,-0.4457 0.9811,-0.99505c0,-0.54975 -0.43905,-0.99505 -0.9811,-0.99505c-0.54165,0 -0.9811,0.44529 -0.9811,0.99505z" fill="#1CE7C2" fill-opacity="0.7" id="svg_70"/><path class="firedancer_flame" stroke="null" d="m155.09126,10.96109c0,0.54934 0.43946,0.99996 0.9811,0.99996c0.54205,0 0.9811,-0.45062 0.9811,-0.99996c0,-0.54975 -0.43905,-1.00037 -0.9811,-1.00037c-0.54165,0 -0.9811,0.45062 -0.9811,1.00037z" fill="#1CE7C2" fill-opacity="0.9" id="svg_71"/><path class="firedancer_flame" stroke="null" d="m155.09126,8.96567c0,0.54934 0.43946,0.99505 0.9811,0.99505c0.54205,0 0.9811,-0.4457 0.9811,-0.99505c0,-0.54975 -0.43905,-0.99505 -0.9811,-0.99505c-0.54165,0 -0.9811,0.44529 -0.9811,0.99505z" fill="#1CE7C2" fill-opacity="0.9" id="svg_72"/><path class="firedancer_flame" stroke="null" d="m155.09126,6.96533c0,0.54934 0.43946,0.99505 0.9811,0.99505c0.54205,0 0.9811,-0.4457 0.9811,-0.99505c0,-0.54975 -0.43905,-0.99505 -0.9811,-0.99505c-0.54165,0 -0.9811,0.44529 -0.9811,0.99505z" fill="#1CE7C2" fill-opacity="0.9" id="svg_73"/><path class="firedancer_flame" stroke="null" d="m155.09126,4.97524c0,0.54934 0.43946,0.99505 0.9811,0.99505c0.54205,0 0.9811,-0.4457 0.9811,-0.99505c0,-0.54975 -0.43905,-0.99505 -0.9811,-0.99505c-0.54165,0 -0.9811,0.44529 -0.9811,0.99505z" fill="#1CE7C2" fill-opacity="0.9" id="svg_74"/><path class="firedancer_flame" stroke="null" d="m155.09126,2.98514c0,0.54934 0.43946,0.99505 0.9811,0.99505c0.54205,0 0.9811,-0.4457 0.9811,-0.99505c0,-0.54975 -0.43905,-0.99505 -0.9811,-0.99505c-0.54165,0 -0.9811,0.44529 -0.9811,0.99505z" fill="#1CE7C2" fill-opacity="0.9" id="svg_75"/><path class="firedancer_flame" stroke="null" d="m157.05347,32.86729c0,0.54975 0.4443,0.99505 0.98636,0.99505c0.54165,0 0.98595,-0.44529 0.98595,-0.99505c0,-0.54934 -0.4443,-0.99505 -0.98595,-0.99505c-0.54205,0 -0.98636,0.4457 -0.98636,0.99505z" fill="#1CE7C2" fill-opacity="0.5" id="svg_76"/><path class="firedancer_flame" stroke="null" d="m157.05347,30.87719c0,0.54934 0.4443,0.99505 0.98636,0.99505c0.54165,0 0.98595,-0.4457 0.98595,-0.99505c0,-0.54975 -0.4443,-0.99505 -0.98595,-0.99505c-0.54205,0 -0.98636,0.44529 -0.98636,0.99505z" fill="#1CE7C2" fill-opacity="0.4" id="svg_77"/><path class="firedancer_flame" stroke="null" d="m157.05347,26.88676c0,0.54975 0.4443,0.99505 0.98636,0.99505c0.54165,0 0.98595,-0.44529 0.98595,-0.99505c0,-0.54934 -0.4443,-0.99505 -0.98595,-0.99505c-0.54205,0 -0.98636,0.4457 -0.98636,0.99505z" fill="#1CE7C2" fill-opacity="0.4" id="svg_78"/><path class="firedancer_flame" stroke="null" d="m157.05347,24.89667c0,0.54934 0.4443,0.99505 0.98636,0.99505c0.54165,0 0.98595,-0.4457 0.98595,-0.99505c0,-0.54975 -0.4443,-0.99505 -0.98595,-0.99505c-0.54205,0 -0.98636,0.44529 -0.98636,0.99505z" fill="#1CE7C2" fill-opacity="0.4" id="svg_79"/><path class="firedancer_flame" stroke="null" d="m157.05347,16.93629c0,0.54934 0.4443,0.99505 0.98636,0.99505c0.54165,0 0.98595,-0.4457 0.98595,-0.99505c0,-0.54975 -0.4443,-0.99505 -0.98595,-0.99505c-0.54205,0 -0.98636,0.44529 -0.98636,0.99505z" fill="#1CE7C2" fill-opacity="0.7" id="svg_80"/><path class="firedancer_flame" stroke="null" d="m157.05347,14.94619c0,0.54934 0.4443,0.99505 0.98636,0.99505c0.54165,0 0.98595,-0.4457 0.98595,-0.99505c0,-0.54975 -0.4443,-0.99505 -0.98595,-0.99505c-0.54205,0 -0.98636,0.44529 -0.98636,0.99505z" fill="#1CE7C2" fill-opacity="0.7" id="svg_81"/><path class="firedancer_flame" stroke="null" d="m157.05347,12.94586c0,0.54934 0.4443,0.99505 0.98636,0.99505c0.54165,0 0.98595,-0.4457 0.98595,-0.99505c0,-0.54975 -0.4443,-0.99505 -0.98595,-0.99505c-0.54205,0 -0.98636,0.44529 -0.98636,0.99505z" fill="#1CE7C2" fill-opacity="0.9" id="svg_82"/><path class="firedancer_flame" stroke="null" d="m157.05347,10.96068c0,0.55262 0.44148,1.00037 0.98636,1.00037c0.54447,0 0.98595,-0.44775 0.98595,-1.00037c0,-0.55221 -0.44148,-0.99996 -0.98595,-0.99996c-0.54488,0 -0.98636,0.44775 -0.98636,0.99996z" fill="#1CE7C2" fill-opacity="0.9" id="svg_83"/><path class="firedancer_flame" stroke="null" d="m157.05347,8.96567c0,0.54934 0.4443,0.99505 0.98636,0.99505c0.54165,0 0.98595,-0.4457 0.98595,-0.99505c0,-0.54975 -0.4443,-0.99505 -0.98595,-0.99505c-0.54205,0 -0.98636,0.44529 -0.98636,0.99505z" fill="#1CE7C2" fill-opacity="0.9" id="svg_84"/><path class="firedancer_flame" stroke="null" d="m159.02578,32.86729c0,0.54975 0.43946,0.99505 0.9811,0.99505c0.54205,0 0.9811,-0.44529 0.9811,-0.99505c0,-0.54934 -0.43905,-0.99505 -0.9811,-0.99505c-0.54165,0 -0.9811,0.4457 -0.9811,0.99505z" fill="#1CE7C2" fill-opacity="0.7" id="svg_85"/><path class="firedancer_flame" stroke="null" d="m159.02578,30.87719c0,0.54934 0.43946,0.99505 0.9811,0.99505c0.54205,0 0.9811,-0.4457 0.9811,-0.99505c0,-0.54975 -0.43905,-0.99505 -0.9811,-0.99505c-0.54165,0 -0.9811,0.44529 -0.9811,0.99505z" fill="#1CE7C2" fill-opacity="0.5" id="svg_86"/><path class="firedancer_flame" stroke="null" d="m159.02578,28.87686c0,0.54934 0.43946,0.99505 0.9811,0.99505c0.54205,0 0.9811,-0.4457 0.9811,-0.99505c0,-0.54975 -0.43905,-0.99505 -0.9811,-0.99505c-0.54165,0 -0.9811,0.44529 -0.9811,0.99505z" fill="#1CE7C2" fill-opacity="0.4" id="svg_87"/><path class="firedancer_flame" stroke="null" d="m159.02578,24.89667c0,0.54934 0.43946,0.99505 0.9811,0.99505c0.54205,0 0.9811,-0.4457 0.9811,-0.99505c0,-0.54975 -0.43905,-0.99505 -0.9811,-0.99505c-0.54165,0 -0.9811,0.44529 -0.9811,0.99505z" fill="#1CE7C2" fill-opacity="0.5" id="svg_88"/><path class="firedancer_flame" stroke="null" d="m159.02578,22.90657c0,0.54934 0.43946,0.99505 0.9811,0.99505c0.54205,0 0.9811,-0.4457 0.9811,-0.99505c0,-0.54975 -0.43905,-0.99505 -0.9811,-0.99505c-0.54165,0 -0.9811,0.44529 -0.9811,0.99505z" fill="#1CE7C2" fill-opacity="0.5" id="svg_89"/><path class="firedancer_flame" stroke="null" d="m159.02578,20.91648c0,0.54975 0.43946,0.99505 0.9811,0.99505c0.54205,0 0.9811,-0.44529 0.9811,-0.99505c0,-0.54934 -0.43905,-0.99505 -0.9811,-0.99505c-0.54165,0 -0.9811,0.4457 -0.9811,0.99505z" fill="#1CE7C2" fill-opacity="0.5" id="svg_90"/><path class="firedancer_flame" stroke="null" d="m159.02578,18.92638c0,0.54934 0.43946,0.99505 0.9811,0.99505c0.54205,0 0.9811,-0.4457 0.9811,-0.99505c0,-0.54975 -0.43905,-0.99505 -0.9811,-0.99505c-0.54165,0 -0.9811,0.44529 -0.9811,0.99505z" fill="#1CE7C2" fill-opacity="0.5" id="svg_91"/><path class="firedancer_flame" stroke="null" d="m159.02578,16.93629c0,0.54934 0.43946,0.99505 0.9811,0.99505c0.54205,0 0.9811,-0.4457 0.9811,-0.99505c0,-0.54975 -0.43905,-0.99505 -0.9811,-0.99505c-0.54165,0 -0.9811,0.44529 -0.9811,0.99505z" fill="#1CE7C2" fill-opacity="0.5" id="svg_92"/><path class="firedancer_flame" stroke="null" d="m159.02578,14.94619c0,0.54934 0.43946,0.99505 0.9811,0.99505c0.54205,0 0.9811,-0.4457 0.9811,-0.99505c0,-0.54975 -0.43905,-0.99505 -0.9811,-0.99505c-0.54165,0 -0.9811,0.44529 -0.9811,0.99505z" fill="#1CE7C2" fill-opacity="0.7" id="svg_93"/><path class="firedancer_flame" stroke="null" d="m159.02578,12.94586c0,0.54934 0.43946,0.99505 0.9811,0.99505c0.54205,0 0.9811,-0.4457 0.9811,-0.99505c0,-0.54975 -0.43905,-0.99505 -0.9811,-0.99505c-0.54165,0 -0.9811,0.44529 -0.9811,0.99505z" fill="#1CE7C2" fill-opacity="0.9" id="svg_94"/><path class="firedancer_flame" stroke="null" d="m160.98798,30.87719c0,0.54934 0.43946,0.99505 0.9811,0.99505c0.54205,0 0.9811,-0.4457 0.9811,-0.99505c0,-0.54975 -0.43905,-0.99505 -0.9811,-0.99505c-0.54165,0 -0.9811,0.44529 -0.9811,0.99505z" fill="#1CE7C2" fill-opacity="0.7" id="svg_95"/><path class="firedancer_flame" stroke="null" d="m160.98798,28.87686c0,0.54934 0.43946,0.99505 0.9811,0.99505c0.54205,0 0.9811,-0.4457 0.9811,-0.99505c0,-0.54975 -0.43905,-0.99505 -0.9811,-0.99505c-0.54165,0 -0.9811,0.44529 -0.9811,0.99505z" fill="#1CE7C2" fill-opacity="0.5" id="svg_96"/><path class="firedancer_flame" stroke="null" d="m160.98798,26.88676c0,0.54975 0.43946,0.99505 0.9811,0.99505c0.54205,0 0.9811,-0.44529 0.9811,-0.99505c0,-0.54934 -0.43905,-0.99505 -0.9811,-0.99505c-0.54165,0 -0.9811,0.4457 -0.9811,0.99505z" fill="#1CE7C2" fill-opacity="0.5" id="svg_97"/><path class="firedancer_flame" stroke="null" d="m160.98798,24.89667c0,0.54934 0.43946,0.99505 0.9811,0.99505c0.54205,0 0.9811,-0.4457 0.9811,-0.99505c0,-0.54975 -0.43905,-0.99505 -0.9811,-0.99505c-0.54165,0 -0.9811,0.44529 -0.9811,0.99505z" fill="#1CE7C2" fill-opacity="0.5" id="svg_98"/><path class="firedancer_flame" stroke="null" d="m160.98798,22.90657c0,0.54934 0.43946,0.99505 0.9811,0.99505c0.54205,0 0.9811,-0.4457 0.9811,-0.99505c0,-0.54975 -0.43905,-0.99505 -0.9811,-0.99505c-0.54165,0 -0.9811,0.44529 -0.9811,0.99505z" fill="#1CE7C2" fill-opacity="0.7" id="svg_99"/><path class="firedancer_flame" stroke="null" d="m160.98798,20.91648c0,0.54975 0.43946,0.99505 0.9811,0.99505c0.54205,0 0.9811,-0.44529 0.9811,-0.99505c0,-0.54934 -0.43905,-0.99505 -0.9811,-0.99505c-0.54165,0 -0.9811,0.4457 -0.9811,0.99505z" fill="#1CE7C2" fill-opacity="0.7" id="svg_100"/><path class="firedancer_flame" stroke="null" d="m160.98798,18.92638c0,0.54934 0.43946,0.99505 0.9811,0.99505c0.54205,0 0.9811,-0.4457 0.9811,-0.99505c0,-0.54975 -0.43905,-0.99505 -0.9811,-0.99505c-0.54165,0 -0.9811,0.44529 -0.9811,0.99505z" fill="#1CE7C2" fill-opacity="0.7" id="svg_101"/><path class="firedancer_flame" stroke="null" d="m160.98798,16.93629c0,0.54934 0.43946,0.99505 0.9811,0.99505c0.54205,0 0.9811,-0.4457 0.9811,-0.99505c0,-0.54975 -0.43905,-0.99505 -0.9811,-0.99505c-0.54165,0 -0.9811,0.44529 -0.9811,0.99505z" fill="#1CE7C2" fill-opacity="0.7" id="svg_102"/><path class="firedancer_flame" stroke="null" d="m160.98798,14.94619c0,0.54934 0.43946,0.99505 0.9811,0.99505c0.54205,0 0.9811,-0.4457 0.9811,-0.99505c0,-0.54975 -0.43905,-0.99505 -0.9811,-0.99505c-0.54165,0 -0.9811,0.44529 -0.9811,0.99505z" fill="#1CE7C2" fill-opacity="0.7" id="svg_103"/><path class="firedancer_flame" stroke="null" d="m162.95019,28.87686c0,0.54934 0.43946,0.99505 0.9811,0.99505c0.54205,0 0.9811,-0.4457 0.9811,-0.99505c0,-0.54975 -0.43905,-0.99505 -0.9811,-0.99505c-0.54165,0 -0.9811,0.44529 -0.9811,0.99505z" fill="#1CE7C2" fill-opacity="0.9" id="svg_104"/><path class="firedancer_flame" stroke="null" d="m162.95019,26.88676c0,0.54975 0.43946,0.99505 0.9811,0.99505c0.54205,0 0.9811,-0.44529 0.9811,-0.99505c0,-0.54934 -0.43905,-0.99505 -0.9811,-0.99505c-0.54165,0 -0.9811,0.4457 -0.9811,0.99505z" fill="#1CE7C2" fill-opacity="0.7" id="svg_105"/><path class="firedancer_flame" stroke="null" d="m162.95019,24.89667c0,0.54934 0.43946,0.99505 0.9811,0.99505c0.54205,0 0.9811,-0.4457 0.9811,-0.99505c0,-0.54975 -0.43905,-0.99505 -0.9811,-0.99505c-0.54165,0 -0.9811,0.44529 -0.9811,0.99505z" fill="#1CE7C2" fill-opacity="0.7" id="svg_106"/><path class="firedancer_flame" stroke="null" d="m162.95019,22.90657c0,0.54934 0.43946,0.99505 0.9811,0.99505c0.54205,0 0.9811,-0.4457 0.9811,-0.99505c0,-0.54975 -0.43905,-0.99505 -0.9811,-0.99505c-0.54165,0 -0.9811,0.44529 -0.9811,0.99505z" fill="#1CE7C2" fill-opacity="0.7" id="svg_107"/><path class="firedancer_flame" stroke="null" d="m162.95019,20.91648c0,0.54975 0.43946,0.99505 0.9811,0.99505c0.54205,0 0.9811,-0.44529 0.9811,-0.99505c0,-0.54934 -0.43905,-0.99505 -0.9811,-0.99505c-0.54165,0 -0.9811,0.4457 -0.9811,0.99505z" fill="#1CE7C2" fill-opacity="0.7" id="svg_108"/><path class="firedancer_flame" stroke="null" d="m162.95019,18.92638c0,0.54934 0.43946,0.99505 0.9811,0.99505c0.54205,0 0.9811,-0.4457 0.9811,-0.99505c0,-0.54975 -0.43905,-0.99505 -0.9811,-0.99505c-0.54165,0 -0.9811,0.44529 -0.9811,0.99505z" fill="#1CE7C2" fill-opacity="0.7" id="svg_109"/><path class="firedancer_flame" stroke="null" d="m162.95019,16.93629c0,0.54934 0.43946,0.99505 0.9811,0.99505c0.54205,0 0.9811,-0.4457 0.9811,-0.99505c0,-0.54975 -0.43905,-0.99505 -0.9811,-0.99505c-0.54165,0 -0.9811,0.44529 -0.9811,0.99505z" fill="#1CE7C2" fill-opacity="0.7" id="svg_110"/><path class="firedancer_flame" stroke="null" d="m164.9124,26.88676c0,0.54975 0.43946,0.99505 0.9811,0.99505c0.54205,0 0.9811,-0.44529 0.9811,-0.99505c0,-0.54934 -0.43905,-0.99505 -0.9811,-0.99505c-0.54165,0 -0.9811,0.4457 -0.9811,0.99505z" fill="#1CE7C2" fill-opacity="0.9" id="svg_111"/><path class="firedancer_flame" stroke="null" d="m164.9124,24.89667c0,0.54934 0.43946,0.99505 0.9811,0.99505c0.54205,0 0.9811,-0.4457 0.9811,-0.99505c0,-0.54975 -0.43905,-0.99505 -0.9811,-0.99505c-0.54165,0 -0.9811,0.44529 -0.9811,0.99505z" fill="#1CE7C2" fill-opacity="0.9" id="svg_112"/><path class="firedancer_flame" stroke="null" d="m164.9124,22.90657c0,0.54934 0.43946,0.99505 0.9811,0.99505c0.54205,0 0.9811,-0.4457 0.9811,-0.99505c0,-0.54975 -0.43905,-0.99505 -0.9811,-0.99505c-0.54165,0 -0.9811,0.44529 -0.9811,0.99505z" fill="#1CE7C2" fill-opacity="0.9" id="svg_113"/><path class="firedancer_flame" stroke="null" d="m164.9124,20.91648c0,0.54975 0.43946,0.99505 0.9811,0.99505c0.54205,0 0.9811,-0.44529 0.9811,-0.99505c0,-0.54934 -0.43905,-0.99505 -0.9811,-0.99505c-0.54165,0 -0.9811,0.4457 -0.9811,0.99505z" fill="#1CE7C2" fill-opacity="0.9" id="svg_114"/><path class="firedancer_flame" stroke="null" d="m164.9124,18.92638c0,0.54934 0.43946,0.99505 0.9811,0.99505c0.54205,0 0.9811,-0.4457 0.9811,-0.99505c0,-0.54975 -0.43905,-0.99505 -0.9811,-0.99505c-0.54165,0 -0.9811,0.44529 -0.9811,0.99505z" fill="#1CE7C2" fill-opacity="0.9" id="svg_115"/><path class="firedancer_flame" stroke="null" d="m164.9124,16.93629c0,0.54934 0.43946,0.99505 0.9811,0.99505c0.54205,0 0.9811,-0.4457 0.9811,-0.99505c0,-0.54975 -0.43905,-0.99505 -0.9811,-0.99505c-0.54165,0 -0.9811,0.44529 -0.9811,0.99505z" fill="#1CE7C2" fill-opacity="0.9" id="svg_116"/><path class="firedancer_flame" stroke="null" d="m141.3457,26.88676c0,0.54975 0.43946,0.99505 0.9811,0.99505c0.54205,0 0.9811,-0.44529 0.9811,-0.99505c0,-0.54934 -0.43905,-0.99505 -0.9811,-0.99505c-0.54165,0 -0.9811,0.4457 -0.9811,0.99505z" fill="#1CE7C2" id="svg_117"/><path class="firedancer_flame" stroke="null" d="m141.3457,24.89667c0,0.54934 0.43946,0.99505 0.9811,0.99505c0.54205,0 0.9811,-0.4457 0.9811,-0.99505c0,-0.54975 -0.43905,-0.99505 -0.9811,-0.99505c-0.54165,0 -0.9811,0.44529 -0.9811,0.99505z" fill="#1CE7C2" id="svg_118"/><path class="firedancer_flame" stroke="null" d="m141.3457,22.90657c0,0.54934 0.43946,0.99505 0.9811,0.99505c0.54205,0 0.9811,-0.4457 0.9811,-0.99505c0,-0.54975 -0.43905,-0.99505 -0.9811,-0.99505c-0.54165,0 -0.9811,0.44529 -0.9811,0.99505z" fill="#1CE7C2" id="svg_119"/><path class="firedancer_flame" stroke="null" d="m141.3457,20.91648c0,0.54975 0.43946,0.99505 0.9811,0.99505c0.54205,0 0.9811,-0.44529 0.9811,-0.99505c0,-0.54934 -0.43905,-0.99505 -0.9811,-0.99505c-0.54165,0 -0.9811,0.4457 -0.9811,0.99505z" fill="#1CE7C2" id="svg_120"/><path class="firedancer_flame" stroke="null" d="m141.3457,18.92638c0,0.54934 0.43946,0.99505 0.9811,0.99505c0.54205,0 0.9811,-0.4457 0.9811,-0.99505c0,-0.54975 -0.43905,-0.99505 -0.9811,-0.99505c-0.54165,0 -0.9811,0.44529 -0.9811,0.99505z" fill="#1CE7C2" id="svg_121"/><path class="firedancer_flame" stroke="null" d="m143.30791,28.87686c0,0.54934 0.43946,0.99505 0.9811,0.99505c0.54165,0 0.9811,-0.4457 0.9811,-0.99505c0,-0.54975 -0.43946,-0.99505 -0.9811,-0.99505c-0.54165,0 -0.9811,0.44529 -0.9811,0.99505z" fill="#1CE7C2" id="svg_122"/><path class="firedancer_flame" stroke="null" d="m143.30791,16.93629c0,0.54934 0.43946,0.99505 0.9811,0.99505c0.54165,0 0.9811,-0.4457 0.9811,-0.99505c0,-0.54975 -0.43946,-0.99505 -0.9811,-0.99505c-0.54165,0 -0.9811,0.44529 -0.9811,0.99505z" fill="#1CE7C2" id="svg_123"/><path class="firedancer_flame" stroke="null" d="m143.30791,14.94619c0,0.54934 0.43946,0.99505 0.9811,0.99505c0.54205,0 0.9811,-0.4457 0.9811,-0.99505c0,-0.54975 -0.43905,-0.99505 -0.9811,-0.99505c-0.54165,0 -0.9811,0.44529 -0.9811,0.99505z" fill="#1CE7C2" id="svg_124"/><path class="firedancer_flame" stroke="null" d="m145.27012,30.87719c0,0.54934 0.43946,0.99505 0.9811,0.99505c0.54205,0 0.9811,-0.4457 0.9811,-0.99505c0,-0.54975 -0.43905,-0.99505 -0.9811,-0.99505c-0.54165,0 -0.9811,0.44529 -0.9811,0.99505z" fill="#1CE7C2" id="svg_125"/><path class="firedancer_flame" stroke="null" d="m145.27012,12.94586c0,0.54934 0.43946,0.99505 0.9811,0.99505c0.54205,0 0.9811,-0.4457 0.9811,-0.99505c0,-0.54975 -0.43905,-0.99505 -0.9811,-0.99505c-0.54165,0 -0.9811,0.44529 -0.9811,0.99505z" fill="#1CE7C2" id="svg_126"/><path class="firedancer_flame" stroke="null" d="m145.27012,10.96068c0,0.54975 0.43946,1.00037 0.9811,1.00037c0.54205,0 0.9811,-0.45062 0.9811,-1.00037c0,-0.54934 -0.43905,-0.99996 -0.9811,-0.99996c-0.54165,0 -0.9811,0.45062 -0.9811,0.99996z" fill="#1CE7C2" id="svg_127"/><path class="firedancer_flame" stroke="null" d="m147.23233,32.86729c0,0.54975 0.43946,0.99505 0.9811,0.99505c0.54205,0 0.9811,-0.44529 0.9811,-0.99505c0,-0.54934 -0.43905,-0.99505 -0.9811,-0.99505c-0.54165,0 -0.9811,0.4457 -0.9811,0.99505z" fill="#1CE7C2" id="svg_128"/><path class="firedancer_flame" stroke="null" d="m147.23233,8.96567c0,0.54934 0.43946,0.99505 0.9811,0.99505c0.54205,0 0.9811,-0.4457 0.9811,-0.99505c0,-0.54975 -0.43905,-0.99505 -0.9811,-0.99505c-0.54165,0 -0.9811,0.44529 -0.9811,0.99505z" fill="#1CE7C2" id="svg_129"/><path class="firedancer_flame" stroke="null" d="m149.19453,34.85738c0,0.54975 0.43946,0.99505 0.9811,0.99505c0.54205,0 0.9811,-0.44529 0.9811,-0.99505c0,-0.54934 -0.43905,-0.99505 -0.9811,-0.99505c-0.54165,0 -0.9811,0.4457 -0.9811,0.99505z" fill="#1CE7C2" id="svg_130"/><path class="firedancer_flame" stroke="null" d="m149.19453,26.88676c0,0.54975 0.43946,0.99505 0.9811,0.99505c0.54205,0 0.9811,-0.44529 0.9811,-0.99505c0,-0.54934 -0.43905,-0.99505 -0.9811,-0.99505c-0.54165,0 -0.9811,0.4457 -0.9811,0.99505z" fill="#1CE7C2" fill-opacity="0.4" id="svg_131"/><path class="firedancer_flame" stroke="null" d="m149.19453,6.96533c0,0.54934 0.43946,0.99505 0.9811,0.99505c0.54205,0 0.9811,-0.4457 0.9811,-0.99505c0,-0.54975 -0.43905,-0.99505 -0.9811,-0.99505c-0.54165,0 -0.9811,0.44529 -0.9811,0.99505z" fill="#1CE7C2" id="svg_132"/><path class="firedancer_flame" stroke="null" d="m151.16684,34.85738c0,0.54975 0.43946,0.99505 0.9811,0.99505c0.54205,0 0.9811,-0.44529 0.9811,-0.99505c0,-0.54934 -0.43905,-0.99505 -0.9811,-0.99505c-0.54165,0 -0.9811,0.4457 -0.9811,0.99505z" fill="#1CE7C2" id="svg_133"/><path class="firedancer_flame" stroke="null" d="m151.16684,28.87686c0,0.54934 0.43946,0.99505 0.9811,0.99505c0.54205,0 0.9811,-0.4457 0.9811,-0.99505c0,-0.54975 -0.43905,-0.99505 -0.9811,-0.99505c-0.54165,0 -0.9811,0.44529 -0.9811,0.99505z" fill="#1CE7C2" fill-opacity="0.4" id="svg_134"/><path class="firedancer_flame" stroke="null" d="m151.16684,22.90657c0,0.54934 0.43946,0.99505 0.9811,0.99505c0.54205,0 0.9811,-0.4457 0.9811,-0.99505c0,-0.54975 -0.43905,-0.99505 -0.9811,-0.99505c-0.54165,0 -0.9811,0.44529 -0.9811,0.99505z" fill="#1CE7C2" fill-opacity="0.4" id="svg_135"/><path class="firedancer_flame" stroke="null" d="m151.16684,20.91648c0,0.54975 0.43946,0.99505 0.9811,0.99505c0.54205,0 0.9811,-0.44529 0.9811,-0.99505c0,-0.54934 -0.43905,-0.99505 -0.9811,-0.99505c-0.54165,0 -0.9811,0.4457 -0.9811,0.99505z" fill="#1CE7C2" fill-opacity="0.5" id="svg_136"/><path class="firedancer_flame" stroke="null" d="m151.16684,18.92638c0,0.54934 0.43946,0.99505 0.9811,0.99505c0.54205,0 0.9811,-0.4457 0.9811,-0.99505c0,-0.54975 -0.43905,-0.99505 -0.9811,-0.99505c-0.54165,0 -0.9811,0.44529 -0.9811,0.99505z" fill="#1CE7C2" fill-opacity="0.5" id="svg_137"/><path class="firedancer_flame" stroke="null" d="m151.16684,4.97524c0,0.54934 0.43946,0.99505 0.9811,0.99505c0.54205,0 0.9811,-0.4457 0.9811,-0.99505c0,-0.54975 -0.43905,-0.99505 -0.9811,-0.99505c-0.54165,0 -0.9811,0.44529 -0.9811,0.99505z" fill="#1CE7C2" id="svg_138"/><path class="firedancer_flame" stroke="null" d="m153.12905,34.85738c0,0.54975 0.43946,0.99505 0.9811,0.99505c0.54205,0 0.9811,-0.44529 0.9811,-0.99505c0,-0.54934 -0.43905,-0.99505 -0.9811,-0.99505c-0.54165,0 -0.9811,0.4457 -0.9811,0.99505z" fill="#1CE7C2" id="svg_139"/><path class="firedancer_flame" stroke="null" d="m153.12905,28.87686c0,0.54934 0.43946,0.99505 0.9811,0.99505c0.54205,0 0.9811,-0.4457 0.9811,-0.99505c0,-0.54975 -0.43905,-0.99505 -0.9811,-0.99505c-0.54165,0 -0.9811,0.44529 -0.9811,0.99505z" fill="#1CE7C2" fill-opacity="0.4" id="svg_140"/><path class="firedancer_flame" stroke="null" d="m153.12905,2.98514c0,0.54934 0.43946,0.99505 0.9811,0.99505c0.54205,0 0.9811,-0.4457 0.9811,-0.99505c0,-0.54975 -0.43905,-0.99505 -0.9811,-0.99505c-0.54165,0 -0.9811,0.44529 -0.9811,0.99505z" fill="#1CE7C2" id="svg_141"/><path class="firedancer_flame" stroke="null" d="m155.09126,34.85738c0,0.54975 0.43946,0.99505 0.9811,0.99505c0.54205,0 0.9811,-0.44529 0.9811,-0.99505c0,-0.54934 -0.43905,-0.99505 -0.9811,-0.99505c-0.54165,0 -0.9811,0.4457 -0.9811,0.99505z" fill="#1CE7C2" id="svg_142"/><path class="firedancer_flame" stroke="null" d="m155.09126,28.87686c0,0.54934 0.43946,0.99505 0.9811,0.99505c0.54205,0 0.9811,-0.4457 0.9811,-0.99505c0,-0.54975 -0.43905,-0.99505 -0.9811,-0.99505c-0.54165,0 -0.9811,0.44529 -0.9811,0.99505z" fill="#1CE7C2" fill-opacity="0.4" id="svg_143"/><path class="firedancer_flame" stroke="null" d="m155.09126,0.99505c0,0.54934 0.43946,0.99505 0.9811,0.99505c0.54205,0 0.9811,-0.4457 0.9811,-0.99505c0,-0.54975 -0.43905,-0.99505 -0.9811,-0.99505c-0.54165,0 -0.9811,0.44529 -0.9811,0.99505z" fill="#1CE7C2" id="svg_144"/><path class="firedancer_flame" stroke="null" d="m157.05347,34.85738c0,0.54975 0.4443,0.99505 0.98636,0.99505c0.54165,0 0.98595,-0.44529 0.98595,-0.99505c0,-0.54934 -0.4443,-0.99505 -0.98595,-0.99505c-0.54205,0 -0.98636,0.4457 -0.98636,0.99505z" fill="#1CE7C2" id="svg_145"/><path class="firedancer_flame" stroke="null" d="m157.05347,28.87686c0,0.54934 0.4443,0.99505 0.98636,0.99505c0.54165,0 0.98595,-0.4457 0.98595,-0.99505c0,-0.54975 -0.4443,-0.99505 -0.98595,-0.99505c-0.54205,0 -0.98636,0.44529 -0.98636,0.99505z" fill="#1CE7C2" fill-opacity="0.4" id="svg_146"/><path class="firedancer_flame" stroke="null" d="m157.05347,22.90657c0,0.54934 0.4443,0.99505 0.98636,0.99505c0.54165,0 0.98595,-0.4457 0.98595,-0.99505c0,-0.54975 -0.4443,-0.99505 -0.98595,-0.99505c-0.54205,0 -0.98636,0.44529 -0.98636,0.99505z" fill="#1CE7C2" fill-opacity="0.4" id="svg_147"/><path class="firedancer_flame" stroke="null" d="m157.05347,20.91648c0,0.54975 0.4443,0.99505 0.98636,0.99505c0.54165,0 0.98595,-0.44529 0.98595,-0.99505c0,-0.54934 -0.4443,-0.99505 -0.98595,-0.99505c-0.54205,0 -0.98636,0.4457 -0.98636,0.99505z" fill="#1CE7C2" fill-opacity="0.5" id="svg_148"/><path class="firedancer_flame" stroke="null" d="m157.05347,18.92638c0,0.54934 0.4443,0.99505 0.98636,0.99505c0.54165,0 0.98595,-0.4457 0.98595,-0.99505c0,-0.54975 -0.4443,-0.99505 -0.98595,-0.99505c-0.54205,0 -0.98636,0.44529 -0.98636,0.99505z" fill="#1CE7C2" fill-opacity="0.5" id="svg_149"/><path class="firedancer_flame" stroke="null" d="m157.05347,6.96533c0,0.54934 0.4443,0.99505 0.98636,0.99505c0.54165,0 0.98595,-0.4457 0.98595,-0.99505c0,-0.54975 -0.4443,-0.99505 -0.98595,-0.99505c-0.54205,0 -0.98636,0.44529 -0.98636,0.99505z" fill="#1CE7C2" id="svg_150"/><path class="firedancer_flame" stroke="null" d="m157.05347,4.97524c0,0.54934 0.4443,0.99505 0.98636,0.99505c0.54165,0 0.98595,-0.4457 0.98595,-0.99505c0,-0.54975 -0.4443,-0.99505 -0.98595,-0.99505c-0.54205,0 -0.98636,0.44529 -0.98636,0.99505z" fill="#1CE7C2" id="svg_151"/><path class="firedancer_flame" stroke="null" d="m157.05347,2.98514c0,0.54934 0.4443,0.99505 0.98636,0.99505c0.54165,0 0.98595,-0.4457 0.98595,-0.99505c0,-0.54975 -0.4443,-0.99505 -0.98595,-0.99505c-0.54205,0 -0.98636,0.44529 -0.98636,0.99505z" fill="#1CE7C2" id="svg_152"/><path class="firedancer_flame" stroke="null" d="m159.02578,34.85738c0,0.54975 0.43946,0.99505 0.9811,0.99505c0.54205,0 0.9811,-0.44529 0.9811,-0.99505c0,-0.54934 -0.43905,-0.99505 -0.9811,-0.99505c-0.54165,0 -0.9811,0.4457 -0.9811,0.99505z" fill="#1CE7C2" id="svg_153"/><path class="firedancer_flame" stroke="null" d="m159.02578,26.88676c0,0.54975 0.43946,0.99505 0.9811,0.99505c0.54205,0 0.9811,-0.44529 0.9811,-0.99505c0,-0.54934 -0.43905,-0.99505 -0.9811,-0.99505c-0.54165,0 -0.9811,0.4457 -0.9811,0.99505z" fill="#1CE7C2" fill-opacity="0.4" id="svg_154"/><path class="firedancer_flame" stroke="null" d="m159.02578,10.96068c0,0.54975 0.43946,1.00037 0.9811,1.00037c0.54205,0 0.9811,-0.45062 0.9811,-1.00037c0,-0.54934 -0.43905,-0.99996 -0.9811,-0.99996c-0.54165,0 -0.9811,0.45062 -0.9811,0.99996z" fill="#1CE7C2" id="svg_155"/><path class="firedancer_flame" stroke="null" d="m159.02578,8.96567c0,0.54934 0.43946,0.99505 0.9811,0.99505c0.54205,0 0.9811,-0.4457 0.9811,-0.99505c0,-0.54975 -0.43905,-0.99505 -0.9811,-0.99505c-0.54165,0 -0.9811,0.44529 -0.9811,0.99505z" fill="#1CE7C2" id="svg_156"/><path class="firedancer_flame" stroke="null" d="m160.98798,32.86729c0,0.54975 0.43946,0.99505 0.9811,0.99505c0.54205,0 0.9811,-0.44529 0.9811,-0.99505c0,-0.54934 -0.43905,-0.99505 -0.9811,-0.99505c-0.54165,0 -0.9811,0.4457 -0.9811,0.99505z" fill="#1CE7C2" id="svg_157"/><path class="firedancer_flame" stroke="null" d="m162.95019,30.87719c0,0.54934 0.43946,0.99505 0.9811,0.99505c0.54205,0 0.9811,-0.4457 0.9811,-0.99505c0,-0.54975 -0.43905,-0.99505 -0.9811,-0.99505c-0.54165,0 -0.9811,0.44529 -0.9811,0.99505z" fill="#1CE7C2" id="svg_158"/><path class="firedancer_flame" stroke="null" d="m164.9124,28.87686c0,0.54934 0.43946,0.99505 0.9811,0.99505c0.54205,0 0.9811,-0.4457 0.9811,-0.99505c0,-0.54975 -0.43905,-0.99505 -0.9811,-0.99505c-0.54165,0 -0.9811,0.44529 -0.9811,0.99505z" fill="#1CE7C2" id="svg_159"/><path class="firedancer_flame" stroke="null" d="m164.9124,14.94619c0,0.54934 0.43946,0.99505 0.9811,0.99505c0.54205,0 0.9811,-0.4457 0.9811,-0.99505c0,-0.54975 -0.43905,-0.99505 -0.9811,-0.99505c-0.54165,0 -0.9811,0.44529 -0.9811,0.99505z" fill="#1CE7C2" id="svg_160"/><path class="firedancer_flame" stroke="null" d="m166.87461,26.88676c0,0.54975 0.43946,0.99505 0.9811,0.99505c0.54205,0 0.9811,-0.44529 0.9811,-0.99505c0,-0.54934 -0.43905,-0.99505 -0.9811,-0.99505c-0.54165,0 -0.9811,0.4457 -0.9811,0.99505z" fill="#1CE7C2" id="svg_161"/><path class="firedancer_flame" stroke="null" d="m166.87461,24.89667c0,0.54934 0.43946,0.99505 0.9811,0.99505c0.54205,0 0.9811,-0.4457 0.9811,-0.99505c0,-0.54975 -0.43905,-0.99505 -0.9811,-0.99505c-0.54165,0 -0.9811,0.44529 -0.9811,0.99505z" fill="#1CE7C2" id="svg_162"/><path class="firedancer_flame" stroke="null" d="m166.87461,22.90657c0,0.54934 0.43946,0.99505 0.9811,0.99505c0.54205,0 0.9811,-0.4457 0.9811,-0.99505c0,-0.54975 -0.43905,-0.99505 -0.9811,-0.99505c-0.54165,0 -0.9811,0.44529 -0.9811,0.99505z" fill="#1CE7C2" id="svg_163"/><path class="firedancer_flame" stroke="null" d="m166.87461,20.91648c0,0.54975 0.43946,0.99505 0.9811,0.99505c0.54205,0 0.9811,-0.44529 0.9811,-0.99505c0,-0.54934 -0.43905,-0.99505 -0.9811,-0.99505c-0.54165,0 -0.9811,0.4457 -0.9811,0.99505z" fill="#1CE7C2" id="svg_164"/><path class="firedancer_flame" stroke="null" d="m166.87461,18.92638c0,0.54934 0.43946,0.99505 0.9811,0.99505c0.54205,0 0.9811,-0.4457 0.9811,-0.99505c0,-0.54975 -0.43905,-0.99505 -0.9811,-0.99505c-0.54165,0 -0.9811,0.44529 -0.9811,0.99505z" fill="#1CE7C2" id="svg_165"/><path class="firedancer_flame" stroke="null" d="m166.87461,16.93629c0,0.54934 0.43946,0.99505 0.9811,0.99505c0.54205,0 0.9811,-0.4457 0.9811,-0.99505c0,-0.54975 -0.43905,-0.99505 -0.9811,-0.99505c-0.54165,0 -0.9811,0.44529 -0.9811,0.99505z" fill="#1CE7C2" id="svg_166"/><path stroke="null" d="m8.91032,15.17335c-1.64998,0 -2.56364,0.72058 -2.56364,3.08919l0,0.07742l4.56947,0l0,2.93516l-4.56947,0l0,10.27287l-3.93492,0l0,-10.27287l-2.41176,0l0,-2.93516l2.41176,0l0,-0.20606c0,-3.93922 1.95453,-5.89573 5.88945,-5.89573c1.09178,0 2.03087,0.15444 2.86859,0.46332l0,2.93516c-0.81227,-0.30888 -1.57405,-0.46332 -2.25949,-0.46332z" fill="white" id="svg_167"/><path stroke="null" d="m16.11532,16.07418c-0.86276,0.87543 -2.2086,0.87543 -3.07135,0c-0.86316,-0.87543 -0.86316,-2.23998 0,-3.11541c0.86276,-0.87502 2.2086,-0.87502 3.07135,0c0.86316,0.87543 0.86316,2.23998 0,3.11541zm0.43178,15.47383l-3.93492,0l0,-13.20804l3.93492,0l0,13.20804z" fill="white" id="svg_168"/><path stroke="null" d="m23.25933,18.33997l0,2.60048c1.11722,-1.9053 2.74176,-2.85774 4.84857,-2.85774l0,3.60454c-1.11682,0 -2.10681,0.20565 -3.12225,0.74639c-1.04088,0.54074 -1.72632,1.69924 -1.72632,3.26985l0,5.84452l-3.93452,0l0,-13.20804l3.93452,0z" fill="white" id="svg_169"/><path stroke="null" d="m36.83403,28.87052c1.44722,0 2.38632,-0.56655 2.84314,-1.72505l3.73175,0c-0.71089,2.88355 -3.12225,4.6598 -6.57489,4.6598c-2.1577,0 -3.95996,-0.64357 -5.38174,-1.90489c-1.42177,-1.26173 -2.13226,-2.90936 -2.13226,-4.96909c0,-2.13716 0.68544,-3.81059 2.08136,-5.02071c1.39633,-1.21012 3.12265,-1.82787 5.22946,-1.82787c4.64581,0 6.98123,2.39442 6.98123,7.18327l-10.17982,0c0.12683,2.13675 1.44722,3.60454 3.40175,3.60454zm-0.10138,-8.16193c-1.5995,0 -2.61493,0.79841 -3.07176,2.39442l5.73718,0c-0.07634,-1.51899 -1.04088,-2.39442 -2.66542,-2.39442z" fill="white" id="svg_170"/><path stroke="null" d="m56.09583,19.78195l0,-7.2865l3.93492,0l0,19.05256l-3.93492,0l0,-1.44198c-1.06593,1.1331 -2.46225,1.69924 -4.18858,1.69924c-1.95453,0 -3.57948,-0.61776 -4.82312,-1.82787c-1.2695,-1.21012 -1.90405,-2.90936 -1.90405,-5.04611c0,-2.13716 0.63455,-3.81059 1.90405,-5.02071c1.26909,-1.21012 2.86859,-1.82787 4.82312,-1.82787c1.72632,0 3.12265,0.56614 4.18858,1.69924zm-3.40175,9.08856c1.92949,0 3.40175,-1.4936 3.40175,-3.93922c0,-2.39442 -1.49771,-3.91383 -3.40175,-3.91383c-1.95453,0 -3.40135,1.5448 -3.40135,3.91383c0,2.39442 1.44682,3.93922 3.40135,3.93922z" fill="white" id="svg_171"/><path stroke="null" d="m75.20455,28.84471c0.07674,0 0.28274,-0.02581 0.58567,-0.05162l0,2.80653c-0.45642,0.12863 -0.98959,0.20565 -1.57526,0.20565c-1.64796,0 -2.99299,-0.7722 -3.37671,-2.21418c-1.03806,1.46779 -2.61332,2.21418 -4.71972,2.21418c-2.66583,0 -4.41719,-1.31294 -4.41719,-3.65574c0,-2.88355 2.43681,-4.68602 7.28699,-4.68602c0.53317,0 0.91284,0 1.16731,0.02581c0,-1.62223 -0.7634,-2.39442 -2.7668,-2.39442c-1.34665,0 -2.76842,0.33469 -4.26613,1.02987l0,-3.26985c1.5995,-0.51493 3.27493,-0.7722 4.97702,-0.7722c3.95835,0 5.93752,1.67343 5.93752,5.0203l0,4.14528c0,1.05568 0.28274,1.59642 1.16731,1.59642zm-7.91669,0.15444c1.54699,0 2.86778,-1.02987 2.86778,-2.57467l0,-0.77261c-0.60991,-0.0254 -1.01786,-0.05121 -1.21982,-0.05121c-2.43681,0 -3.45224,0.84962 -3.45224,1.9565c0,0.92704 0.71089,1.44198 1.80428,1.44198z" fill="white" id="svg_172"/><path stroke="null" d="m86.24349,18.08271c3.22323,0 5.10142,1.82787 5.10142,5.32918l0,8.13612l-3.93411,0l0,-6.61672c0,-2.2916 -0.91284,-3.4501 -2.71429,-3.4501c-1.90647,0 -3.32824,1.36455 -3.32824,4.06786l0,5.99896l-3.93411,0l0,-13.20804l3.93411,0l0,1.9053c1.24405,-1.44198 2.87182,-2.16256 4.87523,-2.16256z" fill="white" id="svg_173"/><path stroke="null" d="m100.88937,28.87052c1.45005,0 2.41136,-0.72099 2.87182,-2.16297l3.72812,0c-0.70685,3.19284 -3.06974,5.09772 -6.62417,5.09772c-2.1569,0 -3.93411,-0.61776 -5.33165,-1.87949c-1.42177,-1.26132 -2.13266,-2.90936 -2.13266,-4.99449c0,-2.05974 0.71089,-3.70777 2.13266,-4.96909c1.42177,-1.26173 3.19899,-1.87949 5.33165,-1.87949c3.55443,0 5.91732,1.90489 6.62417,5.09772l-3.72812,0c-0.46046,-1.44198 -1.42177,-2.16297 -2.87182,-2.16297c-2.02764,0 -3.37671,1.62223 -3.37671,3.91383c0,2.34281 1.34907,3.93922 3.37671,3.93922z" fill="white" id="svg_174"/><path stroke="null" d="m116.335,28.87052c1.44601,0 2.38309,-0.56655 2.83951,-1.72505l3.73216,0c-0.71089,2.88355 -3.12225,4.6598 -6.57166,4.6598c-2.16093,0 -3.96239,-0.64357 -5.38416,-1.90489c-1.42177,-1.26173 -2.13266,-2.90936 -2.13266,-4.96909c0,-2.13716 0.68665,-3.81059 2.08419,-5.02071c1.3935,-1.21012 3.12225,-1.82787 5.22663,-1.82787c4.645,0 6.98365,2.39442 6.98365,7.18327l-10.18265,0c0.12925,2.13675 1.45005,3.60454 3.40499,3.60454zm-0.10502,-8.16193c-1.5995,0 -2.61332,0.79841 -3.06974,2.39442l5.73556,0c-0.07674,-1.51899 -1.03806,-2.39442 -2.66583,-2.39442z" fill="white" id="svg_175"/><path stroke="null" d="m129.22387,18.33997l0,2.60048c1.1148,-1.9053 2.74257,-2.85774 4.84696,-2.85774l0,3.60454c-1.1148,0 -2.10439,0.20565 -3.12225,0.74639c-1.03806,0.54074 -1.72471,1.69924 -1.72471,3.26985l0,5.84452l-3.93411,0l0,-13.20804l3.93411,0z" fill="white" id="svg_176"/></g></g></svg>