<svg width="64" height="64" viewBox="0 0 64 64" fill="none" xmlns="http://www.w3.org/2000/svg">
<path d="M42.1043 52.2889C42.1043 57.8668 37.5833 62.3886 32.0064 62.3886C26.4294 62.3886 21.9084 57.8668 21.9084 52.2889C21.9084 46.711 32.0064 34.7827 32.0064 34.7827C32.0064 34.7827 42.1043 46.711 42.1043 52.2889Z" fill="#2DCB72"/>
<path d="M54.3946 28.6783C59.6996 30.402 62.603 36.0991 60.8796 41.403C59.1562 46.707 53.4587 49.6095 48.1538 47.8858C42.8488 46.1621 34.6248 32.8723 34.6248 32.8723C34.6248 32.8723 49.0897 26.9547 54.3946 28.6783Z" fill="#FFD30D"/>
<path d="M11.9218 21.542C8.64321 17.0294 9.64293 10.7138 14.1548 7.43575C18.6666 4.15771 24.982 5.15854 28.2607 9.67118C31.5393 14.1838 30.3811 29.7694 30.3811 29.7694C30.3811 29.7694 15.2005 26.0547 11.9218 21.542Z" fill="#7753FA"/>
<path d="M15.8461 47.8945C10.5412 49.6182 4.84368 46.7157 3.12031 41.4117C1.39694 36.1078 4.30036 30.4107 9.60528 28.687C14.9102 26.9634 29.3751 32.8811 29.3751 32.8811C29.3751 32.8811 21.1511 46.1708 15.8461 47.8945Z" fill="#13B5FA"/>
<path d="M35.7357 9.68657C39.0143 5.17393 45.3298 4.1731 49.8416 7.45115C54.3534 10.7292 55.3532 17.0448 52.0745 21.5574C48.7959 26.0701 33.6153 29.7848 33.6153 29.7848C33.6153 29.7848 32.4571 14.1992 35.7357 9.68657Z" fill="#FF612F"/>
</svg>
