<svg width="133" height="41" viewBox="0 0 133 41" fill="none"><g clip-path="url(#clip0_438_1520)"><path d="M66.5844 15.4724H67.4128V28.2858C67.4128 31.123 65.2397 33.0373 61.0586 33.0373V30.343C62.8539 30.343 63.7508 29.5868 63.7508 28.0491V15.4724H66.5844ZM64.1524 13.3914C63.9617 13.2053 63.8102 12.9828 63.7067 12.7371C63.6032 12.4914 63.5499 12.2275 63.5499 11.9609C63.5499 11.6943 63.6032 11.4304 63.7067 11.1848C63.8102 10.9391 63.9617 10.7166 64.1524 10.5305C64.3385 10.3396 64.5608 10.1879 64.8062 10.0844C65.0517 9.98084 65.3154 9.92749 65.5818 9.92749C65.8482 9.92749 66.1119 9.98084 66.3574 10.0844C66.6029 10.1879 66.8252 10.3396 67.0112 10.5305C67.2019 10.7166 67.3535 10.9391 67.4569 11.1848C67.5604 11.4304 67.6137 11.6943 67.6137 11.9609C67.6137 12.2275 67.5604 12.4914 67.4569 12.7371C67.3535 12.9828 67.2019 13.2053 67.0112 13.3914C66.8252 13.5823 66.6029 13.7339 66.3574 13.8375C66.1119 13.941 65.8482 13.9944 65.5818 13.9944C65.3154 13.9944 65.0517 13.941 64.8062 13.8375C64.5608 13.7339 64.3385 13.5823 64.1524 13.3914V13.3914Z" fill="#F9F7F4"/><path d="M78.014 15.4729H81.676V27.6001H78.014V25.8273C77.4596 26.4719 76.7701 26.9865 75.9945 27.3343C75.2189 27.6821 74.3763 27.8546 73.5265 27.8396C70.7853 27.8396 68.9662 26.1381 68.9662 22.9467V15.4757H72.6295V21.5519C72.6295 23.6525 73.4565 24.7196 75.1343 24.7196C76.7407 24.7196 78.0154 23.4662 78.0154 20.9834L78.014 15.4729Z" fill="#F9F7F4"/><path d="M104.525 20.1374V27.607H100.865V21.4131C100.865 19.3798 100.085 18.3636 98.525 18.3645C97.0137 18.3645 95.7138 19.6403 95.7138 22.0993V27.607H92.0518V21.4131C92.0518 19.3798 91.2724 18.3636 89.7136 18.3645C88.2023 18.3645 86.9024 19.6403 86.9024 22.0993V27.607H83.2404V15.4797H86.9024V17.2288C88.1072 15.9055 89.5247 15.2431 91.2024 15.2431C93.328 15.2431 94.7007 16.0707 95.336 17.7259C96.6364 16.066 98.1957 15.2361 100.014 15.2361C102.825 15.2361 104.525 16.7485 104.525 20.1374Z" fill="#F9F7F4"/><path d="M118.139 16.8914C119.32 18.0257 119.91 19.5619 119.91 21.5253C119.91 23.4886 119.32 25.0262 118.139 26.1353C116.958 27.2696 115.469 27.8368 113.65 27.8368C112.043 27.8368 110.744 27.3167 109.751 26.2767V32.8025H106.091V15.4728H109.751V16.7766C110.744 15.7375 112.043 15.2175 113.65 15.2166C115.469 15.2124 116.958 15.7795 118.139 16.8914ZM116.083 21.5253C116.083 19.3505 114.737 17.9081 112.918 17.9081C111.123 17.9081 109.751 19.2791 109.751 21.5253C109.751 23.7715 111.123 25.1424 112.918 25.1424C114.737 25.1424 116.083 23.7 116.083 21.5253Z" fill="#F9F7F4"/></g><path d="M132.899 24.249L132.899 27.113L121.452 27.113L121.452 24.249L132.899 24.249Z" fill="#1CE7C2"/><path d="M37.9708 0L37.9708 40.8488L-2.71178e-05 40.8488L-2.67029e-05 -8.12183e-06L37.9708 0Z" fill="#1CE7C2"/><defs><clipPath id="clip0_438_1520"><rect width="58.8517" height="23.109" fill="white" transform="translate(61.0586 9.92871)"/></clipPath></defs></svg>