<svg xmlns="http://www.w3.org/2000/svg" width="36" height="24" fill="none"><path fill="#000" d="m24.442 6.957 1.84 2.222c.21.25.396.455.472.571a3.02 3.02 0 0 1 .858 2.114c-.052.933-.644 1.57-1.192 2.25l-1.287 1.553-.67.805a.19.19 0 0 0 .043.287c.03.019.067.028.103.027h6.708c1.025 0 2.315.886 2.24 2.23a2.33 2.33 0 0 1-.67 1.628 2.268 2.268 0 0 1-1.606.678H20.777c-.691 0-2.55.077-3.07-1.553a1.96 1.96 0 0 1-.044-1.055c.152-.516.391-1 .707-1.433a65.74 65.74 0 0 1 1.664-2.39c.727-1.023 1.474-2.013 2.208-3.056a.195.195 0 0 0 0-.237l-2.668-3.22a.187.187 0 0 0-.232-.055.187.187 0 0 0-.066.055c-.715.978-3.844 5.309-4.512 6.186-.667.878-2.31.926-3.22 0L7.37 10.318a.19.19 0 0 0-.326.137v8.167c.01.579-.16 1.147-.484 1.624-.325.477-.789.84-1.327 1.036a2.255 2.255 0 0 1-2.072-.298 2.306 2.306 0 0 1-.706-.824 2.34 2.34 0 0 1-.256-1.06V4.417a2.54 2.54 0 0 1 .537-1.452 2.486 2.486 0 0 1 1.274-.858 2.501 2.501 0 0 1 1.317.003c.431.12.823.351 1.137.673l6.418 6.513a.187.187 0 0 0 .149.055.185.185 0 0 0 .137-.08l4.559-6.395a2.251 2.251 0 0 1 1.732-.841h11.858a2.254 2.254 0 0 1 1.713.79 2.32 2.32 0 0 1 .543 1.826 2.371 2.371 0 0 1-.797 1.451c-.43.37-.978.57-1.543.561h-6.64a.185.185 0 0 0-.16.102.191.191 0 0 0 .01.192z"/></svg>