<svg xmlns="http://www.w3.org/2000/svg" width="35" height="26" fill="none"><path fill="#000" fill-rule="evenodd" d="M17.053 17.547a.722.722 0 0 0 .025-.746L8.935 2.338A.648.648 0 0 0 8.372 2H2.655c-.505 0-.82.579-.564 1.039l10.698 19.266a.636.636 0 0 0 1.102.045l3.162-4.803zm14.762 5.69c.505 0 .82-.578.565-1.038L21.385 2.341A.648.648 0 0 0 20.82 2h-5.714c-.505 0-.82.579-.564 1.039l11.026 19.856a.648.648 0 0 0 .565.342h5.682zm-24.65-1.23c.258.46-.056 1.042-.563 1.042h-3.92c-.362 0-.655-.309-.655-.69v-6.973c0-.702.877-.956 1.217-.352l3.92 6.973z" clip-rule="evenodd"/></svg>