<svg xmlns="http://www.w3.org/2000/svg" width="29" height="33" fill="none"><path fill="#000" fill-rule="evenodd" d="M16.721 1.54c-.317.031-1.226.212-1.45.289-.08.027-.22.06-.309.073a1.73 1.73 0 0 0-.386.128 1.966 1.966 0 0 1-.249.105c-.024 0-.17.06-.399.163-.432.196-.524.244-.563.291a.167.167 0 0 1-.112.054c-.144 0-1.163.644-1.794 1.134-.212.164-.455.348-.542.407-.087.06-.203.165-.258.232-.056.068-.19.206-.3.308A17.448 17.448 0 0 0 9.098 6.04l-.402.486C8.464 6.8 7.78 7.78 7.665 8.003c-.024.045-.06.081-.083.081-.169 0-.166-.105-.166 6.032v5.741l.159.154c.087.085.175.154.196.154.021 0 .044.012.05.027.039.086.617.495.983.695 1.248.682 2.132.488 3.437-.753.184-.175.256-.222.327-.211.112.016.425.073.852.154.18.034.457.074.617.089.16.014.437.044.617.066 1.1.13 1.447.154 2.599.173 1.734.029 2.398-.027 3.532-.297.14-.034.296-.068.347-.078.073-.013.197.052.558.295.255.171.478.311.496.311.018 0 .113.057.213.127.1.07.204.127.232.127.029 0 .131.04.227.087.097.048.306.13.466.183l.453.148c.58.191 1.67-.07 1.67-.4 0-.022.018-.058.04-.08.052-.052.15-.338.255-.736.075-.288.08-.389.082-1.514l.002-1.205.2-.093a3.86 3.86 0 0 0 .297-.155c.053-.034.175-.11.272-.168.18-.109.566-.408.748-.579.056-.052.126-.095.155-.095.028 0 .052-.018.052-.04 0-.022.127-.206.281-.41.857-1.126 1.058-2.064.717-3.341a51.058 51.058 0 0 1-.183-.707 9.291 9.291 0 0 0-.195-.672c-.021-.06-.079-.23-.128-.38-.05-.15-.125-.362-.167-.472a3.95 3.95 0 0 1-.106-.308 1.207 1.207 0 0 0-.087-.218.49.49 0 0 1-.06-.17c0-.034-.014-.07-.032-.082-.019-.011-.044-.084-.058-.163-.013-.078-.047-.15-.075-.162-.029-.01-.052-.038-.052-.061a1.98 1.98 0 0 0-.127-.313 1.811 1.811 0 0 1-.127-.32c0-.027-.016-.059-.035-.07-.02-.013-.053-.087-.074-.166-.021-.08-.053-.144-.07-.144-.017 0-.05-.045-.071-.1a2.782 2.782 0 0 0-.134-.263c-.05-.09-.154-.277-.23-.417a8.55 8.55 0 0 0-.501-.84 6.606 6.606 0 0 1-.227-.36c0-.015-.564-.753-.717-.94-.444-.54-1.302-1.403-1.626-1.633a4.264 4.264 0 0 1-.213-.164 4.11 4.11 0 0 0-.256-.19c-.08-.055-.2-.148-.267-.208-.068-.06-.15-.109-.184-.109a.16.16 0 0 1-.099-.038c-.071-.072-.724-.418-1.05-.557a9.99 9.99 0 0 1-.383-.17 8.569 8.569 0 0 0-1.227-.37l-.562-.118c-.28-.059-2.092-.107-2.504-.067zM4.478 10.154a2.05 2.05 0 0 1-.264.142c-.015 0-.108.058-.208.128-.1.07-.188.127-.197.127-.026 0-.503.33-.585.403-.041.038-.092.069-.113.069-.251 0-1.644 1.656-2.004 2.383-.464.934-.308 1.73.342 1.75.101.004.933.277 1.523.5.18.07.392.15.472.18.15.057.402.169.568.253a.465.465 0 0 0 .131.049c.032 0 .17.075.48.26.098.059.102.058.123-.018.031-.116.026-6.275-.006-6.324-.018-.03-.098 0-.262.098zm12.194 1.325c.328.166.72.63.72.853a.5.5 0 0 0 .054.177c.075.145.109.567.06.747-.082.304-.367.406-.726.26a5.62 5.62 0 0 0-.403-.133 4.535 4.535 0 0 1-.391-.132.616.616 0 0 0-.179-.052c-.068 0-.407-.095-.591-.166a1.68 1.68 0 0 0-.265-.073c-.306-.052-.464-.338-.343-.619.06-.138.285-.448.326-.448a.504.504 0 0 0 .148-.124c.366-.392 1.119-.53 1.59-.29zM13.6 15.137c.08.027.15.068.158.09.007.022.05.04.096.04s.105.026.132.058a.391.391 0 0 0 .122.091c.04.018.098.046.128.063.063.036.337.162.472.216.05.02.164.07.254.109.09.04.261.11.38.156.12.046.235.094.255.107.02.013.183.068.363.122.18.055.359.113.399.13.125.052.431.15.526.168.05.01.172.04.272.068 1.21.342 2.347.462 4.244.45.738-.006 1.542-.01 1.785-.012.53-.003.592.027.407.2-.16.149-1.218.65-1.373.65a.157.157 0 0 0-.095.033c-.038.037-.758.286-.96.332-.07.016-.265.069-.435.118-1.07.307-2.372.447-2.884.31a3.699 3.699 0 0 0-.363-.067c-.508-.07-1.438-.468-2.059-.884-.114-.077-.208-.153-.208-.17 0-.016-.029-.04-.064-.05-.066-.021-.76-.684-.916-.875a6.614 6.614 0 0 1-.514-.688c-.441-.68-.474-.888-.122-.765zm-6.655 7.367c-.036.044-.034.058.01.075.03.012.158.171.283.354.252.37.515.722.61.816.035.034.127.143.205.243.649.822 2.49 2.35 3.759 3.12.145.087.524.345.573.388a.776.776 0 0 0 .145.092c.105.05.116.057.572.363.186.125.348.227.359.227.011 0 .058.029.104.063.101.078.113.086.653.441.379.25.685.522.914.812l.322.412c.154.197.29.366.304.376.013.01.12.14.238.29.7.891 1.556 1.561 1.88 1.473.142-.04.387-.317.387-.44 0-.031.022-.101.05-.155.088-.175.312-1.29.315-1.567 0-.09.016-.237.035-.326.018-.09.051-.367.072-.616.074-.852.145-.996.718-1.455.29-.233.633-.53.992-.862.205-.19.612-.661.612-.71 0-.013.028-.068.063-.12.24-.367.204-.722-.09-.867-.18-.09-1.548-.091-1.932-.002-.13.03-.342.066-.472.079-.13.013-.35.046-.49.074-.486.095-.867.086-.967-.023-.108-.12-.248-.313-.248-.344a.763.763 0 0 0-.049-.137c-.204-.478-.257-1.277-.117-1.742.048-.157.054-.22.023-.24-.023-.014-1.285-.036-2.804-.05-2.884-.025-4.68-.048-6.127-.078-.728-.015-.864-.01-.902.036z" clip-rule="evenodd"/><path fill="#C7C7C7" fill-rule="evenodd" d="M5.706 1.01c-.315.102-.684.375-.684.507 0 .02-.029.066-.065.101a1.202 1.202 0 0 0-.15.227l-.085.162.026 7.146c.014 3.931.012 7.183-.004 7.226-.017.044-.022 1.22-.012 2.612l.018 2.533.105.21c.2.401.536.666.978.77.32.076 1.051.073 1.115-.004.041-.05.127-.055.648-.037.33.012 1.523.032 2.65.045 3.92.045 6.52.085 7.8.12.708.02 2.904.04 4.88.046l3.59.01.246-.123c.307-.155.504-.352.653-.655l.117-.237.009-2.54c.01-3.049.017-2.952-.197-2.752a6.33 6.33 0 0 1-.749.579l-.272.167a3.352 3.352 0 0 1-.296.156l-.2.093-.002 1.205c-.002 1.125-.008 1.226-.083 1.514-.104.397-.203.684-.255.735a.147.147 0 0 0-.04.081c0 .33-1.09.591-1.67.4l-.453-.148a4.32 4.32 0 0 1-.465-.183.91.91 0 0 0-.227-.087c-.029 0-.134-.057-.233-.127-.1-.07-.195-.127-.213-.127-.018 0-.24-.14-.496-.311-.361-.243-.484-.308-.557-.295-.052.01-.209.044-.348.078-1.134.27-1.798.326-3.532.297-1.151-.019-1.499-.042-2.599-.174-.18-.02-.457-.05-.617-.065a8.055 8.055 0 0 1-.617-.09c-.427-.08-.74-.137-.852-.153-.07-.01-.143.036-.326.21-1.305 1.242-2.19 1.436-3.437.754-.367-.2-.945-.61-.983-.695-.007-.015-.031-.028-.055-.028-.023 0-.112-.07-.197-.157l-.154-.155.01-5.802c.015-8.258.023-9.946.048-10.045.028-.114.094-.136.283-.094.084.02.3.045.478.057.178.012.442.046.586.074.144.028.347.052.451.052.105 0 .338.024.519.053 1.024.165.964.178 1.669-.37.628-.489 1.649-1.134 1.793-1.134a.167.167 0 0 0 .112-.054c.04-.047.131-.095.563-.29.24-.11.376-.164.405-.164.017 0 .108-.04.203-.088l.173-.088-.184-.039a2.41 2.41 0 0 0-.414-.04c-.127 0-.359-.024-.515-.054a3.158 3.158 0 0 0-.472-.054c-.103 0-.315-.025-.471-.054a3.138 3.138 0 0 0-.466-.055c-.1 0-.312-.023-.471-.05a7.894 7.894 0 0 0-.6-.075 6.028 6.028 0 0 1-.569-.077 2.954 2.954 0 0 0-.47-.052c-.114 0-.355-.024-.536-.053-.18-.03-.484-.07-.673-.09-.873-.092-1.09-.119-1.36-.168a3.465 3.465 0 0 0-.49-.052c-.11 0-.339-.024-.508-.054-.387-.068-.546-.064-.804.02zM22.69 2.918c0 .018.091.097.201.177.11.08.262.194.337.254.076.06.183.142.24.181.327.235 1.183 1.095 1.624 1.633.153.187.717.925.717.94 0 .006.102.168.227.36.25.38.3.467.502.84.075.14.179.328.23.417.051.09.111.209.133.263.022.055.054.1.071.1.017 0 .049.065.07.144.022.079.055.153.074.165.02.012.035.044.035.071 0 .027.055.169.123.315.067.147.132.295.143.33.033.095.086.077.107-.036.01-.055.015-1.137.012-2.404l-.006-2.303-.1-.206c-.298-.615-.773-.841-1.931-.92a6.523 6.523 0 0 1-.563-.072 3.617 3.617 0 0 0-.482-.054 3.89 3.89 0 0 1-.49-.052c-.172-.029-.493-.07-.712-.091a5.722 5.722 0 0 1-.481-.061c-.045-.012-.081-.008-.08.01z" clip-rule="evenodd"/></svg>