<svg width="500" height="500" viewBox="0 0 500 500" fill="none" xmlns="http://www.w3.org/2000/svg">
<path d="M500 156.408C500 150.435 500 144.462 499.97 138.495C499.939 133.463 499.878 128.432 499.745 123.407C499.447 112.451 498.803 101.404 496.859 90.5698C494.884 79.5714 491.657 69.3326 486.565 59.3369C481.57 49.5234 475.038 40.5364 467.254 32.7524C459.464 24.9624 450.483 18.4363 440.664 13.4354C430.674 8.34942 420.441 5.12282 409.449 3.14798C398.615 1.19744 387.555 0.553336 376.6 0.255591C371.568 0.121909 366.543 0.0611442 361.512 0.030762C355.539 -0.00569669 349.566 0.000379782 343.599 0.000379782H156.408C150.434 0.000379782 144.461 0.000379753 138.494 0.030762C133.463 0.0611442 128.432 0.121909 123.406 0.255591C112.451 0.553336 101.392 1.19744 90.5572 3.14798C79.5649 5.12282 69.3322 8.34942 59.3425 13.4354C49.523 18.4302 40.542 24.9624 32.752 32.7524C24.962 40.5424 18.4359 49.5234 13.435 59.3369C8.34903 69.3326 5.12244 79.5654 3.1476 90.5698C1.20314 101.404 0.552956 112.451 0.261287 123.407C0.127605 128.438 0.066841 133.463 0.0364588 138.495C1.10919e-07 144.468 0 150.441 0 156.408V343.593C0 349.566 1.10919e-07 355.539 0.0364588 361.506C0.066841 366.538 0.127605 371.563 0.261287 376.594C0.559033 387.55 1.20314 398.597 3.1476 409.431C5.12244 420.43 8.34903 430.669 13.435 440.664C18.4298 450.478 24.962 459.465 32.752 467.249C40.542 475.039 49.523 481.565 59.3425 486.566C69.3322 491.652 79.5649 494.878 90.5572 496.853C101.392 498.804 112.445 499.448 123.406 499.746C128.438 499.879 133.463 499.94 138.494 499.97C144.467 500.007 150.441 500.001 156.408 500.001H343.592C349.566 500.001 355.539 500.001 361.506 499.97C366.537 499.94 371.562 499.879 376.594 499.746C387.549 499.448 398.602 498.804 409.443 496.853C420.435 494.878 430.668 491.652 440.657 486.566C450.477 481.571 459.458 475.039 467.248 467.249C475.038 459.459 481.564 450.478 486.559 440.664C491.645 430.669 494.872 420.436 496.852 409.431C498.797 398.597 499.447 387.55 499.739 376.594C499.872 371.563 499.933 366.538 499.964 361.506C500 355.533 499.994 349.56 499.994 343.593V156.408H500Z" fill="#1B1B1C"/>
<path fill-rule="evenodd" clip-rule="evenodd" d="M183.468 366.79C128.121 366.79 83.2538 321.923 83.2538 266.576C83.2538 218.596 116.972 178.491 162.005 168.665C184.731 136.932 221.91 116.254 263.919 116.254C328.669 116.254 381.945 165.381 388.507 228.395C405.762 242.743 416.746 264.373 416.746 288.567C416.746 331.769 381.725 366.791 338.523 366.791C338.495 366.791 338.466 366.79 338.438 366.79H264.058C264.012 366.791 263.965 366.791 263.919 366.791C263.872 366.791 263.825 366.791 263.779 366.79H183.468ZM323.634 217.727C335.512 217.727 345.141 208.098 345.141 196.22C345.141 184.342 335.512 174.713 323.634 174.713C311.756 174.713 302.127 184.342 302.127 196.22C302.127 208.098 311.756 217.727 323.634 217.727ZM237.611 217.727C249.489 217.727 259.118 208.098 259.118 196.22C259.118 184.342 249.489 174.713 237.611 174.713C225.733 174.713 216.103 184.342 216.103 196.22C216.103 208.098 225.733 217.727 237.611 217.727ZM319.787 237.203C327.953 236.053 334.845 235.084 338.994 235.084C349.174 235.084 357.428 243.337 357.428 253.518C357.428 295.936 323.04 330.324 280.622 330.324C238.203 330.324 203.816 295.936 203.816 253.518C203.816 243.337 212.07 235.084 222.25 235.084C226.399 235.084 233.291 236.053 241.456 237.203C253.324 238.873 267.883 240.921 280.622 240.921C293.361 240.921 307.919 238.873 319.787 237.203ZM280.619 314.963C297.452 314.963 312.704 308.193 323.8 297.228H323.795C328.733 292.348 327.116 284.002 320.744 281.252C309.979 276.606 295.955 273.794 280.616 273.794C265.278 273.794 251.253 276.606 240.489 281.252C234.117 284.002 232.499 292.351 237.438 297.228C248.536 308.193 263.786 314.963 280.619 314.963Z" fill="#F7F9FB"/>
</svg>
