<svg width="1501" height="415" viewBox="0 0 1501 415" fill="none" xmlns="http://www.w3.org/2000/svg">
<path fill-rule="evenodd" clip-rule="evenodd" d="M127.955 211.225C127.955 275.875 140.729 325.505 275.659 328.284C410.588 331.063 423.362 275.875 423.362 211.225C423.362 146.576 408.592 92.7777 275.659 94.167C142.725 95.5563 127.955 146.576 127.955 211.225ZM234.374 287.637L234.463 287.637H285.513C285.626 287.637 285.739 287.638 285.852 287.638C285.965 287.638 286.078 287.637 286.191 287.637H333.313C333.405 287.637 333.498 287.638 333.59 287.638C361.233 287.638 383.643 265.228 383.643 237.585C383.643 222.103 376.614 208.263 365.574 199.082C361.375 158.76 327.285 127.325 285.852 127.325C258.972 127.325 235.183 140.556 220.641 160.861C191.825 167.148 170.249 192.811 170.249 223.512C170.249 258.927 198.959 287.637 234.374 287.637ZM282.78 178.493C282.78 186.093 276.619 192.255 269.018 192.255C261.418 192.255 255.256 186.093 255.256 178.493C255.256 170.892 261.418 164.731 269.018 164.731C276.619 164.731 282.78 170.892 282.78 178.493ZM337.824 178.493C337.824 186.094 331.662 192.255 324.062 192.255C316.461 192.255 310.3 186.094 310.3 178.493C310.3 170.892 316.461 164.731 324.062 164.731C331.662 164.731 337.824 170.892 337.824 178.493ZM333.891 203.361C331.236 203.361 326.826 203.981 321.601 204.717C314.007 205.785 304.691 207.096 296.54 207.096C288.388 207.096 279.073 205.785 271.479 204.717C266.254 203.981 261.844 203.361 259.189 203.361C252.675 203.361 247.393 208.642 247.393 215.156C247.393 242.299 269.397 264.303 296.54 264.303C323.682 264.303 345.686 242.299 345.686 215.156C345.686 208.642 340.405 203.361 333.891 203.361ZM324.169 243.125C317.069 250.142 307.309 254.474 296.538 254.474C285.767 254.474 276.009 250.142 268.907 243.125C265.747 240.005 266.782 234.663 270.859 232.903C277.747 229.93 286.721 228.131 296.536 228.131C306.351 228.131 315.325 229.93 322.213 232.903C326.29 234.663 327.325 240.003 324.165 243.125H324.169Z" fill="#1B1B1C"/>
<path d="M1202.4 285.752V162.306H1228.64L1230.51 176.36C1233.63 172.144 1236.99 168.942 1240.58 166.756C1244.33 164.414 1248.16 162.774 1252.06 161.837C1256.12 160.9 1259.95 160.432 1263.54 160.432C1271.35 160.432 1277.98 161.993 1283.45 165.117C1289.07 168.24 1293.44 172.925 1296.57 179.171C1299.69 174.799 1303.2 171.285 1307.11 168.63C1311.01 165.819 1315.15 163.789 1319.52 162.54C1323.9 161.134 1328.5 160.432 1333.34 160.432C1342.87 160.432 1350.52 162.462 1356.3 166.522C1362.08 170.426 1366.29 175.892 1368.95 182.919C1371.6 189.79 1372.93 197.676 1372.93 206.578V285.752H1344.35V215.713C1344.35 212.59 1344.2 209.31 1343.88 205.875C1343.57 202.439 1342.71 199.238 1341.31 196.271C1340.06 193.304 1338.18 190.883 1335.69 189.009C1333.19 187.135 1329.67 186.198 1325.14 186.198C1320.62 186.198 1316.87 187.214 1313.9 189.244C1311.09 191.118 1308.75 193.694 1306.87 196.974C1305.16 200.097 1303.91 203.611 1303.13 207.515C1302.5 211.263 1302.19 215.01 1302.19 218.758V285.752H1273.61V215.479C1273.61 212.512 1273.38 209.389 1272.91 206.109C1272.6 202.674 1271.81 199.472 1270.57 196.505C1269.47 193.382 1267.6 190.883 1264.94 189.009C1262.45 187.135 1258.93 186.198 1254.4 186.198C1247.84 186.198 1242.85 187.994 1239.41 191.586C1236.13 195.178 1233.87 199.55 1232.62 204.704C1231.52 209.857 1230.98 214.776 1230.98 219.461V285.752H1202.4Z" fill="#1B1B1C"/>
<path d="M1126.58 287.391C1108.77 287.391 1095.11 282.785 1085.58 273.571C1076.21 264.358 1071.53 250.303 1071.53 231.407V162.305H1100.11V229.533C1100.11 236.092 1100.97 241.792 1102.68 246.633C1104.56 251.474 1107.45 255.222 1111.35 257.877C1115.41 260.375 1120.49 261.625 1126.58 261.625C1133.14 261.625 1138.29 260.297 1142.04 257.643C1145.94 254.832 1148.67 251.006 1150.24 246.165C1151.8 241.324 1152.58 235.78 1152.58 229.533V162.305H1181.16V231.407C1181.16 250.771 1176.31 264.982 1166.63 274.04C1157.11 282.941 1143.75 287.391 1126.58 287.391Z" fill="#1B1B1C"/>
<path d="M1028.41 287.157C1014.82 287.157 1004.91 283.409 998.659 275.913C992.413 268.418 989.289 258.033 989.289 244.759V187.604H970.316V162.305H989.289V127.637H1017.87V162.305H1055.35V187.604H1017.87V239.371C1017.87 243.432 1018.34 247.102 1019.27 250.381C1020.21 253.66 1021.93 256.237 1024.43 258.111C1026.92 259.985 1030.36 261 1034.73 261.156C1038.48 261.156 1041.68 260.531 1044.34 259.282C1046.99 258.033 1049.18 256.627 1050.9 255.066L1060.5 276.85C1057.53 279.349 1054.17 281.379 1050.43 282.941C1046.84 284.502 1043.17 285.596 1039.42 286.22C1035.67 286.845 1032 287.157 1028.41 287.157Z" fill="#1B1B1C"/>
<path d="M906.697 287.391C893.891 287.391 883.116 284.815 874.371 279.661C865.626 274.352 858.989 266.934 854.46 257.408C849.931 247.882 847.667 236.873 847.667 224.38C847.667 211.887 850.01 200.877 854.694 191.351C859.379 181.669 866.25 174.096 875.308 168.63C884.365 163.164 895.375 160.431 908.336 160.431C917.862 160.431 926.295 162.071 933.635 165.35C941.13 168.63 947.143 173.471 951.671 179.874C956.356 186.12 959.323 193.928 960.573 203.298H932.463C930.589 197.364 927.466 193.069 923.094 190.415C918.877 187.604 913.802 186.198 907.868 186.198C899.903 186.198 893.579 188.15 888.894 192.054C884.365 195.802 881.086 200.565 879.056 206.343C877.026 212.121 876.011 218.133 876.011 224.38C876.011 230.939 877.104 237.107 879.29 242.885C881.476 248.507 884.834 253.036 889.362 256.471C894.047 259.907 900.06 261.625 907.399 261.625C913.333 261.625 918.643 260.297 923.328 257.642C928.169 254.988 931.292 250.693 932.698 244.759H961.744C960.651 254.285 957.449 262.249 952.14 268.652C946.986 274.898 940.428 279.583 932.463 282.707C924.499 285.83 915.91 287.391 906.697 287.391Z" fill="#1B1B1C"/>
<path d="M715.88 285.752V162.305H742.583L744.223 178C747.502 173.627 751.328 170.191 755.701 167.693C760.073 165.194 764.68 163.398 769.521 162.305C774.362 161.056 778.891 160.431 783.107 160.431C794.82 160.431 804.033 163.008 810.748 168.161C817.619 173.315 822.46 180.186 825.271 188.775C828.082 197.364 829.488 206.968 829.488 217.587V285.752H800.91V222.272C800.91 217.743 800.598 213.37 799.973 209.154C799.348 204.781 798.099 200.877 796.225 197.442C794.507 194.006 792.009 191.273 788.729 189.243C785.45 187.213 781.077 186.198 775.612 186.198C768.897 186.198 763.197 187.994 758.512 191.586C753.827 195.177 750.313 200.019 747.971 206.109C745.628 212.043 744.457 218.836 744.457 226.488V285.752H715.88Z" fill="#1B1B1C"/>
<path d="M628.526 287.392C622.748 287.392 617.282 286.611 612.129 285.049C606.975 283.488 602.369 281.223 598.308 278.256C594.248 275.133 590.969 271.307 588.47 266.778C586.128 262.093 584.957 256.628 584.957 250.381C584.957 242.417 586.518 235.936 589.641 230.939C592.765 225.786 596.981 221.882 602.291 219.227C607.756 216.572 613.925 214.776 620.796 213.839C627.667 212.746 634.85 212.199 642.346 212.199H666.473C666.473 206.734 665.614 202.049 663.897 198.145C662.179 194.085 659.446 190.883 655.698 188.541C652.106 186.198 647.422 185.027 641.644 185.027C637.896 185.027 634.382 185.496 631.103 186.433C627.979 187.213 625.246 188.541 622.904 190.415C620.718 192.133 619.156 194.397 618.219 197.208H588.939C590.032 190.805 592.218 185.34 595.498 180.811C598.933 176.126 603.071 172.3 607.912 169.333C612.91 166.366 618.375 164.18 624.309 162.774C630.244 161.212 636.256 160.432 642.346 160.432C660.305 160.432 673.344 165.585 681.465 175.892C689.742 186.198 693.88 200.643 693.88 219.227V285.752H668.582L667.879 269.823C664.287 275.133 659.993 279.037 654.995 281.536C649.998 284.034 645.157 285.596 640.472 286.22C635.787 287.001 631.805 287.392 628.526 287.392ZM634.148 264.202C640.394 264.202 645.938 263.03 650.779 260.688C655.62 258.345 659.446 255.066 662.257 250.85C665.224 246.633 666.708 241.792 666.708 236.327V232.344H644.22C640.472 232.344 636.724 232.501 632.976 232.813C629.385 232.969 626.105 233.594 623.138 234.687C620.171 235.624 617.751 237.107 615.877 239.137C614.159 241.168 613.3 244.057 613.3 247.805C613.3 251.552 614.237 254.598 616.111 256.94C618.141 259.282 620.718 261.078 623.841 262.328C627.12 263.577 630.556 264.202 634.148 264.202Z" fill="#1B1B1C"/>
<path d="M519.532 287.391C513.598 287.391 507.664 286.767 501.73 285.517C495.952 284.268 490.486 282.238 485.332 279.427C480.179 276.46 475.885 272.478 472.449 267.481C469.013 262.483 466.749 256.237 465.656 248.741H494.468C495.717 252.177 497.669 254.988 500.324 257.174C503.135 259.204 506.336 260.766 509.928 261.859C513.676 262.796 517.346 263.264 520.938 263.264C523.124 263.264 525.466 263.108 527.965 262.796C530.62 262.483 533.04 261.859 535.226 260.922C537.569 259.985 539.443 258.658 540.848 256.94C542.254 255.066 542.956 252.645 542.956 249.678C542.956 246.867 542.176 244.681 540.614 243.119C539.052 241.402 536.944 240.074 534.289 239.137C531.635 238.044 528.433 237.185 524.685 236.561C517.97 235.155 510.787 233.672 503.135 232.11C495.483 230.392 488.846 227.737 483.224 224.146C480.882 222.74 478.852 221.1 477.134 219.226C475.416 217.353 473.933 215.322 472.683 213.136C471.59 210.794 470.731 208.295 470.107 205.64C469.638 202.986 469.404 200.097 469.404 196.973C469.404 190.415 470.731 184.871 473.386 180.342C476.197 175.657 479.867 171.909 484.395 169.098C489.08 166.131 494.39 163.945 500.324 162.54C506.258 161.134 512.349 160.431 518.595 160.431C527.028 160.431 534.68 161.759 541.551 164.413C548.422 167.068 554.122 171.128 558.651 176.594C563.336 182.06 566.147 189.009 567.084 197.442H539.911C539.13 193.538 536.71 190.415 532.65 188.072C528.746 185.73 523.748 184.558 517.658 184.558C515.472 184.558 513.207 184.793 510.865 185.261C508.523 185.573 506.258 186.198 504.072 187.135C502.042 187.916 500.324 189.165 498.919 190.883C497.669 192.601 497.045 194.709 497.045 197.208C497.045 199.55 497.591 201.58 498.684 203.298C499.934 205.016 501.73 206.499 504.072 207.749C506.571 208.842 509.46 209.779 512.739 210.559C518.049 211.653 523.592 212.746 529.37 213.839C535.148 214.932 540.145 216.025 544.362 217.118C549.359 218.524 553.888 220.554 557.948 223.209C562.008 225.707 565.131 229.065 567.318 233.281C569.66 237.341 570.831 242.573 570.831 248.975C570.831 256.471 569.27 262.718 566.147 267.715C563.179 272.712 559.197 276.616 554.2 279.427C549.203 282.238 543.659 284.268 537.569 285.517C531.478 286.767 525.466 287.391 519.532 287.391Z" fill="#1B1B1C"/>
</svg>
