<svg width="1501" height="415" viewBox="0 0 1501 415" fill="none" xmlns="http://www.w3.org/2000/svg">
<path d="M275.659 327.919C140.729 325.14 127.955 275.51 127.955 210.86C127.955 146.211 142.725 95.1911 275.659 93.8018C408.592 92.4125 423.362 146.211 423.362 210.86C423.362 275.51 410.588 330.697 275.659 327.919Z" fill="#6DC4FE"/>
<path fill-rule="evenodd" clip-rule="evenodd" d="M234.463 287.272C234.434 287.272 234.404 287.272 234.374 287.272C198.959 287.272 170.249 258.562 170.249 223.147C170.249 192.445 191.825 166.783 220.641 160.496C235.183 140.191 258.972 126.96 285.852 126.96C327.285 126.96 361.375 158.395 365.574 198.716C376.614 207.898 383.643 221.738 383.643 237.219C383.643 264.863 361.233 287.273 333.59 287.273C333.498 287.273 333.405 287.272 333.313 287.272H286.191C286.078 287.272 285.965 287.272 285.852 287.272C285.739 287.272 285.626 287.272 285.513 287.272H234.463ZM269.018 191.89C276.619 191.89 282.78 185.728 282.78 178.128C282.78 170.527 276.619 164.366 269.018 164.366C261.418 164.366 255.256 170.527 255.256 178.128C255.256 185.728 261.418 191.89 269.018 191.89ZM324.062 191.89C331.662 191.89 337.824 185.728 337.824 178.128C337.824 170.527 331.662 164.366 324.062 164.366C316.461 164.366 310.3 170.527 310.3 178.128C310.3 185.728 316.461 191.89 324.062 191.89ZM321.601 204.352C326.826 203.616 331.236 202.996 333.891 202.996C340.405 202.996 345.686 208.277 345.686 214.791C345.686 241.934 323.682 263.938 296.54 263.938C269.397 263.938 247.393 241.934 247.393 214.791C247.393 208.277 252.675 202.996 259.189 202.996C261.844 202.996 266.254 203.616 271.479 204.352C279.073 205.42 288.388 206.731 296.54 206.731C304.691 206.731 314.007 205.42 321.601 204.352ZM296.538 254.109C307.309 254.109 317.069 249.777 324.169 242.76H324.165C327.325 239.638 326.29 234.298 322.213 232.538C315.325 229.565 306.351 227.766 296.536 227.766C286.721 227.766 277.747 229.565 270.859 232.538C266.782 234.298 265.747 239.64 268.907 242.76C276.009 249.777 285.767 254.109 296.538 254.109Z" fill="#F7F9FB"/>
<path d="M1202.4 285.387V161.94H1228.64L1230.51 175.995C1233.63 171.779 1236.99 168.577 1240.58 166.391C1244.33 164.049 1248.16 162.409 1252.06 161.472C1256.12 160.535 1259.95 160.066 1263.54 160.066C1271.35 160.066 1277.98 161.628 1283.45 164.751C1289.07 167.875 1293.44 172.559 1296.57 178.806C1299.69 174.433 1303.2 170.92 1307.11 168.265C1311.01 165.454 1315.15 163.424 1319.52 162.175C1323.9 160.769 1328.5 160.066 1333.34 160.066C1342.87 160.066 1350.52 162.097 1356.3 166.157C1362.08 170.061 1366.29 175.526 1368.95 182.554C1371.6 189.425 1372.93 197.311 1372.93 206.212V285.387H1344.35V215.348C1344.35 212.225 1344.2 208.945 1343.88 205.51C1343.57 202.074 1342.71 198.873 1341.31 195.906C1340.06 192.939 1338.18 190.518 1335.69 188.644C1333.19 186.77 1329.67 185.833 1325.14 185.833C1320.62 185.833 1316.87 186.848 1313.9 188.878C1311.09 190.752 1308.75 193.329 1306.87 196.608C1305.16 199.732 1303.91 203.245 1303.13 207.149C1302.5 210.897 1302.19 214.645 1302.19 218.393V285.387H1273.61V215.114C1273.61 212.147 1273.38 209.023 1272.91 205.744C1272.6 202.308 1271.81 199.107 1270.57 196.14C1269.47 193.017 1267.6 190.518 1264.94 188.644C1262.45 186.77 1258.93 185.833 1254.4 185.833C1247.84 185.833 1242.85 187.629 1239.41 191.221C1236.13 194.813 1233.87 199.185 1232.62 204.338C1231.52 209.492 1230.98 214.411 1230.98 219.096V285.387H1202.4Z" fill="#F7F9FB"/>
<path d="M1126.58 287.026C1108.77 287.026 1095.11 282.419 1085.58 273.206C1076.21 263.992 1071.53 249.938 1071.53 231.042V161.94H1100.11V229.168C1100.11 235.727 1100.97 241.427 1102.68 246.268C1104.56 251.109 1107.45 254.857 1111.35 257.512C1115.41 260.01 1120.49 261.259 1126.58 261.259C1133.14 261.259 1138.29 259.932 1142.04 257.277C1145.94 254.466 1148.67 250.64 1150.24 245.799C1151.8 240.958 1152.58 235.415 1152.58 229.168V161.94H1181.16V231.042C1181.16 250.406 1176.31 264.617 1166.63 273.674C1157.11 282.576 1143.75 287.026 1126.58 287.026Z" fill="#F7F9FB"/>
<path d="M1028.41 286.792C1014.82 286.792 1004.91 283.044 998.659 275.548C992.413 268.052 989.289 257.668 989.289 244.394V187.238H970.316V161.94H989.289V127.272H1017.87V161.94H1055.35V187.238H1017.87V239.006C1017.87 243.066 1018.34 246.736 1019.27 250.016C1020.21 253.295 1021.93 255.872 1024.43 257.746C1026.92 259.62 1030.36 260.635 1034.73 260.791C1038.48 260.791 1041.68 260.166 1044.34 258.917C1046.99 257.668 1049.18 256.262 1050.9 254.701L1060.5 276.485C1057.53 278.984 1054.17 281.014 1050.43 282.576C1046.84 284.137 1043.17 285.23 1039.42 285.855C1035.67 286.48 1032 286.792 1028.41 286.792Z" fill="#F7F9FB"/>
<path d="M906.697 287.026C893.891 287.026 883.116 284.45 874.371 279.296C865.626 273.987 858.989 266.569 854.46 257.043C849.931 247.517 847.667 236.508 847.667 224.015C847.667 211.522 850.01 200.512 854.694 190.986C859.379 181.304 866.25 173.73 875.308 168.265C884.365 162.799 895.375 160.066 908.336 160.066C917.862 160.066 926.295 161.706 933.635 164.985C941.13 168.265 947.143 173.106 951.671 179.508C956.356 185.755 959.323 193.563 960.573 202.933H932.463C930.589 196.999 927.466 192.704 923.094 190.049C918.877 187.238 913.802 185.833 907.868 185.833C899.903 185.833 893.579 187.785 888.894 191.689C884.365 195.437 881.086 200.2 879.056 205.978C877.026 211.756 876.011 217.768 876.011 224.015C876.011 230.573 877.104 236.742 879.29 242.52C881.476 248.142 884.834 252.67 889.362 256.106C894.047 259.542 900.06 261.259 907.399 261.259C913.333 261.259 918.643 259.932 923.328 257.277C928.169 254.622 931.292 250.328 932.698 244.394H961.744C960.651 253.92 957.449 261.884 952.14 268.287C946.986 274.533 940.428 279.218 932.463 282.341C924.499 285.465 915.91 287.026 906.697 287.026Z" fill="#F7F9FB"/>
<path d="M715.88 285.387V161.94H742.583L744.223 177.634C747.502 173.262 751.328 169.826 755.701 167.328C760.073 164.829 764.68 163.033 769.521 161.94C774.362 160.691 778.891 160.066 783.107 160.066C794.82 160.066 804.033 162.643 810.748 167.796C817.619 172.95 822.46 179.821 825.271 188.41C828.082 196.999 829.488 206.603 829.488 217.222V285.387H800.91V221.906C800.91 217.378 800.598 213.005 799.973 208.789C799.348 204.416 798.099 200.512 796.225 197.077C794.507 193.641 792.009 190.908 788.729 188.878C785.45 186.848 781.077 185.833 775.612 185.833C768.897 185.833 763.197 187.629 758.512 191.221C753.827 194.812 750.313 199.653 747.971 205.744C745.628 211.678 744.457 218.471 744.457 226.123V285.387H715.88Z" fill="#F7F9FB"/>
<path d="M628.526 287.026C622.748 287.026 617.282 286.246 612.129 284.684C606.975 283.122 602.369 280.858 598.308 277.891C594.248 274.768 590.969 270.942 588.47 266.413C586.128 261.728 584.957 256.262 584.957 250.016C584.957 242.052 586.518 235.571 589.641 230.574C592.765 225.42 596.981 221.516 602.291 218.862C607.756 216.207 613.925 214.411 620.796 213.474C627.667 212.381 634.85 211.834 642.346 211.834H666.473C666.473 206.369 665.614 201.684 663.897 197.78C662.179 193.719 659.446 190.518 655.698 188.176C652.106 185.833 647.422 184.662 641.644 184.662C637.896 184.662 634.382 185.13 631.103 186.067C627.979 186.848 625.246 188.176 622.904 190.05C620.718 191.767 619.156 194.032 618.219 196.843H588.939C590.032 190.44 592.218 184.974 595.498 180.446C598.933 175.761 603.071 171.935 607.912 168.968C612.91 166.001 618.375 163.814 624.309 162.409C630.244 160.847 636.256 160.066 642.346 160.066C660.305 160.066 673.344 165.22 681.465 175.526C689.742 185.833 693.88 200.278 693.88 218.862V285.387H668.582L667.879 269.458C664.287 274.768 659.993 278.672 654.995 281.17C649.998 283.669 645.157 285.231 640.472 285.855C635.787 286.636 631.805 287.026 628.526 287.026ZM634.148 263.836C640.394 263.836 645.938 262.665 650.779 260.323C655.62 257.98 659.446 254.701 662.257 250.484C665.224 246.268 666.708 241.427 666.708 235.961V231.979H644.22C640.472 231.979 636.724 232.135 632.976 232.448C629.385 232.604 626.105 233.228 623.138 234.322C620.171 235.259 617.751 236.742 615.877 238.772C614.159 240.802 613.3 243.691 613.3 247.439C613.3 251.187 614.237 254.232 616.111 256.575C618.141 258.917 620.718 260.713 623.841 261.962C627.12 263.212 630.556 263.836 634.148 263.836Z" fill="#F7F9FB"/>
<path d="M519.532 287.026C513.598 287.026 507.664 286.402 501.73 285.152C495.952 283.903 490.486 281.873 485.332 279.062C480.179 276.095 475.885 272.113 472.449 267.116C469.013 262.118 466.749 255.872 465.656 248.376H494.468C495.717 251.812 497.669 254.622 500.324 256.809C503.135 258.839 506.336 260.401 509.928 261.494C513.676 262.431 517.346 262.899 520.938 262.899C523.124 262.899 525.466 262.743 527.965 262.431C530.62 262.118 533.04 261.494 535.226 260.557C537.569 259.62 539.443 258.292 540.848 256.575C542.254 254.701 542.956 252.28 542.956 249.313C542.956 246.502 542.176 244.316 540.614 242.754C539.052 241.036 536.944 239.709 534.289 238.772C531.635 237.679 528.433 236.82 524.685 236.195C517.97 234.79 510.787 233.306 503.135 231.745C495.483 230.027 488.846 227.372 483.224 223.78C480.882 222.375 478.852 220.735 477.134 218.861C475.416 216.987 473.933 214.957 472.683 212.771C471.59 210.429 470.731 207.93 470.107 205.275C469.638 202.62 469.404 199.731 469.404 196.608C469.404 190.049 470.731 184.506 473.386 179.977C476.197 175.292 479.867 171.544 484.395 168.733C489.08 165.766 494.39 163.58 500.324 162.174C506.258 160.769 512.349 160.066 518.595 160.066C527.028 160.066 534.68 161.394 541.551 164.048C548.422 166.703 554.122 170.763 558.651 176.229C563.336 181.695 566.147 188.644 567.084 197.077H539.911C539.13 193.173 536.71 190.049 532.65 187.707C528.746 185.364 523.748 184.193 517.658 184.193C515.472 184.193 513.207 184.427 510.865 184.896C508.523 185.208 506.258 185.833 504.072 186.77C502.042 187.551 500.324 188.8 498.919 190.518C497.669 192.236 497.045 194.344 497.045 196.842C497.045 199.185 497.591 201.215 498.684 202.933C499.934 204.651 501.73 206.134 504.072 207.383C506.571 208.476 509.46 209.413 512.739 210.194C518.049 211.287 523.592 212.381 529.37 213.474C535.148 214.567 540.145 215.66 544.362 216.753C549.359 218.159 553.888 220.189 557.948 222.843C562.008 225.342 565.131 228.7 567.318 232.916C569.66 236.976 570.831 242.208 570.831 248.61C570.831 256.106 569.27 262.353 566.147 267.35C563.179 272.347 559.197 276.251 554.2 279.062C549.203 281.873 543.659 283.903 537.569 285.152C531.478 286.402 525.466 287.026 519.532 287.026Z" fill="#F7F9FB"/>
</svg>
