<svg width="1501" height="416" viewBox="0 0 1501 416" fill="none" xmlns="http://www.w3.org/2000/svg">
<path fill-rule="evenodd" clip-rule="evenodd" d="M127.955 211.591C127.955 276.24 140.73 325.87 275.659 328.649C410.588 331.428 423.362 276.24 423.362 211.591C423.362 146.941 408.592 93.1429 275.659 94.5322C142.726 95.9215 127.955 146.941 127.955 211.591ZM234.374 288.002L234.463 288.002H285.513C285.626 288.003 285.739 288.003 285.853 288.003C285.966 288.003 286.079 288.003 286.192 288.002H333.314C333.406 288.003 333.498 288.003 333.59 288.003C361.234 288.003 383.643 265.593 383.643 237.95C383.643 222.468 376.614 208.628 365.574 199.447C361.375 159.126 327.285 127.69 285.853 127.69C258.973 127.69 235.183 140.921 220.641 161.226C191.825 167.514 170.249 193.176 170.249 223.877C170.249 259.292 198.959 288.002 234.374 288.002ZM282.78 178.858C282.78 186.459 276.619 192.62 269.018 192.62C261.418 192.62 255.257 186.459 255.257 178.858C255.257 171.258 261.418 165.096 269.018 165.096C276.619 165.096 282.78 171.258 282.78 178.858ZM337.824 178.858C337.824 186.459 331.663 192.62 324.062 192.62C316.462 192.62 310.3 186.459 310.3 178.858C310.3 171.258 316.462 165.096 324.062 165.096C331.663 165.096 337.824 171.258 337.824 178.858ZM333.891 203.726C331.236 203.726 326.826 204.347 321.601 205.082C314.007 206.15 304.691 207.461 296.54 207.461C288.388 207.461 279.073 206.15 271.479 205.082C266.254 204.347 261.844 203.726 259.189 203.726C252.675 203.726 247.393 209.007 247.393 215.521C247.393 242.664 269.397 264.668 296.54 264.668C323.682 264.668 345.686 242.664 345.686 215.521C345.686 209.007 340.405 203.726 333.891 203.726ZM324.169 243.491C317.069 250.507 307.309 254.839 296.538 254.839C285.767 254.839 276.009 250.507 268.907 243.491C265.747 240.37 266.782 235.028 270.86 233.268C277.748 230.295 286.722 228.496 296.536 228.496C306.351 228.496 315.325 230.295 322.213 233.268C326.29 235.028 327.325 240.368 324.165 243.491H324.169Z" fill="#F7F9FB"/>
<path d="M1202.4 286.117V162.671H1228.64L1230.51 176.725C1233.63 172.509 1236.99 169.308 1240.58 167.121C1244.33 164.779 1248.16 163.139 1252.06 162.202C1256.12 161.265 1259.95 160.797 1263.54 160.797C1271.35 160.797 1277.98 162.358 1283.45 165.482C1289.07 168.605 1293.44 173.29 1296.57 179.536C1299.69 175.164 1303.2 171.65 1307.11 168.995C1311.01 166.184 1315.15 164.154 1319.52 162.905C1323.9 161.499 1328.5 160.797 1333.34 160.797C1342.87 160.797 1350.52 162.827 1356.3 166.887C1362.08 170.791 1366.29 176.257 1368.95 183.284C1371.6 190.155 1372.93 198.041 1372.93 206.943V286.117H1344.35V216.078C1344.35 212.955 1344.2 209.676 1343.88 206.24C1343.57 202.804 1342.71 199.603 1341.31 196.636C1340.06 193.669 1338.18 191.248 1335.69 189.374C1333.19 187.501 1329.67 186.564 1325.14 186.564C1320.62 186.564 1316.87 187.579 1313.9 189.609C1311.09 191.483 1308.75 194.059 1306.87 197.339C1305.16 200.462 1303.91 203.976 1303.13 207.88C1302.5 211.628 1302.19 215.376 1302.19 219.123V286.117H1273.61V215.844C1273.61 212.877 1273.38 209.754 1272.91 206.474C1272.6 203.039 1271.81 199.837 1270.57 196.87C1269.47 193.747 1267.6 191.248 1264.94 189.374C1262.45 187.501 1258.93 186.564 1254.4 186.564C1247.84 186.564 1242.85 188.359 1239.41 191.951C1236.13 195.543 1233.87 199.915 1232.62 205.069C1231.52 210.222 1230.98 215.141 1230.98 219.826V286.117H1202.4Z" fill="#F7F9FB"/>
<path d="M1126.58 287.757C1108.77 287.757 1095.11 283.15 1085.58 273.936C1076.21 264.723 1071.53 250.668 1071.53 231.772V162.67H1100.11V229.898C1100.11 236.457 1100.97 242.157 1102.68 246.998C1104.56 251.839 1107.45 255.587 1111.35 258.242C1115.41 260.74 1120.49 261.99 1126.58 261.99C1133.14 261.99 1138.29 260.662 1142.04 258.008C1145.94 255.197 1148.67 251.371 1150.24 246.53C1151.8 241.689 1152.58 236.145 1152.58 229.898V162.67H1181.16V231.772C1181.16 251.136 1176.31 265.347 1166.63 274.405C1157.11 283.306 1143.75 287.757 1126.58 287.757Z" fill="#F7F9FB"/>
<path d="M1028.41 287.522C1014.82 287.522 1004.91 283.774 998.659 276.279C992.413 268.783 989.289 258.398 989.289 245.124V187.969H970.316V162.67H989.289V128.002H1017.87V162.67H1055.35V187.969H1017.87V239.737C1017.87 243.797 1018.34 247.467 1019.27 250.746C1020.21 254.025 1021.93 256.602 1024.43 258.476C1026.92 260.35 1030.36 261.365 1034.73 261.521C1038.48 261.521 1041.68 260.897 1044.34 259.647C1046.99 258.398 1049.18 256.992 1050.9 255.431L1060.5 277.216C1057.53 279.714 1054.17 281.744 1050.43 283.306C1046.84 284.867 1043.17 285.961 1039.42 286.585C1035.67 287.21 1032 287.522 1028.41 287.522Z" fill="#F7F9FB"/>
<path d="M906.697 287.757C893.891 287.757 883.116 285.18 874.371 280.027C865.626 274.717 858.989 267.299 854.46 257.773C849.931 248.247 847.667 237.238 847.667 224.745C847.667 212.252 850.01 201.243 854.694 191.717C859.379 182.035 866.25 174.461 875.308 168.995C884.365 163.529 895.375 160.797 908.336 160.797C917.862 160.797 926.295 162.436 933.635 165.716C941.13 168.995 947.143 173.836 951.671 180.239C956.356 186.485 959.323 194.293 960.573 203.663H932.463C930.589 197.729 927.466 193.434 923.094 190.78C918.877 187.969 913.802 186.563 907.868 186.563C899.903 186.563 893.579 188.515 888.894 192.419C884.365 196.167 881.086 200.93 879.056 206.708C877.026 212.486 876.011 218.499 876.011 224.745C876.011 231.304 877.104 237.472 879.29 243.25C881.476 248.872 884.834 253.401 889.362 256.836C894.047 260.272 900.06 261.99 907.399 261.99C913.333 261.99 918.643 260.662 923.328 258.008C928.169 255.353 931.292 251.058 932.698 245.124H961.744C960.651 254.65 957.449 262.614 952.14 269.017C946.986 275.264 940.428 279.948 932.463 283.072C924.499 286.195 915.91 287.757 906.697 287.757Z" fill="#F7F9FB"/>
<path d="M715.88 286.117V162.67H742.583L744.223 178.365C747.502 173.992 751.328 170.557 755.701 168.058C760.073 165.559 764.68 163.764 769.521 162.67C774.362 161.421 778.891 160.797 783.107 160.797C794.82 160.797 804.033 163.373 810.748 168.527C817.619 173.68 822.46 180.551 825.271 189.14C828.082 197.729 829.488 207.333 829.488 217.952V286.117H800.91V222.637C800.91 218.108 800.598 213.736 799.973 209.519C799.348 205.147 798.099 201.243 796.225 197.807C794.507 194.371 792.009 191.639 788.729 189.608C785.45 187.578 781.077 186.563 775.612 186.563C768.897 186.563 763.197 188.359 758.512 191.951C753.827 195.543 750.313 200.384 747.971 206.474C745.628 212.408 744.457 219.201 744.457 226.853V286.117H715.88Z" fill="#F7F9FB"/>
<path d="M628.526 287.757C622.748 287.757 617.282 286.976 612.129 285.414C606.975 283.853 602.369 281.588 598.308 278.621C594.248 275.498 590.969 271.672 588.47 267.143C586.128 262.458 584.957 256.993 584.957 250.746C584.957 242.782 586.518 236.301 589.641 231.304C592.765 226.151 596.981 222.247 602.291 219.592C607.756 216.937 613.925 215.141 620.796 214.204C627.667 213.111 634.85 212.565 642.346 212.565H666.473C666.473 207.099 665.614 202.414 663.897 198.51C662.179 194.45 659.446 191.248 655.698 188.906C652.106 186.564 647.422 185.392 641.644 185.392C637.896 185.392 634.382 185.861 631.103 186.798C627.979 187.579 625.246 188.906 622.904 190.78C620.718 192.498 619.156 194.762 618.219 197.573H588.939C590.032 191.17 592.218 185.705 595.498 181.176C598.933 176.491 603.071 172.665 607.912 169.698C612.91 166.731 618.375 164.545 624.309 163.139C630.244 161.578 636.256 160.797 642.346 160.797C660.305 160.797 673.344 165.95 681.465 176.257C689.742 186.564 693.88 201.009 693.88 219.592V286.117H668.582L667.879 270.189C664.287 275.498 659.993 279.402 654.995 281.901C649.998 284.399 645.157 285.961 640.472 286.586C635.787 287.366 631.805 287.757 628.526 287.757ZM634.148 264.567C640.394 264.567 645.938 263.395 650.779 261.053C655.62 258.711 659.446 255.431 662.257 251.215C665.224 246.998 666.708 242.157 666.708 236.692V232.71H644.22C640.472 232.71 636.724 232.866 632.976 233.178C629.385 233.334 626.105 233.959 623.138 235.052C620.171 235.989 617.751 237.473 615.877 239.503C614.159 241.533 613.3 244.422 613.3 248.17C613.3 251.918 614.237 254.963 616.111 257.305C618.141 259.648 620.718 261.443 623.841 262.693C627.12 263.942 630.556 264.567 634.148 264.567Z" fill="#F7F9FB"/>
<path d="M519.532 287.757C513.598 287.757 507.664 287.132 501.73 285.883C495.952 284.633 490.486 282.603 485.332 279.792C480.179 276.825 475.885 272.843 472.449 267.846C469.013 262.849 466.749 256.602 465.656 249.106H494.468C495.717 252.542 497.669 255.353 500.324 257.539C503.135 259.569 506.336 261.131 509.928 262.224C513.676 263.161 517.346 263.629 520.938 263.629C523.124 263.629 525.466 263.473 527.965 263.161C530.62 262.849 533.04 262.224 535.226 261.287C537.569 260.35 539.443 259.023 540.848 257.305C542.254 255.431 542.956 253.01 542.956 250.043C542.956 247.232 542.176 245.046 540.614 243.485C539.052 241.767 536.944 240.439 534.289 239.502C531.635 238.409 528.433 237.55 524.685 236.926C517.97 235.52 510.787 234.037 503.135 232.475C495.483 230.757 488.846 228.103 483.224 224.511C480.882 223.105 478.852 221.466 477.134 219.592C475.416 217.718 473.933 215.688 472.683 213.501C471.59 211.159 470.731 208.66 470.107 206.006C469.638 203.351 469.404 200.462 469.404 197.339C469.404 190.78 470.731 185.236 473.386 180.707C476.197 176.022 479.867 172.274 484.395 169.464C489.08 166.496 494.39 164.31 500.324 162.905C506.258 161.499 512.349 160.797 518.595 160.797C527.028 160.797 534.68 162.124 541.551 164.779C548.422 167.433 554.122 171.494 558.651 176.959C563.336 182.425 566.147 189.374 567.084 197.807H539.911C539.13 193.903 536.71 190.78 532.65 188.437C528.746 186.095 523.748 184.924 517.658 184.924C515.472 184.924 513.207 185.158 510.865 185.626C508.523 185.939 506.258 186.563 504.072 187.5C502.042 188.281 500.324 189.53 498.919 191.248C497.669 192.966 497.045 195.074 497.045 197.573C497.045 199.915 497.591 201.945 498.684 203.663C499.934 205.381 501.73 206.864 504.072 208.114C506.571 209.207 509.46 210.144 512.739 210.925C518.049 212.018 523.592 213.111 529.37 214.204C535.148 215.297 540.145 216.39 544.362 217.483C549.359 218.889 553.888 220.919 557.948 223.574C562.008 226.072 565.131 229.43 567.318 233.646C569.66 237.706 570.831 242.938 570.831 249.341C570.831 256.836 569.27 263.083 566.147 268.08C563.179 273.077 559.197 276.981 554.2 279.792C549.203 282.603 543.659 284.633 537.569 285.883C531.478 287.132 525.466 287.757 519.532 287.757Z" fill="#F7F9FB"/>
</svg>
