<svg width="800" height="691" viewBox="0 0 800 691" fill="none" xmlns="http://www.w3.org/2000/svg">
<path fill-rule="evenodd" clip-rule="evenodd" d="M133.308 345.349C133.308 462.08 156.373 551.691 400 556.709C643.627 561.726 666.692 462.08 666.692 345.349C666.692 228.619 640.023 131.482 400 133.99C159.977 136.499 133.308 228.619 133.308 345.349ZM325.457 483.317L325.647 483.317H417.781C417.915 483.318 418.049 483.318 418.183 483.318C418.257 483.319 418.33 483.319 418.404 483.319C418.611 483.319 418.819 483.318 419.027 483.317H504.106C504.27 483.318 504.434 483.319 504.598 483.319C554.511 483.319 594.973 442.856 594.973 392.943C594.973 364.99 582.282 340 562.348 323.423C554.766 250.619 493.213 193.86 418.404 193.86C369.869 193.86 326.915 217.751 300.658 254.413C248.629 265.766 209.673 312.101 209.673 367.534C209.673 431.48 261.511 483.317 325.457 483.317ZM412.858 286.248C412.858 299.972 401.733 311.097 388.01 311.097C374.286 311.097 363.161 299.972 363.161 286.248C363.161 272.525 374.286 261.4 388.01 261.4C401.733 261.4 412.858 272.525 412.858 286.248ZM512.244 286.248C512.244 299.972 501.119 311.097 487.395 311.097C473.672 311.097 462.547 299.972 462.547 286.248C462.547 272.525 473.672 261.4 487.395 261.4C501.119 261.4 512.244 272.525 512.244 286.248ZM505.143 331.149C500.349 331.149 492.386 332.27 482.952 333.597L482.952 333.598C469.24 335.527 452.42 337.894 437.702 337.894C422.984 337.894 406.164 335.527 392.452 333.597L392.452 333.597C383.018 332.27 375.055 331.149 370.261 331.149C358.5 331.149 348.964 340.685 348.964 352.447C348.964 401.456 388.693 441.185 437.702 441.185C486.71 441.185 526.44 401.456 526.44 352.447C526.44 340.685 516.904 331.149 505.143 331.149ZM487.589 402.948C474.769 415.617 457.147 423.438 437.699 423.438C418.25 423.438 400.632 415.617 387.809 402.948C382.103 397.313 383.972 387.668 391.334 384.49C403.771 379.122 419.974 375.874 437.696 375.874C455.417 375.874 471.62 379.122 484.057 384.49C491.419 387.668 493.288 397.31 487.582 402.948H487.589Z" fill="#1B1B1C"/>
</svg>
