<svg data-hk="0-0-0-0-0-0-0-0-0-1-0-0-0-0-0-0-0-0-1-0-0-0-0-0-0-0-0-0-0-0-0-0-0-0-0-0-0-0-0-0-4-1-1-0" xmlns="http://www.w3.org/2000/svg" viewBox="0 0 64 64" fill="none" class="h-8 w-8 "><path fill-rule="evenodd" clip-rule="evenodd" d="M44.5552 42.4771C54.2204 33.4172 40.4675 21.7897 35.6253 34.1496C30.8714 27.3671 25.5593 30.3963 23.9425 35.3906C22.461 39.9675 24.1 46.3078 31.6398 45.9347C32.4966 58.8723 47.6093 54.779 44.5552 42.4771ZM42.0761 38.8592C40.8434 38.9035 39.7931 37.5326 39.7323 35.7969C39.6715 34.064 40.6223 32.624 41.8577 32.5798C43.0904 32.5355 44.1407 33.9064 44.2015 35.6421C44.2623 37.375 43.3115 38.815 42.0761 38.8592ZM37.5848 42.5628C39.1492 42.1399 40.7246 42.256 41.1004 42.8198C41.4791 43.3836 40.5145 44.1824 38.9502 44.6025C37.3858 45.0254 35.8104 44.9093 35.4345 44.3455C35.0559 43.7816 36.0205 42.9829 37.5848 42.5628ZM30.1943 34.5753C31.6121 34.6278 32.6983 36.2861 32.6265 38.2761C32.5518 40.266 31.3413 41.8387 29.9262 41.7861C28.5083 41.7336 27.4221 40.0753 27.4968 38.0854C27.5714 36.0954 28.782 34.5228 30.197 34.5753H30.1943Z" fill="#FBBF24"/><path fill-rule="evenodd" clip-rule="evenodd" d="M30.5201 24.0119C30.404 23.3734 30.288 22.735 30.1719 22.0937C30.3377 21.7538 30.603 21.4746 31.1309 21.342C31.949 21.1236 32.7671 20.9053 33.5852 20.6897C34.0855 20.5902 34.4641 20.6344 34.7488 20.792C34.8677 21.447 34.9837 22.1048 35.1026 22.7598C34.7654 22.8897 34.3978 22.9284 34.0136 22.9063C33.1485 22.699 32.3249 22.9367 31.5206 23.4093C31.2138 23.6995 30.8794 23.8875 30.5229 24.0119H30.5201Z" fill="#FBBF24"/><path fill-rule="evenodd" clip-rule="evenodd" d="M35.7059 16.0781L43.6934 13.9389C44.5005 13.7233 45.3213 13.856 45.9957 14.2457C46.6701 14.6382 47.198 15.2821 47.4136 16.0864L48.7402 21.0365C48.9558 21.8435 48.8231 22.6644 48.4334 23.3388C48.0437 24.0131 47.3997 24.5383 46.5955 24.7539L38.5748 27.2966H38.561C37.8037 27.4597 37.0381 27.3187 36.4051 26.9539C35.7308 26.5642 35.2056 25.9202 34.9901 25.1132L33.5639 19.7955C33.3483 18.9885 33.481 18.1676 33.8707 17.4932C34.2604 16.8188 34.9044 16.2937 35.7114 16.0781H35.7059ZM47.2754 22.4654C47.4219 22.1337 47.4523 21.7578 47.3555 21.4041L46.0289 16.454C45.9183 16.0422 45.6475 15.6912 45.2771 15.4784C44.9067 15.2656 44.4701 15.2075 44.0582 15.3181L36.0707 17.4573C35.6589 17.5678 35.3079 17.8387 35.0951 18.2091C34.8823 18.5794 34.8242 19.0161 34.9348 19.4279L36.3609 24.7456C36.4715 25.1574 36.7396 25.5056 37.1072 25.7184L37.2454 25.7986H37.2675C37.6019 25.9451 37.9778 25.9755 38.3343 25.8787C40.9904 25.1436 43.5608 24.0878 46.2223 23.3719C46.6342 23.2614 46.9824 22.9933 47.1952 22.6257L47.2754 22.4875V22.4654Z" fill="#FBBF24"/><path fill-rule="evenodd" clip-rule="evenodd" d="M18.7856 20.4512L26.7732 18.312C27.5802 18.0964 28.4011 18.229 29.0755 18.6187C29.7498 19.0084 30.275 19.6524 30.4905 20.4595L31.9499 25.9098V25.9236C32.1129 26.6809 31.972 27.4465 31.6071 28.0794C31.2174 28.7538 30.5735 29.2789 29.7692 29.4945C27.1076 30.2076 24.4432 30.9179 21.7817 31.6365C20.9746 31.8521 20.1537 31.7194 19.4794 31.3297C18.805 30.9372 18.2799 30.2932 18.0643 29.489L16.6381 24.1713C16.4226 23.3643 16.5552 22.5434 16.9449 21.869C17.3346 21.1947 17.9786 20.6695 18.7856 20.4539V20.4512ZM30.4546 27.206C30.6011 26.8744 30.6315 26.4985 30.5348 26.1447L29.1114 20.8271C29.0008 20.4152 28.73 20.0642 28.3596 19.8514C27.9893 19.6386 27.5526 19.5806 27.1408 19.6911L19.1532 21.8303C18.7414 21.9409 18.3904 22.2118 18.1776 22.5821C17.9648 22.9525 17.9067 23.3892 18.0173 23.801L19.4434 29.1186C19.554 29.5304 19.8221 29.8787 20.1897 30.0915L20.3279 30.1716H20.35C20.6844 30.3181 21.0603 30.3485 21.4141 30.2518C24.0701 29.5166 26.7372 28.8256 29.3988 28.1126C29.8079 28.002 30.1589 27.7339 30.3717 27.3663L30.4519 27.2281V27.206H30.4546Z" fill="#FBBF24"/><path fill-rule="evenodd" clip-rule="evenodd" d="M54.7798 25.498C54.3238 27.85 53.0607 29.3839 52.8036 30.4784C52.7041 30.9096 53.2127 33.7978 53.2652 34.6214C53.3453 35.926 53.3315 37.2333 53.2099 38.5433V38.5654C52.8948 43.6537 51.1868 47.7165 48.7131 50.6904C46.9774 52.7799 44.8603 54.336 42.5829 55.3309C40.3138 56.3232 37.8844 56.7599 35.5185 56.6134C32.6773 56.4393 29.9273 55.4249 27.6498 53.5317L27.6056 53.4958L27.5697 53.4736C25.1182 51.9756 23.0895 50.0382 21.2764 47.8768C19.4357 45.6796 17.8244 43.264 16.2241 40.8373L16.0776 40.6135L15.8178 40.5499C12.3796 39.7097 9.9474 35.7159 9.15141 32.2639C8.88884 31.1252 8.81145 30.0583 8.93859 29.196C9.04914 28.4498 9.30894 27.8832 9.73181 27.6234C10.2569 27.3 11.1193 27.3912 12.3768 28.0987L13.1894 28.5575C13.2364 28.2314 13.6178 27.9246 13.6427 27.6317C13.9605 24.0386 14.0876 22.6097 17.595 19.5225C19.6126 20.1554 21.9259 20.863 22.5284 20.8906C23.1088 20.313 23.8109 19.8597 24.6511 19.5474C22.8131 19.6027 15.9588 17.5021 14.7095 17.2147C13.8195 17.0102 13.0954 16.7172 12.5482 16.3303C12.8052 16.0788 13.0567 15.8162 13.311 15.5509C15.5138 13.2624 18.1339 10.54 27.3182 11.7312C28.2441 11.8501 28.1086 11.8031 29.1727 12.0049C31.8924 12.5245 32.1024 12.3724 30.3418 10.4488L27.683 7.544C32.6994 8.08295 37.3123 8.98673 41.0766 10.5594C43.5337 11.5875 45.6232 12.9031 47.2179 14.5946C48.4036 15.8355 49.2853 17.2506 49.8491 18.9007L50.7169 19.0527C53.9949 19.8487 55.4182 22.2256 54.7826 25.498H54.7798ZM12.2497 26.5151C10.8871 25.9291 9.81473 25.9761 9.01874 26.4653C8.22552 26.9545 7.76119 27.8555 7.5926 28.997C7.44058 30.0224 7.52903 31.2634 7.82752 32.5651C8.69537 36.3295 11.3818 40.6908 15.2346 41.7964C16.8211 44.1982 18.4214 46.5834 20.2344 48.7475C22.1221 51 24.2476 53.0287 26.8262 54.6123C29.3275 56.6769 32.3373 57.7797 35.4384 57.9704C38.0143 58.128 40.6565 57.6553 43.1246 56.5747C45.5872 55.4968 47.8757 53.8164 49.7551 51.5583C52.4029 48.3716 54.2325 44.0434 54.5614 38.6456C54.6858 37.2637 54.7024 35.8956 54.6195 34.544C54.567 33.7094 54.4785 32.8774 54.3514 32.0483C54.1386 30.6581 54.0971 30.846 54.5863 30.144C57.0544 26.6007 57.3502 21.6673 54.0114 19.0637C53.0745 18.3341 52.2702 18.0135 50.8441 17.6901C49.1858 13.7627 45.9078 11.1094 41.599 9.30733C38.2686 7.91435 34.3135 7.02993 30.0157 6.46057C28.7222 6.28921 27.8903 6.18972 26.5415 6.06811C23.9242 5.83318 24.5599 6.14549 26.2292 7.96687L28.5868 10.54C17.8492 8.88447 14.8422 12.0049 12.3326 14.6112C10.0662 16.6011 9.89212 17.2064 14.4055 18.5386C14.6321 18.5911 15.1324 18.7459 15.9449 19.0002C13.4492 20.6253 11.9816 23.5799 12.2469 26.5178L12.2497 26.5151Z" fill="#FBBF24"/><path fill-rule="evenodd" clip-rule="evenodd" d="M13.1875 28.5535C13.1267 27.9068 13.0686 26.9671 13.0078 26.3204C13.204 25.997 13.4943 26.0329 14.0277 25.95C14.8624 25.8063 15.697 25.6598 16.529 25.5161C17.0347 25.4608 17.4383 25.2148 17.7064 25.4C17.7672 26.0633 17.7976 27.05 17.8556 27.7133C17.0651 27.94 14.9204 28.1251 13.1819 28.5563L13.1875 28.5535Z" fill="#FBBF24"/><path fill-rule="evenodd" clip-rule="evenodd" d="M47.2977 19.994C47.2369 19.3472 46.803 18.4987 46.7422 17.852C46.9384 17.5286 47.2286 17.5646 47.762 17.4816C48.5967 17.3379 48.4806 17.4126 49.3126 17.2661C49.8183 17.2108 50.2219 16.9648 50.49 17.15C50.5508 17.8133 51.59 18.4932 51.648 19.1565C50.8576 19.3832 49.0307 19.5656 47.295 19.9968L47.2977 19.994Z" fill="#FBBF24"/><path fill-rule="evenodd" clip-rule="evenodd" d="M41.3575 14.666L48.035 18.5188L47.2528 19.8676L40.5781 16.012L41.3575 14.666Z" fill="#FBBF24"/><path fill-rule="evenodd" clip-rule="evenodd" d="M38.1064 15.752L48.1171 21.5339L47.3376 22.8799L37.3242 17.1007L38.1064 15.752Z" fill="#FBBF24"/></svg>