<svg data-hk="0-0-0-0-0-0-0-0-0-1-0-0-0-0-0-0-0-0-1-0-0-0-0-0-0-0-0-0-0-0-0-0-0-0-0-0-0-0-0-0-4-1-2-0" xmlns="http://www.w3.org/2000/svg" viewBox="0 0 68 33" fill="none" class="h-7.5 w-7.5 max-sm:hidden "><path fill-rule="evenodd" clip-rule="evenodd" d="M17.2858 32.8262L16.1777 27.0398H8.88263L7.77448 32.8262H0.679688L7.92402 0.828841H17.0802L24.5275 32.8262H17.2832H17.2858ZM9.8893 21.8061H15.1229L12.5061 8.27344L9.8893 21.8061ZM26.9974 0.826172H40.1804C44.4073 0.826172 46.5195 2.6713 46.5195 6.36155V16.0705C46.5195 19.7928 44.4073 21.6539 40.1804 21.6539H34.143V32.8235H26.9974V0.826172ZM39.3232 15.1146V7.36556C39.3232 6.52711 38.888 6.10788 38.0148 6.10788H34.1403V16.3722H38.0148C38.888 16.3722 39.3232 15.953 39.3232 15.1146ZM57.1336 27.5418H67.398V32.8235H49.94V0.826172H66.9948V6.10788H57.1336V13.9049H65.5368V19.1867H57.1336V27.5391V27.5418Z" fill="#FAFAFA"/></svg>