<svg width="22" height="22" viewBox="0 0 24 24" fill="none" xmlns="http://www.w3.org/2000/svg"><g><path fill-rule="evenodd" clip-rule="evenodd" d="M13.813 1.88707C14.6853 1.88707 15.5035 2.00401 16.2611 2.22089C15.5194 0.492254 13.9795 0 12.2656 0C10.5483 0 9.00565 0.494189 8.26562 2.23107C9.01765 2.00657 9.83235 1.88707 10.7017 1.88707H13.813ZM10.5022 3.62256C6.36003 3.62256 4 6.88114 4 10.9008V15.0299C4 15.432 4.33579 15.7499 4.75 15.7499H19.7499C20.1642 15.7499 20.5 15.432 20.5 15.0299V10.9008C20.5 6.88114 17.7557 3.62256 13.6135 3.62256H10.5022ZM12.2441 10.9365C13.6939 10.9365 14.8691 9.76127 14.8691 8.31152C14.8691 6.86177 13.6939 5.68653 12.2441 5.68653C10.7944 5.68653 9.61914 6.86177 9.61914 8.31152C9.61914 9.76127 10.7944 10.9365 12.2441 10.9365ZM4 18.177C4 17.7751 4.33579 17.4493 4.75 17.4493H19.7499C20.1642 17.4493 20.5 17.7751 20.5 18.177V22.544C20.5 23.3479 19.8285 23.9997 19 23.9997H5.5C4.67157 23.9997 4 23.3479 4 22.544V18.177Z" fill="#D14C46"/></g></svg>