<svg xmlns="http://www.w3.org/2000/svg" viewBox="0 0 19.25 27.99959945678711"><g xmlns="http://www.w3.org/2000/svg" clip-path="url(#clip0_1_1080)"><path fill-rule="evenodd" clip-rule="evenodd" d="M11.4485 2.20159C12.4662 2.20159 13.4208 2.33802 14.3047 2.59104C13.4394 0.574296 11.6427 0 9.64316 0C7.6397 0 5.83992 0.576553 4.97656 2.60292C5.85392 2.341 6.80442 2.20159 7.81865 2.20159H11.4485ZM7.58586 4.22632C2.75337 4.22632 0 8.028 0 12.7176V17.535C0 18.004 0.391751 18.375 0.875 18.375H18.375C18.8582 18.375 19.25 18.004 19.25 17.535V12.7176C19.25 8.028 16.0482 4.22632 11.2157 4.22632H7.58586ZM9.61816 12.7593C11.3095 12.7593 12.6807 11.3881 12.6807 9.69678C12.6807 8.00541 11.3095 6.63428 9.61816 6.63428C7.92679 6.63428 6.55566 8.00541 6.55566 9.69678C6.55566 11.3881 7.92679 12.7593 9.61816 12.7593ZM0 21.2066C0 20.7376 0.391751 20.3574 0.875 20.3574H18.375C18.8582 20.3574 19.25 20.7376 19.25 21.2066V26.3013C19.25 27.2392 18.4665 27.9996 17.5 27.9996H1.75C0.783501 27.9996 0 27.2392 0 26.3013V21.2066Z" fill="#E33E3F"/></g></svg>