<?xml version="1.0" encoding="utf-8"?>
<!-- Generator: Adobe Illustrator 26.1.0, SVG Export Plug-In . SVG Version: 6.00 Build 0)  -->
<svg version="1.1" id="Layer_1" xmlns="http://www.w3.org/2000/svg" xmlns:xlink="http://www.w3.org/1999/xlink" x="0px" y="0px"
	 viewBox="0 0 500 500" style="enable-background:new 0 0 500 500;" xml:space="preserve">
<style type="text/css">
	.st0{fill:#F3BA2F;}
</style>
<path class="st0" d="M152.9,210.1L250,113l97.2,97.2l56.5-56.5L250,0L96.4,153.6L152.9,210.1z"/>
<path class="st0" d="M0,250l56.5-56.5L113,250l-56.5,56.5L0,250z"/>
<path class="st0" d="M152.9,289.9L250,387l97.2-97.2l56.5,56.4l0,0L250,500L96.4,346.4l-0.1-0.1L152.9,289.9z"/>
<path class="st0" d="M387,250l56.5-56.5L500,250l-56.5,56.5L387,250z"/>
<path class="st0" d="M307.4,250L250,192.6L207.7,235l-4.9,4.9l-10,10l-0.1,0.1l0.1,0.1l57.3,57.3L307.4,250L307.4,250L307.4,250z"/>
</svg>
