<svg xmlns="http://www.w3.org/2000/svg" viewBox="0 0 24 24"><symbol xmlns="http://www.w3.org/2000/svg" id="fa5983a6-8687-43fc-9b82-bbcfc2542337" fill="none" viewBox="0 0 24 24"><path fill="currentColor" fill-rule="evenodd" d="M12 24c6.627 0 12-5.373 12-12 0-6.628-5.373-12-12-12S0 5.372 0 12c0 6.627 5.373 12 12 12Zm4.548-12.092 2.454-1.223.846-2.597-1.692-1.231H6.891L4.286 8.792h13.242l-.703 2.178h-5.31l-.512 1.591h5.31l-1.49 4.582 2.488-1.232.887-2.747-1.666-1.223.016-.033ZM8.03 15.174 9.563 10.4l-1.7-1.273-2.555 8.016h9.515l.636-1.969H8.03Z" clip-rule="evenodd"/></symbol><use href="#fa5983a6-8687-43fc-9b82-bbcfc2542337"/></svg>