<?xml version="1.0" encoding="utf-8"?>
<!-- Generator: Adobe Illustrator 26.1.0, SVG Export Plug-In . SVG Version: 6.00 Build 0)  -->
<svg version="1.1" id="Layer_1" xmlns="http://www.w3.org/2000/svg" xmlns:xlink="http://www.w3.org/1999/xlink" x="0px" y="0px"
	 viewBox="0 0 500 500" style="enable-background:new 0 0 500 500;" xml:space="preserve">
<style type="text/css">
	.st0{clip-path:url(#SVGID_00000037658829446152995870000006592230962176146323_);}
	.st1{fill:#0052FF;}
</style>
<g>
	<defs>
		<rect id="SVGID_1_" x="-0.7" y="205.3" width="500.7" height="89.4"/>
	</defs>
	<clipPath id="SVGID_00000000205726029234169200000007184165138852461981_">
		<use xlink:href="#SVGID_1_"  style="overflow:visible;"/>
	</clipPath>
	<g style="clip-path:url(#SVGID_00000000205726029234169200000007184165138852461981_);">
		<path class="st1" d="M100.3,230.2c-18.2,0-32.4,13.8-32.4,32.3c0,18.5,13.9,32.2,32.4,32.2c18.5,0,32.6-13.9,32.6-32.3
			C133,244.2,119.1,230.2,100.3,230.2z M100.5,281.4c-10.4,0-17.9-8-17.9-18.8c0-10.9,7.5-19,17.8-19c10.5,0,18.1,8.2,18.1,19
			C118.4,273.4,110.8,281.4,100.5,281.4z M137,244.3h9v49.2h14.5v-62.1H137V244.3z M31.6,243.6c7.6,0,13.6,4.7,15.9,11.6h15.3
			c-2.8-14.9-15.1-25-31.1-25c-18.2,0-32.4,13.8-32.4,32.3c0,18.5,13.9,32.2,32.4,32.2c15.7,0,28.2-10.1,31-25.1H47.5
			c-2.2,7-8.2,11.8-15.8,11.8c-10.5,0-17.8-8-17.8-18.8C13.9,251.6,21.1,243.6,31.6,243.6z M411.6,256.5L401,255
			c-5.1-0.7-8.7-2.4-8.7-6.4c0-4.3,4.7-6.5,11.1-6.5c7,0,11.4,3,12.4,7.9h14c-1.6-12.5-11.2-19.8-26-19.8
			c-15.3,0-25.4,7.8-25.4,18.8c0,10.6,6.6,16.7,20,18.6l10.6,1.6c5.2,0.7,8.1,2.8,8.1,6.6c0,4.9-5.1,7-12,7
			c-8.6,0-13.4-3.5-14.1-8.8h-14.2c1.3,12.1,10.8,20.6,28.2,20.6c15.8,0,26.3-7.2,26.3-19.6C431.1,264.1,423.5,258.3,411.6,256.5z
			 M153.2,205.9c-5.3,0-9.3,3.8-9.3,9.1s4,9.1,9.3,9.1c5.3,0,9.3-3.8,9.3-9.1S158.5,205.9,153.2,205.9z M365.3,252.7
			c0-13.4-8.2-22.4-25.5-22.4c-16.4,0-25.5,8.3-27.3,21h14.3c0.7-4.9,4.6-9,12.8-9c7.3,0,11,3.2,11,7.2c0,5.2-6.6,6.5-14.8,7.3
			c-11.1,1.2-24.8,5-24.8,19.4c0,11.2,8.3,18.4,21.6,18.4c10.4,0,16.9-4.3,20.1-11.2c0.5,6.1,5.1,10.1,11.4,10.1h8.4v-12.8h-7.1
			L365.3,252.7L365.3,252.7z M351.1,268.3c0,8.3-7.2,14.4-16,14.4c-5.4,0-10-2.3-10-7.1c0-6.1,7.3-7.8,14.1-8.5
			c6.5-0.6,10.1-2,11.9-4.8V268.3z M274.4,230.2c-8.1,0-14.8,3.4-19.6,9v-34h-14.5v88.2h14.2v-8.2c4.8,5.9,11.7,9.4,19.9,9.4
			c17.3,0,30.5-13.7,30.5-32.2C304.9,244.1,291.5,230.2,274.4,230.2z M272.2,281.4c-10.4,0-17.9-8-17.9-18.8c0-10.8,7.7-19,18.1-19
			c10.5,0,17.8,8,17.8,19C290.2,273.4,282.6,281.4,272.2,281.4z M205.7,230.2c-9.4,0-15.5,3.8-19.2,9.2v-8h-14.3v62.1h14.5v-33.7
			c0-9.5,6-16.2,14.9-16.2c8.3,0,13.5,5.9,13.5,14.4v35.5h14.5v-36.6C229.6,241.3,221.5,230.2,205.7,230.2z M500,260.5
			c0-17.8-13-30.3-30.5-30.3c-18.5,0-32.2,13.9-32.2,32.3c0,19.3,14.6,32.2,32.4,32.2c15.1,0,26.9-8.9,29.9-21.5h-15.1
			c-2.2,5.5-7.5,8.6-14.6,8.6c-9.3,0-16.3-5.8-17.8-15.8H500L500,260.5L500,260.5z M453,255.7c2.3-8.6,8.8-12.8,16.3-12.8
			c8.2,0,14.5,4.7,15.9,12.8H453z"/>
	</g>
</g>
</svg>
