<svg xmlns="http://www.w3.org/2000/svg" viewBox="0 0 16 16"><g xmlns="http://www.w3.org/2000/svg" clip-path="url(#clip0_33987_254)"><path d="M8 16C12.4183 16 16 12.4183 16 8C16 3.58172 12.4183 0 8 0C3.58172 0 0 3.58172 0 8C0 12.4183 3.58172 16 8 16Z" fill="#0B0F11"/><path d="M14.1296 7.00319C13.968 6.66854 13.7223 6.3815 13.4167 6.17006C13.111 5.95863 12.7558 5.83003 12.3856 5.79679C12.0824 5.75788 11.7743 5.78757 11.4841 5.88367C11.1939 5.97976 10.9289 6.13981 10.7088 6.35199C10.4576 6.58719 10.2208 6.83199 9.98082 7.08479C9.92002 7.14719 9.87842 7.14399 9.82082 7.08479C9.76322 7.02559 9.68802 6.94719 9.62082 6.87999L8.91042 6.15519C8.87202 6.11519 8.85922 6.08319 8.91042 6.03839C9.07042 5.87839 9.23042 5.70879 9.39042 5.54399C9.53772 5.40505 9.67263 5.25354 9.79362 5.09119C10.0096 4.78113 10.1423 4.42084 10.1792 4.04479C10.2374 3.5695 10.1409 3.08811 9.90402 2.67199C9.68546 2.27921 9.3499 1.96434 8.94402 1.77119C8.7352 1.65827 8.50143 1.59941 8.26402 1.59999C8.04642 1.60799 7.82882 1.59999 7.61282 1.59999C7.53973 1.59955 7.46696 1.60979 7.39682 1.63039C7.05915 1.72914 6.74948 1.90605 6.49291 2.14678C6.23633 2.38751 6.04007 2.68528 5.92002 3.01599C5.76786 3.43872 5.74557 3.89729 5.85602 4.33279C5.93957 4.68602 6.11195 5.01205 6.35682 5.27999C6.59042 5.53279 6.83682 5.77279 7.07682 6.01919C7.11842 6.06079 7.15362 6.09599 7.09602 6.15519C6.78349 6.46879 6.47256 6.78399 6.16322 7.10079C6.15591 7.11168 6.14602 7.1206 6.13444 7.12677C6.12286 7.13294 6.10994 7.13617 6.09682 7.13617C6.0837 7.13617 6.07078 7.13294 6.0592 7.12677C6.04763 7.1206 6.03774 7.11168 6.03042 7.10079C5.87042 6.92959 5.68962 6.76159 5.52642 6.58559C5.22416 6.23538 4.8241 5.98353 4.37762 5.86239C3.97115 5.75838 3.54358 5.77114 3.14402 5.89919C2.84445 5.99655 2.5709 6.16068 2.34402 6.37919C2.07008 6.63298 1.86393 6.95124 1.74433 7.305C1.62473 7.65877 1.59547 8.03683 1.65922 8.40479C1.69541 8.65639 1.77844 8.89898 1.90402 9.11999C2.35522 9.87199 3.01442 10.2704 3.90242 10.2576C4.13978 10.2519 4.3745 10.2065 4.59682 10.1232C4.83189 10.0407 5.0491 9.91417 5.23682 9.75039C5.51042 9.50879 5.75202 9.23359 6.01122 8.97759C6.09442 8.89599 6.10562 8.89119 6.18562 8.97759C6.48802 9.27999 6.78722 9.58559 7.08962 9.88959C7.10085 9.89758 7.11001 9.90814 7.11632 9.92038C7.12264 9.93263 7.12594 9.94621 7.12594 9.95999C7.12594 9.97377 7.12264 9.98735 7.11632 9.99959C7.11001 10.0118 7.10085 10.0224 7.08962 10.0304C6.90882 10.2112 6.73442 10.3952 6.55042 10.5712C6.21142 10.8815 5.97059 11.2841 5.85762 11.7296C5.74108 12.2043 5.78236 12.7041 5.9752 13.1533C6.16805 13.6025 6.50197 13.9767 6.92642 14.2192C7.11727 14.3465 7.34364 14.4098 7.57282 14.4C7.71362 14.3888 7.85602 14.4 7.99842 14.4C8.18242 14.4 8.36802 14.4 8.55362 14.4C8.62361 14.4009 8.69314 14.3884 8.75842 14.3632C8.91831 14.3041 9.07037 14.2256 9.21122 14.1296C9.47604 13.9523 9.69909 13.7195 9.86487 13.4474C10.0307 13.1752 10.1352 12.8702 10.1712 12.5536C10.22 12.2377 10.1982 11.9149 10.1074 11.6084C10.0167 11.3019 9.85927 11.0193 9.64642 10.7808C9.42402 10.5248 9.17602 10.3008 8.93922 10.0512C8.84962 9.95999 8.84802 9.95839 8.93922 9.86399L9.84162 8.95999C9.89122 8.90879 9.92802 8.91039 9.97762 8.95999C10.1584 9.14719 10.3472 9.32639 10.5248 9.51679C10.8655 9.9021 11.3313 10.1548 11.84 10.2304C12.26 10.2998 12.6911 10.2407 13.0768 10.0608C13.3896 9.91948 13.6647 9.7065 13.8799 9.43909C14.095 9.17169 14.2442 8.85737 14.3152 8.52159C14.4419 8.00983 14.3758 7.46938 14.1296 7.00319ZM5.18402 8.09279C4.95042 8.31999 4.72642 8.56959 4.48002 8.79999C4.35859 8.91371 4.209 8.99294 4.0467 9.02951C3.88441 9.06607 3.71529 9.05864 3.55682 9.00799C3.41807 8.97306 3.28876 8.9079 3.17812 8.81718C3.06748 8.72645 2.97826 8.61241 2.91682 8.48319C2.81287 8.27442 2.78428 8.03613 2.83589 7.80869C2.8875 7.58125 3.01614 7.37864 3.20002 7.23519C3.35706 7.09655 3.55711 7.0163 3.76642 7.00799C3.9151 6.99923 4.06387 7.02336 4.20215 7.07867C4.34043 7.13399 4.46481 7.21911 4.56642 7.32799C4.77122 7.54079 4.98082 7.74879 5.19042 7.95519C5.23842 7.99999 5.23682 8.03999 5.18402 8.09279ZM6.99522 3.80479C6.99094 3.58989 7.05493 3.37916 7.17798 3.20293C7.30103 3.02669 7.4768 2.89402 7.68002 2.82399C7.90704 2.74674 8.15439 2.75462 8.37603 2.84616C8.59766 2.9377 8.77848 3.10666 8.88482 3.32159C8.98415 3.51932 9.01845 3.74338 8.98282 3.96176C8.94719 4.18015 8.84345 4.38169 8.68642 4.53759C8.48642 4.72959 8.29602 4.93279 8.10082 5.12959C8.00642 5.22719 7.99842 5.23039 7.90402 5.12959C7.67522 4.89279 7.43202 4.66879 7.21762 4.41919C7.06961 4.2492 6.99031 4.03013 6.99522 3.80479ZM8.43522 13.1712C8.30743 13.2336 8.16776 13.268 8.02558 13.272C7.88341 13.276 7.74202 13.2495 7.61092 13.1944C7.47983 13.1392 7.36205 13.0566 7.26551 12.9522C7.16898 12.8477 7.09591 12.7238 7.05122 12.5888C7.0205 12.4848 7.00382 12.3772 7.00162 12.2688C6.99701 12.1296 7.02168 11.9911 7.07405 11.8621C7.12642 11.7331 7.20532 11.6165 7.30562 11.52C7.51682 11.3104 7.72642 11.096 7.93282 10.88C7.98402 10.8256 8.02082 10.824 8.07362 10.88C8.28802 11.1008 8.50882 11.3136 8.71362 11.536C8.82458 11.6528 8.90676 11.7938 8.95362 11.9479C9.00047 12.1021 9.01072 12.265 8.98353 12.4238C8.95634 12.5826 8.89247 12.7328 8.79701 12.8625C8.70154 12.9923 8.57712 13.098 8.43362 13.1712H8.43522ZM9.03042 8.01759C9.03061 8.0284 9.02825 8.03911 9.02352 8.04884C9.01879 8.05857 9.01184 8.06705 9.00322 8.07359L8.05442 9.03359C8.04912 9.04219 8.04171 9.04929 8.03289 9.05422C8.02406 9.05915 8.01413 9.06173 8.00402 9.06173C7.99392 9.06173 7.98398 9.05915 7.97516 9.05422C7.96634 9.04929 7.95892 9.04219 7.95362 9.03359C7.64002 8.71359 7.32482 8.39359 7.00802 8.07359C6.96642 8.03199 6.96642 7.99999 7.00802 7.95679C7.32162 7.63679 7.63416 7.31999 7.94562 7.00639C7.99202 6.95999 8.02562 6.96479 8.06722 7.00639L8.84962 7.80639L8.99522 7.95519C9.01282 7.98079 9.03202 7.99999 9.02882 8.01759H9.03042ZM13.1584 8.15359C13.1367 8.3285 13.0692 8.49458 12.9627 8.63504C12.8562 8.77551 12.7146 8.88539 12.552 8.95359C12.3806 9.02254 12.1952 9.04942 12.0112 9.03199C11.8505 9.03855 11.6905 9.00653 11.5446 8.93862C11.3987 8.8707 11.2713 8.76885 11.1728 8.64159C11 8.45119 10.8144 8.27359 10.6304 8.09279C10.5744 8.03839 10.5696 7.99999 10.6304 7.94399C10.8928 7.69119 11.128 7.40959 11.4112 7.17919C11.5464 7.06799 11.7162 7.00745 11.8912 7.00799C12.0904 6.98787 12.2915 7.00084 12.4864 7.04639C12.7107 7.12441 12.9005 7.27852 13.023 7.48196C13.1455 7.68538 13.1928 7.92528 13.1568 8.15999L13.1584 8.15359Z" fill="#F1E1D4"/></g></svg>