<svg xmlns="http://www.w3.org/2000/svg" viewBox="0.0009389347396790981 -0.0011020834790542722 23.99906349182129 24.001399993896484"><g xmlns="http://www.w3.org/2000/svg" fill="currentColor" clip-path="url(#a)"><path d="M4.988 11.427a1.018 1.018 0 0 1 1.022-1.018l1.694.005a1.018 1.018 0 0 1 1.018 1.02v6.408c.191-.057.436-.117.704-.18a.849.849 0 0 0 .654-.826v-7.95A1.02 1.02 0 0 1 11.1 7.868h1.697a1.019 1.019 0 0 1 1.019 1.02v7.377s.425-.172.839-.346a.85.85 0 0 0 .519-.783V6.339A1.019 1.019 0 0 1 16.19 5.32h1.698a1.018 1.018 0 0 1 1.018 1.019v7.243c1.472-1.067 2.963-2.35 4.147-3.893a1.71 1.71 0 0 0 .26-1.597A11.98 11.98 0 0 0 12.151 0C5.498-.09 0 5.344.001 12a11.966 11.966 0 0 0 1.592 6.002 1.517 1.517 0 0 0 1.447.75 41.7 41.7 0 0 0 1.196-.124.848.848 0 0 0 .752-.842v-6.36ZM4.95 21.704a11.99 11.99 0 0 0 17.282-3.433A12.001 12.001 0 0 0 24 12c0-.276-.013-.55-.031-.821-4.383 6.538-12.474 9.594-19.018 10.525Z"/></g></svg>