<svg xmlns="http://www.w3.org/2000/svg" xmlns:xlink="http://www.w3.org/1999/xlink" xmlns:serif="http://www.serif.com/" width="100%" height="100%" viewBox="0 0 437 100" version="1.1" xml:space="preserve" style="fill-rule:evenodd;clip-rule:evenodd;stroke-linejoin:round;stroke-miterlimit:2;"><g transform="matrix(1.07852,0,0,1.07852,-169.766,-168.399)"><path d="M403.54,172.19L392.85,172.19L392.85,183.69L386.45,183.69L386.45,193.78L392.85,193.78L392.85,220.18C392.778,222.495 393.116,224.804 393.85,227C394.457,228.637 395.456,230.1 396.76,231.26C398.015,232.405 399.517,233.243 401.15,233.71C404.856,234.61 408.724,234.61 412.43,233.71C413.902,233.322 415.322,232.757 416.66,232.03L416.66,223.91C414.658,224.754 412.513,225.209 410.34,225.25C408.523,225.457 406.706,224.84 405.39,223.57C404.16,222.41 403.51,220.89 403.51,218.33L403.51,193.78L416.66,193.78L416.66,183.69L403.54,183.69L403.54,172.19ZM369.91,187.27C365.437,183.996 360.036,182.23 354.493,182.23C340.175,182.23 328.393,194.012 328.393,208.33C328.393,222.648 340.175,234.43 354.493,234.43C360.036,234.43 365.437,232.664 369.91,229.39L369.91,233L380.6,233L380.6,183.65L369.91,183.65L369.91,187.27ZM354.49,223.7C346.031,223.7 339.07,216.739 339.07,208.28C339.07,199.821 346.031,192.86 354.49,192.86C362.949,192.86 369.91,199.821 369.91,208.28C369.91,208.283 369.91,208.29 369.91,208.29C369.91,216.744 362.954,223.7 354.5,223.7C354.497,223.7 354.493,223.7 354.49,223.7ZM295.91,198.7L295.91,210.6L312,210.6C309.947,219.282 302.019,225.39 293.1,225.16C281.864,225.138 272.631,215.886 272.631,204.65C272.631,193.399 281.889,184.14 293.141,184.14C299.059,184.14 304.697,186.702 308.59,191.16L317.8,183.64C311.647,176.388 302.604,172.2 293.093,172.2C275.319,172.2 260.693,186.826 260.693,204.6C260.693,222.373 275.317,236.998 293.09,237C301.52,237.153 309.658,233.861 315.61,227.89C320.596,222.729 323.694,216.031 324.4,208.89C324.69,205.484 324.74,202.063 324.55,198.65L295.91,198.7ZM536.39,182.22C522.066,182.22 510.28,194.006 510.28,208.33C510.28,222.654 522.066,234.44 536.39,234.44C550.714,234.44 562.5,222.654 562.5,208.33C562.5,208.317 562.5,208.303 562.5,208.29C562.5,193.966 550.714,182.18 536.39,182.18C536.39,182.18 536.39,182.18 536.39,182.18L536.39,182.22ZM536.39,223.74C527.931,223.74 520.97,216.779 520.97,208.32C520.97,199.861 527.931,192.9 536.39,192.9C544.849,192.9 551.81,199.861 551.81,208.32C551.81,208.323 551.81,208.327 551.81,208.33C551.788,216.772 544.832,223.706 536.39,223.7L536.39,223.74ZM492.79,233.04L504.29,233.04L504.29,188.75L492.79,188.75L492.79,233.04ZM475.22,233.04L486.72,233.04L486.72,221.5L475.22,221.5L475.22,233.04ZM446.08,182.22C446.072,182.22 446.063,182.22 446.055,182.22C431.731,182.22 419.945,194.006 419.945,208.33C419.945,222.654 431.731,234.44 446.055,234.44C455.614,234.44 464.438,229.19 469,220.79L459.35,216.1C456.582,220.8 451.518,223.694 446.064,223.694C439.093,223.694 432.948,218.967 431.16,212.23L471.92,212.23C472.12,210.923 472.22,209.602 472.22,208.28C472.22,193.955 460.435,182.165 446.11,182.16L446.08,182.22ZM431.65,202.89C433.903,196.894 439.67,192.901 446.075,192.901C452.48,192.901 458.247,196.894 460.5,202.89L431.65,202.89ZM492.79,183.73L504.29,183.73L504.29,172.23L492.79,172.23L492.79,183.73Z" style="fill:white;fill-rule:nonzero;"/></g><g transform="matrix(1.07852,0,0,1.07852,-169.766,-168.399)"><path d="M203.86,228C189.871,228 178.36,216.489 178.36,202.5C178.36,188.511 189.871,177 203.86,177L203.86,156.14C178.428,156.14 157.5,177.068 157.5,202.5C157.5,227.932 178.428,248.86 203.86,248.86C229.292,248.86 250.22,227.932 250.22,202.5L229.36,202.5C229.36,216.489 217.849,228 203.86,228Z" style="fill:rgb(35,84,230);fill-rule:nonzero;"/></g><g transform="matrix(1.07852,0,0,1.07852,-169.766,-168.399)"><rect x="203.86" y="177" width="25.5" height="25.5" style="fill:rgb(23,230,161);"/></g></svg>