<svg xmlns="http://www.w3.org/2000/svg" width="105" height="23" fill="none"><path fill="#000" d="M57.2 16.216c-.251.83-.464 1.584-.715 2.318-.038.116-.309.193-.463.193-2.067.02-4.133 0-6.2 0h-3.979c-.328 0-.444-.097-.444-.425V6.945c0-.27.039-.444.386-.444H56.91c.077 0 .135.02.29.039-.174.56-.328 1.12-.483 1.66-.309.986-.039.831-1.1.831h-6.645c-.695 0-.695 0-.695.715v.965c0 .676 0 .676.695.676h6.586c.251-.019.348.097.348.348-.02.522-.039 1.062 0 1.584.038.444-.097.58-.56.58-2.105-.02-4.191-.02-6.297-.02h-.347c-.31-.02-.464.097-.445.425.02.425 0 .85 0 1.275 0 .598 0 .598.58.598h7.745c.174.039.347.039.618.039zm34.365 2.534c.251-.85.464-1.602.715-2.356.038-.096.29-.154.444-.154 2.395-.02 4.79 0 7.185-.02.251 0 .502-.019.734-.077.521-.135.83-.521.869-.985.039-.463-.27-.946-.753-1.12-.251-.097-.541-.116-.83-.116-1.391-.02-2.782 0-4.173 0-1.255-.02-2.414-.348-3.302-1.275-1.603-1.68-1.101-4.403 1.004-5.523.792-.425 1.642-.56 2.53-.56h7.745c.135 0 .251.019.444.038-.231.811-.444 1.565-.714 2.318-.039.096-.309.174-.483.174-2.26.019-4.52 0-6.78.019-.25 0-.502.02-.753.077-.56.135-.907.58-.907 1.101 0 .54.386.985.965 1.101.31.058.618.077.927.077 1.333 0 2.666-.019 3.979 0 1.313.02 2.492.425 3.303 1.488 1.564 2.047.541 4.925-2.009 5.62a6.427 6.427 0 0 1-1.487.212c-2.704.02-5.408 0-8.112 0-.116-.038-.27-.038-.54-.038zm-57.929-.042h-2.858c0-.173-.02-.328-.02-.482V7.486c0-.366.097-.52.464-.598.792-.193 1.564-.425 2.395-.657.02.194.02.348.02.503 0 1.506.018 3.013 0 4.5 0 .367.115.483.482.483 1.835-.02 3.67-.02 5.485 0 .425 0 .522-.155.522-.541-.02-1.39 0-2.762-.02-4.153 0-.386.116-.521.502-.502.657.02 1.333.02 1.99 0 .232 0 .348.039.348.31 0 3.9 0 7.802-.02 11.723 0 .039-.02.077-.058.193-.83 0-1.68.02-2.53-.02-.077 0-.232-.27-.232-.405-.019-1.14-.019-2.298-.019-3.457 0-.618 0-.618-.599-.618-1.777 0-3.573.02-5.35 0-.405 0-.521.116-.521.521.02 1.14 0 2.299 0 3.458.02.135.02.29.02.482zM79.663 6.231v7.224c0 .27.02.521.04.792.076.927.56 1.564 1.428 1.835a7.232 7.232 0 0 0 4.52 0c.908-.29 1.43-.985 1.448-1.97.02-2.337.02-4.655.02-6.992 0-.637 0-.637.618-.637h2.202c.019.154.038.25.038.328 0 2.453.039 4.886-.02 7.34-.038 1.796-.926 3.128-2.53 3.959-1.602.81-3.321.965-5.079.83a7.682 7.682 0 0 1-2.974-.811c-1.623-.85-2.492-2.202-2.53-4.017-.058-2.26-.02-4.54 0-6.818 0-.135.135-.348.25-.387a51.957 51.957 0 0 0 2.57-.676zm-9.113 9.987c-.25.83-.463 1.584-.714 2.337-.039.097-.232.174-.348.174-3.341 0-6.702 0-10.043.02-.406 0-.348-.252-.348-.503V8.782c0-.618.02-1.236 0-1.854 0-.309.097-.425.406-.405.656.019 1.294.019 1.95 0 .387-.02.503.115.503.502-.02 2.839 0 5.678 0 8.537 0 .676 0 .676.676.676h7.339c.154-.02.328-.02.58-.02zm4.204-9.698v.503c0 3.727 0 7.455.02 11.183 0 .444-.136.56-.561.54-.618-.038-1.236-.019-1.854 0-.329.02-.444-.077-.444-.424V6.965c0-.31.096-.444.424-.444.792.019 1.584 0 2.415 0zM11.603 18.997c-1.507 1.024-2.917 1.97-4.327 2.917-.27.174-.405.096-.444-.213-.077-1.004-.174-1.99-.251-2.993-.058-.657-.077-1.314-.135-2.125 1.43 1.526 3.09 2.26 5.157 2.414zm.593.001c1.912-.135 3.554-.888 4.925-2.337.02.155.039.251.039.348l-.348 4.616c-.039.386-.174.483-.464.29a519.053 519.053 0 0 1-4.114-2.82c-.019-.02-.019-.058-.038-.097zm-6.12-2.878a158.72 158.72 0 0 0-2.047-.618c-.908-.27-1.835-.56-2.743-.85-.444-.135-.483-.27-.154-.598C2.29 12.971 3.43 11.91 4.685 10.73c-.193 1.99.194 3.747 1.391 5.39zm11.589-.096c1.081-1.603 1.545-3.283 1.313-5.214.116.096.212.154.29.212a454.63 454.63 0 0 1 3.225 2.974c.386.348.348.503-.135.657a375.6 375.6 0 0 0-4.442 1.352c-.039 0-.097 0-.251.02zm1.081-6.393c-1.024-2.163-1.024-2.163-3.206-4.075 1.603-.251 3.167-.483 4.732-.715.27-.038.424.058.328.348-.58 1.487-1.178 2.955-1.758 4.423-.019.019-.077.019-.096.019zM8.205 5.574C6.582 6.578 5.5 7.93 4.902 9.784c-.193-.483-.367-.85-.502-1.236-.406-1.062-.811-2.105-1.217-3.168-.193-.502-.116-.579.406-.502l4.056.58c.174.019.309.058.56.116zm6.255-.502c-1.796-.618-3.495-.637-5.272 0 .773-1.352 1.468-2.588 2.182-3.824.425-.734.483-.734.908.02.638 1.1 1.275 2.22 1.932 3.322a3.4 3.4 0 0 1 .25.482zM8.725 1.614c.444.985.039 2.028-.888 2.453-.927.425-1.99.077-2.415-.85 1.101-.521 2.202-1.062 3.303-1.603zm13.098 6.145.81 3.534c-.907.29-1.892-.309-2.162-1.255-.29-.985.328-2.047 1.352-2.28zM2.5 17.085c.696-.657 1.893-.521 2.53.251.657.792.56 1.97-.27 2.588L2.5 17.085zm18.934 0c-.773.966-1.507 1.912-2.24 2.84-.793-.503-.947-1.643-.368-2.454.58-.85 1.739-1.043 2.608-.386zM18.169 3.218c-.444.965-1.603 1.294-2.55.791-.753-.405-1.197-1.583-.714-2.375 1.062.521 2.144 1.043 3.264 1.584zM1.11 11.293c.27-1.197.521-2.356.792-3.534 1.023.193 1.603 1.197 1.352 2.26-.193.83-1.16 1.583-2.144 1.274zM13.668 22.3h-3.63c-.078-.87.675-1.662 1.583-1.72 1.14-.096 1.97.58 2.047 1.72z"/></svg>