<svg width="176" height="43" viewBox="0 0 176 43" fill="none" xmlns="http://www.w3.org/2000/svg">
<path d="M59.1562 29.322V11.0117H62.8695V18.1822H70.0656V11.0117H73.7789V29.322H70.0656V21.2552H62.8695V29.322H59.1562Z" fill="#D631B9"/>
<path d="M76.5873 33.6243V30.8842H77.8165C79.114 30.8842 79.7628 30.2866 79.7628 29.0915C79.7628 28.5111 79.4298 27.3245 78.764 25.5319L75.23 16.1847H78.8921L80.8383 22.1003L81.6834 24.9685H81.7346C81.9736 23.8588 82.2297 22.9028 82.5029 22.1003L84.3467 16.1847H87.8551L83.2712 29.6549C82.759 31.1573 82.1785 32.1902 81.5298 32.7536C80.8981 33.3341 79.9335 33.6243 78.636 33.6243H76.5873Z" fill="#D631B9"/>
<path d="M89.0349 33.6243V16.1847H92.3897V17.8237H92.4665C93.4397 16.492 94.7286 15.8262 96.3335 15.8262C98.0578 15.8262 99.4407 16.4664 100.482 17.7468C101.524 19.0273 102.044 20.7004 102.044 22.7662C102.044 24.8832 101.524 26.5733 100.482 27.8367C99.4407 29.083 98.0663 29.7062 96.3591 29.7062C94.6518 29.7062 93.3884 29.083 92.569 27.8367H92.5177V33.6243H89.0349ZM95.6164 26.8124C96.5042 26.8124 97.2042 26.4624 97.7163 25.7624C98.2456 25.0624 98.5102 24.0978 98.5102 22.8686C98.5102 21.554 98.2627 20.5211 97.7676 19.7699C97.2725 19.0187 96.5127 18.6431 95.4884 18.6431C94.4469 18.6431 93.6787 19.0358 93.1836 19.8212C92.6885 20.5894 92.4409 21.6052 92.4409 22.8686C92.4409 24.0808 92.7141 25.0454 93.2604 25.7624C93.8067 26.4624 94.5921 26.8124 95.6164 26.8124Z" fill="#D631B9"/>
<path d="M109.837 29.7062C107.72 29.7062 106.055 29.0574 104.843 27.7599C103.631 26.4453 103.025 24.7722 103.025 22.7406C103.025 20.7772 103.631 19.1383 104.843 17.8237C106.055 16.492 107.609 15.8262 109.504 15.8262C111.57 15.8262 113.166 16.5432 114.293 17.9773C115.419 19.4114 115.983 21.3321 115.983 23.7393H106.456C106.593 24.7807 106.943 25.5917 107.506 26.1721C108.07 26.7355 108.838 27.0172 109.811 27.0172C111.092 27.0172 111.937 26.4794 112.346 25.4039H115.778C115.522 26.6331 114.873 27.6575 113.832 28.4769C112.79 29.2964 111.459 29.7062 109.837 29.7062ZM109.555 18.5151C107.865 18.5151 106.849 19.4541 106.508 21.3321H112.346C112.295 20.4955 112.013 19.8212 111.501 19.309C110.989 18.7797 110.34 18.5151 109.555 18.5151Z" fill="#D631B9"/>
<path d="M120.95 16.1847V18.2846H121.026C121.436 17.5164 121.889 16.953 122.384 16.5944C122.879 16.2188 123.502 16.031 124.253 16.031C124.612 16.031 124.885 16.0652 125.073 16.1335V19.1809H124.996C123.818 19.0614 122.87 19.3175 122.153 19.9492C121.436 20.5809 121.078 21.5711 121.078 22.9198V29.322H117.595V16.1847H120.95Z" fill="#D631B9"/>
<path d="M126.624 29.322V11.0117H130.107V29.322H126.624Z" fill="#D631B9"/>
<path d="M140.672 29.322C140.501 29.1001 140.364 28.6135 140.262 27.8623H140.211C139.835 28.4257 139.357 28.8611 138.776 29.1684C138.196 29.4757 137.385 29.6293 136.344 29.6293C134.961 29.6293 133.851 29.2793 133.015 28.5794C132.178 27.8794 131.76 26.8892 131.76 25.6087C131.76 24.2771 132.221 23.304 133.143 22.6893C134.064 22.0577 135.362 21.6223 137.035 21.3833C138.264 21.2126 139.101 21.0418 139.545 20.8711C139.989 20.6833 140.211 20.3589 140.211 19.898C140.211 19.4199 140.023 19.0444 139.647 18.7712C139.272 18.481 138.725 18.3358 138.008 18.3358C136.42 18.3358 135.575 18.9505 135.473 20.1797H132.374C132.426 18.9334 132.929 17.9005 133.885 17.081C134.841 16.2615 136.224 15.8518 138.034 15.8518C141.722 15.8518 143.565 17.4651 143.565 20.6919V27.3758C143.565 28.366 143.719 28.972 144.026 29.194V29.322H140.672ZM137.189 27.1965C138.145 27.1965 138.896 26.9489 139.442 26.4538C140.006 25.9587 140.287 25.3697 140.287 24.6868V22.715C139.912 22.9369 139.101 23.193 137.855 23.4832C136.864 23.7052 136.164 23.9612 135.755 24.2515C135.345 24.5246 135.14 24.9515 135.14 25.5319C135.14 26.6416 135.823 27.1965 137.189 27.1965Z" fill="#D631B9"/>
<path d="M149.185 16.1847V17.9773H149.262C150.167 16.5432 151.465 15.8262 153.155 15.8262C154.504 15.8262 155.596 16.2871 156.433 17.2091C157.269 18.1139 157.688 19.2919 157.688 20.7431V29.322H154.205V21.2552C154.205 20.5382 154 19.9577 153.59 19.5138C153.198 19.07 152.643 18.848 151.926 18.848C151.157 18.848 150.517 19.1297 150.005 19.6931C149.51 20.2565 149.262 20.9821 149.262 21.8699V29.322H145.78V16.1847H149.185Z" fill="#D631B9"/>
<path d="M166.006 29.7062C163.889 29.7062 162.225 29.0574 161.012 27.7599C159.8 26.4453 159.194 24.7722 159.194 22.7406C159.194 20.7772 159.8 19.1383 161.012 17.8237C162.225 16.492 163.778 15.8262 165.673 15.8262C167.739 15.8262 169.335 16.5432 170.462 17.9773C171.589 19.4114 172.152 21.3321 172.152 23.7393H162.626C162.762 24.7807 163.112 25.5917 163.676 26.1721C164.239 26.7355 165.007 27.0172 165.98 27.0172C167.261 27.0172 168.106 26.4794 168.516 25.4039H171.947C171.691 26.6331 171.042 27.6575 170.001 28.4769C168.96 29.2964 167.628 29.7062 166.006 29.7062ZM165.724 18.5151C164.034 18.5151 163.018 19.4541 162.677 21.3321H168.516C168.465 20.4955 168.183 19.8212 167.671 19.309C167.158 18.7797 166.51 18.5151 165.724 18.5151Z" fill="#D631B9"/>
<path d="M62.1439 29.322V11.0117H65.8572V18.1822H73.0533V11.0117H76.7666V29.322H73.0533V21.2552H65.8572V29.322H62.1439Z" fill="white"/>
<path d="M79.575 33.6243V30.8842H80.8042C82.1017 30.8842 82.7504 30.2866 82.7504 29.0915C82.7504 28.5111 82.4175 27.3245 81.7517 25.5319L78.2177 16.1847H81.8797L83.826 22.1003L84.6711 24.9685H84.7223C84.9613 23.8588 85.2174 22.9028 85.4906 22.1003L87.3344 16.1847H90.8428L86.2589 29.6549C85.7467 31.1573 85.1662 32.1902 84.5175 32.7536C83.8858 33.3341 82.9212 33.6243 81.6237 33.6243H79.575Z" fill="white"/>
<path d="M92.0226 33.6243V16.1847H95.3774V17.8237H95.4542C96.4274 16.492 97.7163 15.8262 99.3212 15.8262C101.045 15.8262 102.428 16.4664 103.47 17.7468C104.511 19.0273 105.032 20.7004 105.032 22.7662C105.032 24.8832 104.511 26.5733 103.47 27.8367C102.428 29.083 101.054 29.7062 99.3468 29.7062C97.6395 29.7062 96.3761 29.083 95.5567 27.8367H95.5054V33.6243H92.0226ZM98.6041 26.8124C99.4919 26.8124 100.192 26.4624 100.704 25.7624C101.233 25.0624 101.498 24.0978 101.498 22.8686C101.498 21.554 101.25 20.5211 100.755 19.7699C100.26 19.0187 99.5004 18.6431 98.4761 18.6431C97.4346 18.6431 96.6664 19.0358 96.1713 19.8212C95.6762 20.5894 95.4286 21.6052 95.4286 22.8686C95.4286 24.0808 95.7018 25.0454 96.2481 25.7624C96.7944 26.4624 97.5798 26.8124 98.6041 26.8124Z" fill="white"/>
<path d="M112.824 29.7062C110.707 29.7062 109.043 29.0574 107.831 27.7599C106.619 26.4453 106.012 24.7722 106.012 22.7406C106.012 20.7772 106.619 19.1383 107.831 17.8237C109.043 16.492 110.596 15.8262 112.491 15.8262C114.557 15.8262 116.154 16.5432 117.28 17.9773C118.407 19.4114 118.971 21.3321 118.971 23.7393H109.444C109.581 24.7807 109.931 25.5917 110.494 26.1721C111.057 26.7355 111.826 27.0172 112.799 27.0172C114.079 27.0172 114.924 26.4794 115.334 25.4039H118.766C118.51 26.6331 117.861 27.6575 116.819 28.4769C115.778 29.2964 114.446 29.7062 112.824 29.7062ZM112.543 18.5151C110.853 18.5151 109.837 19.4541 109.495 21.3321H115.334C115.283 20.4955 115.001 19.8212 114.489 19.309C113.977 18.7797 113.328 18.5151 112.543 18.5151Z" fill="white"/>
<path d="M123.937 16.1847V18.2846H124.014C124.424 17.5164 124.876 16.953 125.371 16.5944C125.866 16.2188 126.49 16.031 127.241 16.031C127.599 16.031 127.872 16.0652 128.06 16.1335V19.1809H127.983C126.805 19.0614 125.858 19.3175 125.141 19.9492C124.424 20.5809 124.065 21.5711 124.065 22.9198V29.322H120.582V16.1847H123.937Z" fill="white"/>
<path d="M129.612 29.322V11.0117H133.095V29.322H129.612Z" fill="white"/>
<path d="M143.659 29.322C143.489 29.1001 143.352 28.6135 143.249 27.8623H143.198C142.823 28.4257 142.345 28.8611 141.764 29.1684C141.184 29.4757 140.373 29.6293 139.331 29.6293C137.948 29.6293 136.839 29.2793 136.002 28.5794C135.166 27.8794 134.747 26.8892 134.747 25.6087C134.747 24.2771 135.208 23.304 136.13 22.6893C137.052 22.0577 138.35 21.6223 140.023 21.3833C141.252 21.2126 142.089 21.0418 142.532 20.8711C142.976 20.6833 143.198 20.3589 143.198 19.898C143.198 19.4199 143.01 19.0444 142.635 18.7712C142.259 18.481 141.713 18.3358 140.996 18.3358C139.408 18.3358 138.563 18.9505 138.461 20.1797H135.362C135.413 18.9334 135.917 17.9005 136.873 17.081C137.829 16.2615 139.212 15.8518 141.022 15.8518C144.709 15.8518 146.553 17.4651 146.553 20.6919V27.3758C146.553 28.366 146.707 28.972 147.014 29.194V29.322H143.659ZM140.176 27.1965C141.133 27.1965 141.884 26.9489 142.43 26.4538C142.993 25.9587 143.275 25.3697 143.275 24.6868V22.715C142.9 22.9369 142.089 23.193 140.842 23.4832C139.852 23.7052 139.152 23.9612 138.742 24.2515C138.333 24.5246 138.128 24.9515 138.128 25.5319C138.128 26.6416 138.811 27.1965 140.176 27.1965Z" fill="white"/>
<path d="M152.173 16.1847V17.9773H152.25C153.155 16.5432 154.452 15.8262 156.143 15.8262C157.491 15.8262 158.584 16.2871 159.42 17.2091C160.257 18.1139 160.675 19.2919 160.675 20.7431V29.322H157.193V21.2552C157.193 20.5382 156.988 19.9577 156.578 19.5138C156.185 19.07 155.63 18.848 154.913 18.848C154.145 18.848 153.505 19.1297 152.993 19.6931C152.498 20.2565 152.25 20.9821 152.25 21.8699V29.322H148.767V16.1847H152.173Z" fill="white"/>
<path d="M168.994 29.7062C166.877 29.7062 165.212 29.0574 164 27.7599C162.788 26.4453 162.182 24.7722 162.182 22.7406C162.182 20.7772 162.788 19.1383 164 17.8237C165.212 16.492 166.766 15.8262 168.661 15.8262C170.727 15.8262 172.323 16.5432 173.45 17.9773C174.576 19.4114 175.14 21.3321 175.14 23.7393H165.613C165.75 24.7807 166.1 25.5917 166.663 26.1721C167.227 26.7355 167.995 27.0172 168.968 27.0172C170.249 27.0172 171.094 26.4794 171.503 25.4039H174.935C174.679 26.6331 174.03 27.6575 172.989 28.4769C171.947 29.2964 170.616 29.7062 168.994 29.7062ZM168.712 18.5151C167.022 18.5151 166.006 19.4541 165.665 21.3321H171.503C171.452 20.4955 171.171 19.8212 170.658 19.309C170.146 18.7797 169.497 18.5151 168.712 18.5151Z" fill="white"/>
<path d="M23.1036 0H31.6797C32.8498 0 33.8966 0.679412 34.3051 1.70389L41.8327 20.5851C41.8908 20.7307 41.8915 20.8909 41.8347 21.037L41.7925 21.1455L41.7921 21.1466L34.2961 40.4213C33.8936 41.4561 32.8413 42.1449 31.663 42.1449H23.0881C22.6059 42.1449 22.2679 41.7002 22.4269 41.2748L30.1562 20.5851L22.4458 0.879134C22.2787 0.452147 22.617 0 23.1036 0Z" fill="#D631B9"/>
<path d="M0.716429 0H9.29259C10.4626 0 11.5094 0.679412 11.9179 1.70389L19.4455 20.5851C19.5036 20.7307 19.5043 20.8909 19.4475 21.037L19.4053 21.1455L19.4049 21.1466L11.9089 40.4213C11.5065 41.4561 10.4541 42.1449 9.27582 42.1449H0.700956C0.218745 42.1449 -0.119219 41.7002 0.0397026 41.2748L7.76905 20.5851L0.0586293 0.879134C-0.10844 0.452147 0.229874 0 0.716429 0Z" fill="#D631B9"/>
<path d="M28.923 16.5586H16.8164V25.6924H28.923L30.9013 20.995L28.923 16.5586Z" fill="#D631B9"/>
<path d="M28.0528 0H36.629C37.799 0 38.8458 0.679412 39.2543 1.70389L46.782 20.5851C46.84 20.7307 46.8407 20.8909 46.7839 21.037L46.7417 21.1455L46.7413 21.1466L39.2453 40.4213C38.8429 41.4561 37.7905 42.1449 36.6122 42.1449H28.0373C27.5551 42.1449 27.2172 41.7002 27.3761 41.2748L35.1054 20.5851L27.395 0.879134C27.2279 0.452147 27.5663 0 28.0528 0Z" fill="white"/>
<path d="M5.66565 0H14.2418C15.4118 0 16.4587 0.679412 16.8671 1.70389L24.3948 20.5851C24.4528 20.7307 24.4535 20.8909 24.3967 21.037L24.3545 21.1455L24.3541 21.1466L16.8581 40.4213C16.4557 41.4561 15.4033 42.1449 14.225 42.1449H5.65018C5.16796 42.1449 4.83 41.7002 4.98892 41.2748L12.7183 20.5851L5.00785 0.879134C4.84078 0.452147 5.17909 0 5.66565 0Z" fill="white"/>
<path d="M33.8723 16.5586H21.7656V25.6924H33.8723L35.8505 20.995L33.8723 16.5586Z" fill="white"/>
</svg>
