<?xml version="1.0" encoding="utf-8"?>
<!-- Generator: Adobe Illustrator 26.1.0, SVG Export Plug-In . SVG Version: 6.00 Build 0)  -->
<svg version="1.1" id="Layer_1" xmlns="http://www.w3.org/2000/svg" xmlns:xlink="http://www.w3.org/1999/xlink" x="0px" y="0px"
	 viewBox="0 0 500 500" style="enable-background:new 0 0 500 500;" xml:space="preserve">
<style type="text/css">
	.st0{fill:#0DA8FF;}
</style>
<path id="_x23_0da8ffff" class="st0" d="M234.3,53.6c43.3-2.8,87.4,5.9,126.3,25.2C418,107,463.7,158,485.3,218.1
	c9.5,26.5,14.7,54.7,14.7,82.8v104.7c0,4.3,0.1,8.6-0.9,12.8c-2.3,10.6-9.9,19.9-19.8,24.3c-6.9,3.3-14.8,3.6-22.2,2.4
	c-15.9-2.9-28.4-17.9-28.5-34.1c-0.1-32.5,0-64.9,0-97.5c0.2-9.2,0.3-19.1-4.7-27.2c-8.1-15-27.7-22.1-43.5-15.7
	c-13.4,4.8-23,18.3-23.1,32.5c-0.1,33,0,66,0,98.9c0,6.2,0.3,12.4-1.5,18.4c-3.4,11.6-13,21.1-24.7,24.2
	c-15.2,4.2-32.8-2.6-40.5-16.6c-5.2-8.5-4.9-18.7-4.8-28.3c-0.1-32.7,0.1-65.5-0.1-98.2c-0.3-16.6-14-31.6-30.5-33.7
	c-10.7-1.6-22,2-29.8,9.5c-7,6.6-11.1,16.2-11.1,25.8v95.4c-0.1,8,0.8,16.3-2.2,23.8c-4.8,13.6-18.5,23.6-33,23.3
	c-14.9,0.8-29.3-9.4-34.1-23.4c-2.7-6.9-2.1-14.3-2.1-21.5c0-32.9,0.1-65.8,0-98.8c-0.1-16.3-12.8-31.2-28.7-34.1
	c-14.5-3.1-30.6,4.2-37.8,17.2c-3.1,5.5-4.8,11.7-4.8,17.9v106.9c0.1,10.4-4.7,20.7-12.7,27.3c-12.1,10.6-31.6,11.2-44.3,1.4
	C5.5,432.4,0,421.6,0,410.4V302.1c0.1-40.9,10.5-81.8,30-117.8C46,154.8,68,128.7,94.2,107.7C133.8,75.8,183.5,56.6,234.3,53.6z"/>
</svg>
