<?xml version="1.0" encoding="utf-8"?>
<!-- Generator: Adobe Illustrator 26.1.0, SVG Export Plug-In . SVG Version: 6.00 Build 0)  -->
<svg version="1.1" id="kucoin" xmlns="http://www.w3.org/2000/svg" xmlns:xlink="http://www.w3.org/1999/xlink" x="0px" y="0px"
	 viewBox="0 0 500 500" style="enable-background:new 0 0 500 500;" xml:space="preserve">
<style type="text/css">
	.st0{fill:#28CD96;}
</style>
<path class="st0" d="M165.2,249.9l148.4,148.4l93.5-93.5c16.4-16.7,43.5-16.7,59.7,0c16.7,16.4,16.7,43.5,0,59.7L343.5,487.6
	c-16.7,16.4-43.5,16.4-60,0L105.5,309.7v105.6c0,23.2-18.8,42.4-42.4,42.4c-23.2,0-42.4-18.8-42.4-42.4V84.2
	c0-23.2,18.8-42.4,42.4-42.4c23.2,0,42.4,18.8,42.4,42.4v106L283.4,12.3c16.7-16.4,43.5-16.4,60,0l123.3,123.3
	c16.4,16.7,16.4,43.5,0,59.7c-16.7,16.4-43.5,16.4-59.7,0l0,0l-93.5-93.5L165.2,249.9z M313.6,207.5L313.6,207.5
	c-23.6,0-42.8,18.8-42.8,42.4s18.8,42.8,42.4,42.8c23.6,0,42.8-18.8,42.8-42.4v-0.4C355.6,226.6,336.8,207.8,313.6,207.5z"/>
</svg>
