<svg xmlns="http://www.w3.org/2000/svg" width="153" height="24" viewBox="0 0 153 24" fill="none"><path d="M10.4818 1.01715C11.7821 1.01715 12.9709 1.46535 13.9062 2.20284C14.6563 2.79935 15.2455 3.59467 15.5811 4.49948C15.5822 4.5026 15.5832 4.50681 15.5832 4.51C15.5832 4.51312 15.5832 4.51631 15.5843 4.51842L15.7757 5.15171L16.3953 7.19483L18.3869 13.8817L19.5957 17.8973C19.8092 18.4054 20.1038 18.8736 20.4594 19.2923C20.5404 19.3923 20.632 19.4912 20.7235 19.5817C21.3021 20.1392 22.0954 20.479 22.9686 20.479C24.29 20.479 25.4178 19.7121 25.9154 18.6053C25.928 18.577 25.9469 18.559 25.968 18.5454C25.9648 18.5475 25.9617 18.5475 25.9585 18.5496C25.7239 18.6895 25.2147 19.2808 24.0543 19.3028C23.1937 19.3197 22.6792 18.9431 22.2932 18.5706C22.2017 18.4812 22.1101 18.3813 22.0291 18.2813C22.0259 18.2771 22.0217 18.2729 22.0186 18.2687C21.5578 17.7237 21.1369 16.859 20.9329 16.1804L19.9565 12.8696L17.965 6.1827L17.3453 4.13966L17.1539 3.50629C17.1539 3.50629 17.1528 3.49998 17.1528 3.49787C17.1528 3.49475 17.1529 3.49055 17.1507 3.48735C16.8152 2.58261 16.2271 1.78729 15.4759 1.19079C14.5417 0.4554 13.3529 0.00720215 12.0514 0.00720215C9.96733 0.00720215 8.31457 0.598486 6.39038 2.84564C7.38771 1.72838 8.84796 1.01715 10.4818 1.01715Z" fill="white"/><path d="M15.7862 5.14848L15.5947 4.51511C15.5947 4.51511 15.5937 4.5088 15.5937 4.50669C15.5937 4.50669 15.5937 4.49936 15.5916 4.49617C15.256 3.59143 14.6678 2.79611 13.9167 2.1996C12.9825 1.46204 11.7937 1.01392 10.4923 1.01392C8.39873 1.01392 6.5902 2.17958 5.67603 3.87441C5.27935 4.6119 5.06689 5.44938 5.06689 6.3362V6.3457C5.06689 6.4951 5.28044 6.54451 5.34146 6.40563C5.83907 5.29998 6.96685 4.53194 8.28823 4.53194C9.16249 4.53194 9.95469 4.87072 10.5333 5.42834C10.6248 5.51773 10.7163 5.61764 10.7974 5.71763C11.173 6.15632 11.4781 6.65393 11.6916 7.19261C11.8126 7.49032 12.851 11.0978 12.8605 11.1283V11.1304L14.8719 17.8057L15.4811 19.8582L15.6726 20.4915C15.6726 20.4915 15.6737 20.4978 15.6737 20.4999C15.6737 20.4999 15.6736 20.5073 15.6758 20.5105C16.0113 21.4153 16.5994 22.2106 17.3506 22.8071C18.2848 23.5541 19.4736 23.9928 20.775 23.9928C22.8686 23.9928 24.6771 22.8271 25.5913 21.1322C25.9879 20.3948 26.2004 19.5573 26.2004 18.6704V18.661C26.2004 18.5116 25.9869 18.4621 25.9259 18.601C25.4283 19.7067 24.3004 20.4747 22.979 20.4747C22.1048 20.4747 21.3127 20.136 20.734 19.5784C20.6425 19.489 20.5509 19.389 20.47 19.2891C20.1143 18.8703 19.8197 18.4022 19.6062 17.8941L18.3974 13.8783L16.4058 7.19152L15.7862 5.14848Z" fill="white"/><path d="M7.82315 11.8101C7.84318 11.1957 7.82315 10.7602 7.53705 10.2941C7.51601 10.2604 7.49388 10.2268 7.46863 10.1963C7.31923 10.008 7.08465 9.80177 6.8616 9.71862C6.28824 9.50298 5.84744 9.6124 5.40345 10.0017C5.31508 10.0784 5.24041 10.17 5.18041 10.2709C4.95743 10.6445 4.65443 11.2578 4.57657 11.4114L0.182175 20.0214C-0.356504 21.0777 0.364153 22.3622 1.49513 22.3622H6.48603C7.32133 22.3622 7.99468 21.6342 7.97886 20.7473L7.82214 11.8101H7.82315Z" fill="white"/><path d="M1.37729 22.3622H1.49411C1.44042 22.3622 1.38679 22.358 1.33521 22.3528C1.34892 22.359 1.36256 22.3622 1.37729 22.3622Z" fill="white"/><path d="M12.5594 22.0213L9.71367 11.284C9.51588 10.2909 8.86887 9.49771 8.02616 9.24521C6.98784 8.93277 5.75898 9.26306 5.20667 10.231C5.26246 10.1468 5.32559 10.0679 5.40236 10.0016C5.84736 9.61236 6.28714 9.50294 6.8605 9.71858C7.08355 9.80275 7.31813 10.009 7.46753 10.1962C7.49278 10.2278 7.51491 10.2605 7.53596 10.2941C7.82206 10.7591 7.84208 11.1957 7.82206 11.8101L7.97886 20.7473C7.9946 21.6342 7.32133 22.3621 6.48595 22.3621H12.3175C12.5269 22.3621 12.6057 22.1928 12.5605 22.0213H12.5594Z" fill="white"/><path fill-rule="evenodd" clip-rule="evenodd" d="M132.69 5.00415C134.773 5.00415 136.524 5.74363 137.945 7.20313L135.921 8.97403C135.084 8.1372 134.014 7.72857 132.69 7.72857C131.484 7.72857 130.472 8.1372 129.635 8.95459C128.798 9.77185 128.39 10.7838 128.39 12.0097C128.39 13.2357 128.798 14.2476 129.616 15.065C130.452 15.8628 131.464 16.2716 132.69 16.2716C133.877 16.2716 134.87 15.9213 135.648 15.2207V13.3914H132.087V10.7448H138.451V16.2325C137.186 17.9257 135.045 18.9958 132.69 18.9958C130.647 18.9958 128.935 18.3343 127.514 17.011C126.093 15.6682 125.393 14.0141 125.393 12.0097C125.393 10.0053 126.093 8.35124 127.514 7.00854C128.935 5.66584 130.647 5.00415 132.69 5.00415ZM152.754 18.7818H143.355V5.21819H152.618V7.94261H146.351V10.4919H152.209V13.158H146.351V16.0575H152.754V18.7818ZM97.8324 18.7818H94.855V5.21819H100.537C101.802 5.21819 102.892 5.64639 103.787 6.52199C104.702 7.37828 105.149 8.42915 105.149 9.69406C105.149 11.4259 104.196 12.9243 102.736 13.5471L106.045 18.7818H102.658L99.8368 14.2672H97.8324V18.7818ZM97.8324 7.94261V11.6205H100.207C101.374 11.6205 102.153 10.8811 102.153 9.73296C102.153 8.70153 101.413 7.94261 100.459 7.94261H97.8324ZM67.886 18.7818H70.5325L76.0786 5.21819H72.8872L69.2093 14.4033L65.5119 5.21819H62.3204L67.886 18.7818ZM44.4904 18.7818H36.2004V5.21819H39.1972V16.0575H44.4904V18.7818ZM53.466 5.30949H56.1126L61.6587 18.8731H58.4673L54.7892 9.688L51.0919 18.8731H47.9005L53.466 5.30949ZM84.8534 5.30949H82.2069L76.6414 18.8731H79.8328L83.5302 9.688L87.2081 18.8731H90.3996L84.8534 5.30949ZM114.779 5.30949H117.426L122.972 18.8731H119.781L116.103 9.688L112.405 18.8731H109.214L114.779 5.30949Z" fill="white"/></svg>