<svg xmlns="http://www.w3.org/2000/svg" width="42" height="37" viewBox="0 0 42 37" fill="none"><path d="M16.9164 1.72554C18.9443 1.72554 20.7982 2.39824 22.2568 3.50514C23.4266 4.40043 24.3454 5.59412 24.8688 6.95215C24.8705 6.95683 24.8721 6.96315 24.8721 6.96794C24.8721 6.97262 24.8721 6.97741 24.8738 6.98057L25.1723 7.93108L26.1386 10.9976L29.2444 21.0338L31.1296 27.0608C31.4626 27.8235 31.922 28.5263 32.4766 29.1546C32.6029 29.3047 32.7457 29.4531 32.8884 29.5889C33.7908 30.4257 35.0278 30.9357 36.3896 30.9357C38.4503 30.9357 40.2091 29.7846 40.9851 28.1235C41.0048 28.0809 41.0343 28.054 41.0672 28.0336C41.0622 28.0367 41.0573 28.0367 41.0523 28.0399C40.6865 28.2499 39.8924 29.1373 38.0828 29.1704C36.7407 29.1957 35.9384 28.6305 35.3363 28.0715C35.1936 27.9372 35.0508 27.7872 34.9245 27.6373C34.9195 27.631 34.913 27.6246 34.9081 27.6183C34.1894 26.8003 33.5331 25.5024 33.2149 24.484L31.6923 19.5148L28.5865 9.47849L27.6202 6.4121L27.3216 5.46148C27.3216 5.46148 27.32 5.452 27.32 5.44884C27.32 5.44416 27.32 5.43785 27.3167 5.43305C26.7933 4.07514 25.8762 2.88145 24.7047 1.98615C23.2478 0.882413 21.3939 0.209717 19.3643 0.209717C16.1141 0.209717 13.5367 1.09717 10.5359 4.46991C12.0912 2.79302 14.3685 1.72554 16.9164 1.72554Z" fill="url(#paint0_linear_8_175)"/><path d="M25.1887 7.92648L24.8901 6.97587C24.8901 6.97587 24.8885 6.96639 24.8885 6.96323C24.8885 6.96323 24.8885 6.95223 24.8852 6.94744C24.3618 5.58952 23.4446 4.39583 22.2732 3.50054C20.8163 2.39353 18.9624 1.72095 16.9328 1.72095C13.6679 1.72095 10.8475 3.47048 9.42187 6.01425C8.80324 7.12114 8.47192 8.37811 8.47192 9.70912V9.72339C8.47192 9.94762 8.80494 10.0218 8.90011 9.81335C9.67613 8.15387 11.4349 7.00113 13.4956 7.00113C14.859 7.00113 16.0944 7.5096 16.9969 8.34652C17.1396 8.48069 17.2822 8.63065 17.4086 8.78072C17.9943 9.43915 18.4702 10.186 18.8032 10.9945C18.9919 11.4413 20.6112 16.8558 20.626 16.9015V16.9047L23.7629 26.9236L24.7129 30.0043L25.0115 30.9548C25.0115 30.9548 25.0132 30.9642 25.0132 30.9674C25.0132 30.9674 25.0132 30.9785 25.0165 30.9832C25.5398 32.3412 26.4569 33.5349 27.6283 34.4302C29.0853 35.5514 30.9393 36.2098 32.9687 36.2098C36.2337 36.2098 39.054 34.4603 40.4798 31.9164C41.0983 30.8096 41.4297 29.5526 41.4297 28.2215V28.2074C41.4297 27.9831 41.0967 27.9089 41.0015 28.1173C40.2255 29.7769 38.4666 30.9295 36.4059 30.9295C35.0425 30.9295 33.8072 30.4211 32.9048 29.5842C32.7621 29.4501 32.6193 29.3 32.493 29.15C31.9384 28.5215 31.479 27.8189 31.146 27.0562L29.2608 21.0291L26.155 10.9929L25.1887 7.92648Z" fill="url(#paint1_linear_8_175)"/><path d="M12.7704 17.9248C12.8016 17.0026 12.7704 16.349 12.3242 15.6494C12.2914 15.5989 12.2569 15.5484 12.2175 15.5026C11.9845 15.22 11.6187 14.9105 11.2709 14.7857C10.3767 14.462 9.68928 14.6262 8.99688 15.2105C8.85906 15.3257 8.74262 15.4632 8.64904 15.6146C8.30131 16.1753 7.82877 17.0958 7.70735 17.3264L0.854292 30.249C0.0142223 31.8344 1.13809 33.7623 2.90185 33.7623H10.6852C11.9878 33.7623 13.0379 32.6697 13.0132 31.3386L12.7688 17.9248H12.7704Z" fill="url(#paint2_linear_8_175)"/><path d="M2.71797 33.7622H2.90016C2.81642 33.7622 2.7328 33.7559 2.65234 33.748C2.67373 33.7574 2.695 33.7622 2.71797 33.7622Z" fill="url(#paint3_linear_8_175)"/><path d="M20.1567 33.2506L15.7187 17.1352C15.4102 15.6446 14.4012 14.4541 13.087 14.0751C11.4678 13.6062 9.55135 14.1019 8.69 15.5547C8.77702 15.4284 8.87546 15.3099 8.99518 15.2104C9.68917 14.6262 10.375 14.462 11.2692 14.7856C11.617 14.9119 11.9828 15.2214 12.2158 15.5025C12.2552 15.5499 12.2897 15.5989 12.3225 15.6494C12.7687 16.3473 12.7999 17.0026 12.7687 17.9248L13.0132 31.3385C13.0378 32.6696 11.9878 33.7623 10.6851 33.7623H19.7794C20.1059 33.7623 20.2289 33.5081 20.1584 33.2506H20.1567Z" fill="url(#paint4_linear_8_175)"/><defs><linearGradient id="paint0_linear_8_175" x1="10.5359" y1="-13.7567" x2="63.6674" y2="44.0403" gradientUnits="userSpaceOnUse"><stop stop-color="#F3B886"/><stop offset="0.0001" stop-color="#FFDD6F"/><stop offset="0.24" stop-color="#FF845C"/><stop offset="0.437489" stop-color="#FF433F"/><stop offset="0.845352" stop-color="#FF183F"/><stop offset="0.99" stop-color="#53000F"/></linearGradient><linearGradient id="paint1_linear_8_175" x1="8.47192" y1="-13.9558" x2="68.2606" y2="48.5921" gradientUnits="userSpaceOnUse"><stop stop-color="#F3B886"/><stop offset="0.0001" stop-color="#FFDD6F"/><stop offset="0.24" stop-color="#FF845C"/><stop offset="0.437489" stop-color="#FF433F"/><stop offset="0.845352" stop-color="#FF183F"/><stop offset="0.99" stop-color="#53000F"/></linearGradient><linearGradient id="paint2_linear_8_175" x1="-1.4263" y1="21.3402" x2="21.8535" y2="30.2065" gradientUnits="userSpaceOnUse"><stop stop-color="#FFDC70"/><stop offset="0.15" stop-color="#FFDC70"/><stop offset="0.38" stop-color="#F4835F"/><stop offset="0.59" stop-color="#EE4745"/><stop offset="0.78" stop-color="#ED2645"/><stop offset="1" stop-color="#ED2645"/></linearGradient><linearGradient id="paint3_linear_8_175" x1="2.61465" y1="33.7544" x2="2.8706" y2="33.7544" gradientUnits="userSpaceOnUse"><stop stop-color="#FFDC70"/><stop offset="0.15" stop-color="#FFDC70"/><stop offset="0.38" stop-color="#F4835F"/><stop offset="0.59" stop-color="#EE4745"/><stop offset="0.74" stop-color="#ED2645"/><stop offset="0.93" stop-color="#C11F41"/><stop offset="1" stop-color="#C11F41"/></linearGradient><linearGradient id="paint4_linear_8_175" x1="1.85991" y1="23.7134" x2="18.1303" y2="23.9367" gradientUnits="userSpaceOnUse"><stop stop-color="#FFDC70"/><stop offset="0.15" stop-color="#FFDC70"/><stop offset="0.38" stop-color="#F4835F"/><stop offset="0.59" stop-color="#EE4745"/><stop offset="0.74" stop-color="#ED2645"/><stop offset="0.93" stop-color="#C11F41"/><stop offset="1" stop-color="#C11F41"/></linearGradient></defs></svg>