<svg width="150" height="20" viewBox="0 0 150 20" fill="none" xmlns="http://www.w3.org/2000/svg"><path d="M9.08125 0.842126C10.2078 0.842126 11.2378 1.21585 12.0481 1.83079C12.698 2.32817 13.2085 2.99134 13.4992 3.7458C13.5002 3.7484 13.5011 3.75191 13.5011 3.75457C13.5011 3.75717 13.5011 3.75983 13.502 3.76159L13.6678 4.28965L14.2047 5.99326L15.9301 11.5689L16.9775 14.9173C17.1625 15.341 17.4177 15.7314 17.7258 16.0805C17.796 16.1639 17.8753 16.2463 17.9546 16.3218C18.4559 16.7867 19.1431 17.07 19.8997 17.07C21.0445 17.07 22.0216 16.4305 22.4528 15.5077C22.4637 15.484 22.4801 15.4691 22.4983 15.4577C22.4956 15.4595 22.4929 15.4595 22.4901 15.4612C22.2869 15.5779 21.8457 16.0709 20.8404 16.0893C20.0947 16.1033 19.649 15.7893 19.3145 15.4788C19.2352 15.4042 19.1559 15.3208 19.0857 15.2375C19.083 15.234 19.0793 15.2305 19.0766 15.227C18.6774 14.7726 18.3128 14.0515 18.136 13.4857L17.2901 10.7251L15.5646 5.14932L15.0278 3.44577L14.8619 2.91764C14.8619 2.91764 14.861 2.91238 14.861 2.91063C14.861 2.90803 14.861 2.90452 14.8592 2.90185C14.5684 2.14746 14.0589 1.48429 13.4081 0.986907C12.5987 0.37372 11.5687 0 10.4412 0C8.63554 0 7.20362 0.49303 5.53651 2.36677C6.40059 1.43517 7.66573 0.842126 9.08125 0.842126Z" fill="url(#paint0_linear_1828_482)"/><path d="M13.677 4.28706L13.5111 3.75894C13.5111 3.75894 13.5102 3.75367 13.5102 3.75192C13.5102 3.75192 13.5102 3.74581 13.5084 3.74315C13.2176 2.98875 12.708 2.32559 12.0573 1.8282C11.2479 1.2132 10.2179 0.839539 9.09037 0.839539C7.27654 0.839539 5.70964 1.8115 4.91762 3.22471C4.57394 3.83965 4.38987 4.53796 4.38987 5.27742V5.28534C4.38987 5.40991 4.57488 5.45112 4.62775 5.33532C5.05887 4.41339 6.03597 3.77297 7.1808 3.77297C7.93825 3.77297 8.6246 4.05546 9.12595 4.52042C9.20522 4.59495 9.28449 4.67827 9.35471 4.76164C9.6801 5.12743 9.94444 5.54235 10.1295 5.99152C10.2343 6.23976 11.1339 9.24779 11.1421 9.2732V9.27496L12.8849 14.841L13.4126 16.5525L13.5785 17.0806C13.5785 17.0806 13.5795 17.0858 13.5795 17.0876C13.5795 17.0876 13.5794 17.0937 13.5813 17.0963C13.872 17.8508 14.3815 18.514 15.0323 19.0114C15.8418 19.6342 16.8717 20 17.9992 20C19.8131 20 21.3799 19.0281 22.172 17.6148C22.5156 16.9999 22.6998 16.3016 22.6998 15.5621V15.5542C22.6998 15.4296 22.5147 15.3884 22.4619 15.5042C22.0308 16.4262 21.0536 17.0665 19.9088 17.0665C19.1513 17.0665 18.465 16.7841 17.9637 16.3191C17.8844 16.2446 17.8051 16.1612 17.7349 16.0779C17.4268 15.7288 17.1716 15.3384 16.9866 14.9147L15.9393 11.5663L14.2138 5.99061L13.677 4.28706Z" fill="url(#paint1_linear_1828_482)"/><path d="M6.7779 9.84169C6.79525 9.32936 6.7779 8.96623 6.53002 8.57757C6.51179 8.54949 6.49262 8.52148 6.47074 8.49601C6.3413 8.33901 6.13806 8.16706 5.94482 8.09773C5.44806 7.91791 5.06616 8.00915 4.68149 8.33374C4.60493 8.39775 4.54024 8.47411 4.48825 8.55827C4.29507 8.86973 4.03255 9.38115 3.96509 9.50924L0.157834 16.6885C-0.308871 17.5692 0.315498 18.6403 1.29537 18.6403H5.61943C6.34313 18.6403 6.92651 18.0333 6.9128 17.2938L6.77702 9.84169H6.7779Z" fill="url(#paint2_linear_1828_482)"/><path d="M1.19321 18.6403H1.29442C1.2479 18.6403 1.20144 18.6367 1.15675 18.6324C1.16863 18.6376 1.18045 18.6403 1.19321 18.6403Z" fill="url(#paint3_linear_1828_482)"/><path d="M10.8814 18.356L8.41583 9.403C8.24446 8.57491 7.6839 7.9135 6.95379 7.70295C6.0542 7.44243 4.98953 7.71784 4.51101 8.52493C4.55935 8.45475 4.61404 8.38892 4.68055 8.33369C5.0661 8.00909 5.44712 7.91786 5.94388 8.09767C6.13712 8.16785 6.34036 8.3398 6.4698 8.49595C6.49168 8.52227 6.51085 8.5495 6.52908 8.57757C6.77696 8.96527 6.79431 9.32931 6.77696 9.84164L6.91281 17.2937C6.92645 18.0332 6.34313 18.6402 5.61937 18.6402H10.6718C10.8531 18.6402 10.9215 18.499 10.8823 18.356H10.8814Z" fill="url(#paint4_linear_1828_482)"/><g clip-path="url(#clip0_1828_482)"><path fill-rule="evenodd" clip-rule="evenodd" d="M129.19 3.00415C131.272 3.00415 133.023 3.74363 134.444 5.20313L132.42 6.97403C131.583 6.1372 130.513 5.72857 129.19 5.72857C127.983 5.72857 126.971 6.1372 126.134 6.95459C125.298 7.77185 124.889 8.78383 124.889 10.0097C124.889 11.2357 125.298 12.2476 126.115 13.065C126.952 13.8628 127.964 14.2716 129.19 14.2716C130.377 14.2716 131.369 13.9213 132.148 13.2207V11.3914H128.586V8.74481H134.95V14.2325C133.685 15.9257 131.544 16.9958 129.19 16.9958C127.146 16.9958 125.434 16.3343 124.013 15.011C122.593 13.6682 121.892 12.0141 121.892 10.0097C121.892 8.00533 122.593 6.35124 124.013 5.00854C125.434 3.66584 127.146 3.00415 129.19 3.00415ZM149.253 16.7818H139.854V3.21819H149.117V5.94261H142.851V8.49188H148.708V11.158H142.851V14.0575H149.253V16.7818ZM94.3317 16.7818H91.3543V3.21819H97.0367C98.3016 3.21819 99.3913 3.64639 100.287 4.52199C101.201 5.37828 101.649 6.42915 101.649 7.69406C101.649 9.42595 100.695 10.9243 99.2356 11.5471L102.544 16.7818H99.1577L96.3361 12.2672H94.3317V16.7818ZM94.3317 5.94261V9.62054H96.7058C97.8734 9.62054 98.6519 8.88106 98.6519 7.73296C98.6519 6.70153 97.9124 5.94261 96.9587 5.94261H94.3317ZM64.3853 16.7818H67.0318L72.5779 3.21819H69.3865L65.7086 12.4033L62.0112 3.21819H58.8197L64.3853 16.7818ZM40.9897 16.7818H32.6998V3.21819H35.6965V14.0575H40.9897V16.7818ZM49.9653 3.30949H52.6119L58.158 16.8731H54.9666L51.2885 7.688L47.5912 16.8731H44.3998L49.9653 3.30949ZM81.3527 3.30949H78.7062L73.1407 16.8731H76.3321L80.0295 7.688L83.7074 16.8731H86.8989L81.3527 3.30949ZM111.279 3.30949H113.925L119.471 16.8731H116.28L112.602 7.688L108.904 16.8731H105.713L111.279 3.30949Z" fill="url(#paint5_linear_1828_482)"/></g><defs><linearGradient id="paint0_linear_1828_482" x1="7.28383" y1="8.53543" x2="40.0143" y2="8.53543" gradientUnits="userSpaceOnUse"><stop stop-color="#FFDC70"/><stop offset="0.15" stop-color="#FFDC70"/><stop offset="0.38" stop-color="#F4835F"/><stop offset="0.59" stop-color="#EE4745"/><stop offset="0.78" stop-color="#ED2645"/><stop offset="1" stop-color="#ED2645"/></linearGradient><linearGradient id="paint1_linear_1828_482" x1="4.38984" y1="10.4189" x2="22.6997" y2="10.4189" gradientUnits="userSpaceOnUse"><stop stop-color="#FFDC70"/><stop offset="0.15" stop-color="#FFDC70"/><stop offset="0.38" stop-color="#F4835F"/><stop offset="0.59" stop-color="#EE4745"/><stop offset="0.78" stop-color="#ED2645"/><stop offset="1" stop-color="#ED2645"/></linearGradient><linearGradient id="paint2_linear_1828_482" x1="-1.10916" y1="11.7392" x2="11.8241" y2="16.6649" gradientUnits="userSpaceOnUse"><stop stop-color="#FFDC70"/><stop offset="0.15" stop-color="#FFDC70"/><stop offset="0.38" stop-color="#F4835F"/><stop offset="0.59" stop-color="#EE4745"/><stop offset="0.78" stop-color="#ED2645"/><stop offset="1" stop-color="#ED2645"/></linearGradient><linearGradient id="paint3_linear_1828_482" x1="1.13581" y1="18.6359" x2="1.278" y2="18.6359" gradientUnits="userSpaceOnUse"><stop stop-color="#FFDC70"/><stop offset="0.15" stop-color="#FFDC70"/><stop offset="0.38" stop-color="#F4835F"/><stop offset="0.59" stop-color="#EE4745"/><stop offset="0.74" stop-color="#ED2645"/><stop offset="0.93" stop-color="#C11F41"/><stop offset="1" stop-color="#C11F41"/></linearGradient><linearGradient id="paint4_linear_1828_482" x1="0.716514" y1="13.0576" x2="9.7556" y2="13.1816" gradientUnits="userSpaceOnUse"><stop stop-color="#FFDC70"/><stop offset="0.15" stop-color="#FFDC70"/><stop offset="0.38" stop-color="#F4835F"/><stop offset="0.59" stop-color="#EE4745"/><stop offset="0.74" stop-color="#ED2645"/><stop offset="0.93" stop-color="#C11F41"/><stop offset="1" stop-color="#C11F41"/></linearGradient><linearGradient id="paint5_linear_1828_482" x1="43.6858" y1="-54.8308" x2="118.442" y2="24.976" gradientUnits="userSpaceOnUse"><stop stop-color="#FFDC70"/><stop offset="0.15" stop-color="#FFDC70"/><stop offset="0.38" stop-color="#F4835F"/><stop offset="0.59" stop-color="#EE4745"/><stop offset="0.78" stop-color="#ED2645"/><stop offset="1" stop-color="#ED2645"/></linearGradient><clipPath id="clip0_1828_482"><rect width="116.553" height="14" fill="white" transform="translate(32.6998 3)"/></clipPath></defs></svg>