<svg xmlns="http://www.w3.org/2000/svg" width="27" height="24" viewBox="0 0 27 24" fill="none"><path d="M10.4818 1.01709C11.7821 1.01709 12.9709 1.46529 13.9062 2.20278C14.6563 2.79929 15.2455 3.59461 15.5811 4.49942C15.5822 4.50254 15.5832 4.50675 15.5832 4.50994C15.5832 4.51306 15.5832 4.51625 15.5843 4.51836L15.7757 5.15165L16.3953 7.19477L18.3869 13.8816L19.5957 17.8972C19.8092 18.4054 20.1038 18.8736 20.4594 19.2923C20.5404 19.3922 20.632 19.4911 20.7235 19.5816C21.3021 20.1392 22.0954 20.479 22.9686 20.479C24.29 20.479 25.4178 19.712 25.9154 18.6053C25.928 18.5769 25.9469 18.559 25.968 18.5453C25.9648 18.5474 25.9617 18.5474 25.9585 18.5495C25.7239 18.6894 25.2147 19.2807 24.0543 19.3028C23.1937 19.3196 22.6792 18.943 22.2932 18.5706C22.2017 18.4811 22.1101 18.3812 22.0291 18.2813C22.0259 18.2771 22.0217 18.2729 22.0186 18.2687C21.5578 17.7237 21.1369 16.8589 20.9329 16.1803L19.9565 12.8695L17.965 6.18264L17.3453 4.1396L17.1539 3.50623C17.1539 3.50623 17.1528 3.49992 17.1528 3.49781C17.1528 3.49469 17.1529 3.49048 17.1507 3.48729C16.8152 2.58255 16.2271 1.78723 15.4759 1.19072C14.5417 0.455338 13.3529 0.00714111 12.0514 0.00714111C9.96733 0.00714111 8.31457 0.598425 6.39038 2.84558C7.38771 1.72831 8.84796 1.01709 10.4818 1.01709Z" fill="white"/><path d="M15.7862 5.14854L15.5947 4.51517C15.5947 4.51517 15.5937 4.50886 15.5937 4.50675C15.5937 4.50675 15.5937 4.49942 15.5916 4.49623C15.256 3.59149 14.6678 2.79617 13.9167 2.19966C12.9825 1.4621 11.7937 1.01398 10.4923 1.01398C8.39873 1.01398 6.5902 2.17964 5.67603 3.87447C5.27935 4.61196 5.06689 5.44944 5.06689 6.33626V6.34576C5.06689 6.49516 5.28044 6.54457 5.34146 6.4057C5.83907 5.30004 6.96685 4.532 8.28823 4.532C9.16249 4.532 9.95469 4.87078 10.5333 5.4284C10.6248 5.51779 10.7163 5.6177 10.7974 5.71769C11.173 6.15638 11.4781 6.65399 11.6916 7.19267C11.8126 7.49038 12.851 11.0979 12.8605 11.1283V11.1305L14.8719 17.8057L15.4811 19.8583L15.6726 20.4916C15.6726 20.4916 15.6737 20.4979 15.6737 20.5C15.6737 20.5 15.6736 20.5074 15.6758 20.5105C16.0113 21.4153 16.5994 22.2107 17.3506 22.8072C18.2848 23.5542 19.4736 23.9928 20.775 23.9928C22.8686 23.9928 24.6771 22.8272 25.5913 21.1323C25.9879 20.3949 26.2004 19.5574 26.2004 18.6705V18.6611C26.2004 18.5117 25.9869 18.4622 25.9259 18.6011C25.4283 19.7068 24.3004 20.4748 22.979 20.4748C22.1048 20.4748 21.3127 20.136 20.734 19.5784C20.6425 19.489 20.5509 19.3891 20.47 19.2891C20.1143 18.8704 19.8197 18.4022 19.6062 17.8941L18.3974 13.8784L16.4058 7.19158L15.7862 5.14854Z" fill="white"/><path d="M7.82315 11.8101C7.84318 11.1957 7.82315 10.7602 7.53705 10.2941C7.51601 10.2604 7.49388 10.2268 7.46863 10.1963C7.31923 10.008 7.08465 9.80177 6.8616 9.71862C6.28824 9.50298 5.84744 9.6124 5.40345 10.0017C5.31508 10.0784 5.24041 10.17 5.18041 10.2709C4.95743 10.6445 4.65443 11.2578 4.57657 11.4114L0.182175 20.0214C-0.356504 21.0777 0.364153 22.3622 1.49513 22.3622H6.48603C7.32133 22.3622 7.99468 21.6342 7.97886 20.7473L7.82214 11.8101H7.82315Z" fill="white"/><path d="M1.37729 22.3622H1.49411C1.44042 22.3622 1.38679 22.3579 1.33521 22.3527C1.34892 22.359 1.36256 22.3622 1.37729 22.3622Z" fill="white"/><path d="M12.5594 22.0213L9.71367 11.284C9.51588 10.2909 8.86887 9.49771 8.02616 9.24521C6.98784 8.93277 5.75898 9.26306 5.20667 10.231C5.26246 10.1468 5.32559 10.0679 5.40236 10.0016C5.84736 9.61236 6.28714 9.50294 6.8605 9.71858C7.08355 9.80275 7.31813 10.009 7.46753 10.1962C7.49278 10.2278 7.51491 10.2605 7.53596 10.2941C7.82206 10.7591 7.84208 11.1957 7.82206 11.8101L7.97886 20.7473C7.9946 21.6342 7.32133 22.3621 6.48595 22.3621H12.3175C12.5269 22.3621 12.6057 22.1928 12.5605 22.0213H12.5594Z" fill="white"/></svg>