<svg width="307" height="103" viewBox="0 0 307 103" fill="none" xmlns="http://www.w3.org/2000/svg">
<g clip-path="url(#clip0_11249_139796)">
<mask id="mask0_11249_139796" style="mask-type:alpha" maskUnits="userSpaceOnUse" x="-21" y="0" width="123" height="124">
<path fill-rule="evenodd" clip-rule="evenodd" d="M83.5332 69.5497C94.3877 63.059 101.655 51.1899 101.655 37.6232C101.655 17.0935 85.0127 0.450806 64.483 0.450806C49.9932 0.450806 37.4397 8.7413 31.3073 20.8376L-21 73.1449L29.469 123.614L83.5332 69.5497Z" fill="#795E5E"/>
</mask>
<g mask="url(#mask0_11249_139796)">
<path fill-rule="evenodd" clip-rule="evenodd" d="M63.8607 -2.23938L63.8798 -2.25893C58.0201 -2.14911 52.3599 -0.570411 47.4923 2.51707C43.8418 6.39845 40.2695 10.358 36.8122 14.4261C33.0485 18.8453 29.4179 23.3845 25.9642 28.0746C24.6792 29.8363 23.4133 31.6235 22.2182 33.4815C24.0762 32.2864 25.8635 31.0205 27.6251 29.7355C29.7034 28.2009 31.7552 26.6332 33.7772 25.0358C43.6603 17.2381 52.9205 8.70039 61.8153 -0.157162C62.4985 -0.847739 63.178 -1.54197 63.8607 -2.23938ZM59.4785 20.9579C66.0715 14.2904 72.6035 7.54235 78.9508 0.629048C76.3006 -0.452252 73.5804 -1.23257 70.8565 -1.70398C64.9821 3.76825 59.2199 9.35919 53.52 14.9995C46.9618 21.6172 40.4684 28.3192 34.1597 35.1865C25.0115 45.1316 16.2338 55.4213 8.16364 66.3143C18.0042 59.0209 27.3583 51.1565 36.4014 42.955C44.2829 35.8183 51.9358 28.4335 59.4785 20.9579ZM90.266 7.51647C80.9612 17.8193 71.312 27.8037 61.5463 37.6588C55.6879 43.4725 49.7848 49.2415 43.7956 54.9179C30.7136 67.3221 17.2244 79.2994 2.90793 90.3387C14.1997 75.6953 26.4737 61.9168 39.1819 48.5532C44.5873 42.8722 50.0671 37.2658 55.5879 31.7003C65.1988 22.1788 74.9349 12.763 84.9638 3.67248C86.797 4.79613 88.5713 6.0756 90.266 7.51647ZM99.023 17.6039C97.8864 15.7837 96.5906 14.0258 95.1404 12.3478C84.8311 21.6591 74.8369 31.3181 64.9754 41.0903C59.1584 46.952 53.3828 52.8616 47.6999 58.8573C35.299 71.936 23.332 85.4224 12.2954 99.7287C26.9123 88.4559 40.6717 76.2085 54.0126 63.523C59.7163 58.0949 65.3455 52.5923 70.9338 47.0487C80.4781 37.415 89.9135 27.6594 99.023 17.6039ZM102.108 23.5795C103.211 26.193 104.017 28.8802 104.521 31.5715C98.9912 37.5184 93.3282 43.3453 87.6233 49.1172C80.9404 55.7405 74.1696 62.2953 67.2303 68.6686C57.3502 77.7518 47.1252 86.4574 36.3085 94.4736C43.5665 84.6758 51.3956 75.3646 59.5613 66.3573C66.7263 58.4325 74.1502 50.7405 81.6649 43.1588C88.3682 36.53 95.152 29.9621 102.108 23.5795ZM101.129 54.159C103.812 49.4206 105.148 44.0254 105.166 38.4583C104.364 39.2381 103.566 40.0216 102.774 40.8055C93.816 49.8012 85.1881 59.1665 77.3188 69.1733C75.8116 71.0902 74.3336 73.0299 72.8818 74.9957C71.5935 76.7606 70.3309 78.5446 69.1358 80.4026C70.9938 79.2075 72.781 77.9416 74.5427 76.6567C78.8519 73.4795 83.0401 70.1554 87.123 66.7129C91.923 62.6726 96.5802 58.4698 101.129 54.159Z" fill="url(#paint0_linear_11249_139796)"/>
</g>
</g>
<path d="M129.781 30H138.125L146.938 51.5H147.313L156.125 30H164.469V62H157.906V41.1719H157.641L149.359 61.8437H144.891L136.609 41.0937H136.344V62H129.781V30ZM180.855 62.4688C178.387 62.4688 176.262 61.9688 174.48 60.9688C172.71 59.9583 171.345 58.5312 170.387 56.6875C169.428 54.8333 168.949 52.6406 168.949 50.1094C168.949 47.6406 169.428 45.474 170.387 43.6094C171.345 41.7448 172.694 40.2917 174.434 39.25C176.184 38.2083 178.236 37.6875 180.59 37.6875C182.173 37.6875 183.647 37.9427 185.012 38.4531C186.387 38.9531 187.585 39.7083 188.605 40.7187C189.637 41.7292 190.439 43 191.012 44.5312C191.585 46.0521 191.871 47.8333 191.871 49.875V51.7031H171.605V47.5781H185.605C185.605 46.6198 185.397 45.7708 184.98 45.0313C184.564 44.2917 183.986 43.7135 183.246 43.2969C182.517 42.8698 181.668 42.6562 180.699 42.6562C179.689 42.6562 178.793 42.8906 178.012 43.3594C177.241 43.8177 176.637 44.4375 176.199 45.2187C175.762 45.9896 175.538 46.849 175.527 47.7969V51.7187C175.527 52.9062 175.746 53.9323 176.184 54.7969C176.632 55.6615 177.262 56.3281 178.074 56.7969C178.887 57.2656 179.85 57.5 180.965 57.5C181.704 57.5 182.382 57.3958 182.996 57.1875C183.611 56.9792 184.137 56.6667 184.574 56.25C185.012 55.8333 185.345 55.3229 185.574 54.7188L191.73 55.125C191.418 56.6042 190.777 57.8958 189.809 59C188.85 60.0937 187.611 60.9479 186.09 61.5625C184.579 62.1667 182.835 62.4688 180.855 62.4688ZM208.98 38V43H194.527V38H208.98ZM197.809 32.25H204.465V54.625C204.465 55.2396 204.559 55.7187 204.746 56.0625C204.934 56.3958 205.194 56.6302 205.527 56.7656C205.871 56.901 206.267 56.9687 206.715 56.9687C207.027 56.9687 207.34 56.9427 207.652 56.8906C207.965 56.8281 208.204 56.7812 208.371 56.75L209.418 61.7031C209.085 61.8073 208.616 61.9271 208.012 62.0625C207.408 62.2083 206.673 62.2969 205.809 62.3281C204.204 62.3906 202.798 62.1771 201.59 61.6875C200.392 61.1979 199.46 60.4375 198.793 59.4062C198.126 58.375 197.798 57.0729 197.809 55.5V32.25ZM223.996 62.4688C221.527 62.4688 219.402 61.9688 217.621 60.9688C215.85 59.9583 214.486 58.5312 213.527 56.6875C212.569 54.8333 212.09 52.6406 212.09 50.1094C212.09 47.6406 212.569 45.474 213.527 43.6094C214.486 41.7448 215.835 40.2917 217.574 39.25C219.324 38.2083 221.376 37.6875 223.73 37.6875C225.314 37.6875 226.788 37.9427 228.152 38.4531C229.527 38.9531 230.725 39.7083 231.746 40.7187C232.777 41.7292 233.579 43 234.152 44.5312C234.725 46.0521 235.012 47.8333 235.012 49.875V51.7031H214.746V47.5781H228.746C228.746 46.6198 228.538 45.7708 228.121 45.0313C227.704 44.2917 227.126 43.7135 226.387 43.2969C225.658 42.8698 224.809 42.6562 223.84 42.6562C222.829 42.6562 221.934 42.8906 221.152 43.3594C220.382 43.8177 219.777 44.4375 219.34 45.2187C218.902 45.9896 218.678 46.849 218.668 47.7969V51.7187C218.668 52.9062 218.887 53.9323 219.324 54.7969C219.772 55.6615 220.402 56.3281 221.215 56.7969C222.027 57.2656 222.991 57.5 224.105 57.5C224.845 57.5 225.522 57.3958 226.137 57.1875C226.751 56.9792 227.277 56.6667 227.715 56.25C228.152 55.8333 228.486 55.3229 228.715 54.7188L234.871 55.125C234.559 56.6042 233.918 57.8958 232.949 59C231.991 60.0937 230.751 60.9479 229.23 61.5625C227.72 62.1667 225.975 62.4688 223.996 62.4688ZM250.199 62.4688C247.772 62.4688 245.673 61.9531 243.902 60.9219C242.142 59.8802 240.783 58.4323 239.824 56.5781C238.866 54.7135 238.387 52.5521 238.387 50.0937C238.387 47.6146 238.866 45.4479 239.824 43.5937C240.783 41.7292 242.142 40.2812 243.902 39.25C245.673 38.2083 247.772 37.6875 250.199 37.6875C252.626 37.6875 254.72 38.2083 256.48 39.25C258.251 40.2812 259.616 41.7292 260.574 43.5937C261.533 45.4479 262.012 47.6146 262.012 50.0937C262.012 52.5521 261.533 54.7135 260.574 56.5781C259.616 58.4323 258.251 59.8802 256.48 60.9219C254.72 61.9531 252.626 62.4688 250.199 62.4688ZM250.23 57.3125C251.335 57.3125 252.257 57 252.996 56.375C253.736 55.7396 254.293 54.875 254.668 53.7812C255.053 52.6875 255.246 51.4427 255.246 50.0469C255.246 48.651 255.053 47.4063 254.668 46.3125C254.293 45.2187 253.736 44.3542 252.996 43.7187C252.257 43.0833 251.335 42.7656 250.23 42.7656C249.116 42.7656 248.178 43.0833 247.418 43.7187C246.668 44.3542 246.1 45.2187 245.715 46.3125C245.34 47.4063 245.152 48.651 245.152 50.0469C245.152 51.4427 245.34 52.6875 245.715 53.7812C246.1 54.875 246.668 55.7396 247.418 56.375C248.178 57 249.116 57.3125 250.23 57.3125ZM266.34 62V38H272.793V42.1875H273.043C273.48 40.6979 274.215 39.5729 275.246 38.8125C276.277 38.0417 277.465 37.6562 278.809 37.6562C279.142 37.6562 279.501 37.6771 279.887 37.7187C280.272 37.7604 280.611 37.8177 280.902 37.8906V43.7969C280.59 43.7031 280.158 43.6198 279.605 43.5469C279.053 43.474 278.548 43.4375 278.09 43.4375C277.111 43.4375 276.236 43.651 275.465 44.0781C274.704 44.4948 274.1 45.0781 273.652 45.8281C273.215 46.5781 272.996 47.4427 272.996 48.4219V62H266.34ZM290.5 62.4531C288.969 62.4531 287.604 62.1875 286.406 61.6562C285.208 61.1146 284.26 60.3177 283.563 59.2656C282.875 58.2031 282.531 56.8802 282.531 55.2969C282.531 53.9635 282.776 52.8437 283.266 51.9375C283.755 51.0313 284.422 50.3021 285.266 49.75C286.109 49.1979 287.068 48.7812 288.141 48.5C289.224 48.2187 290.359 48.0208 291.547 47.9062C292.943 47.7604 294.068 47.625 294.922 47.5C295.776 47.3646 296.396 47.1667 296.781 46.9062C297.167 46.6458 297.359 46.2604 297.359 45.75V45.6562C297.359 44.6667 297.047 43.901 296.422 43.3594C295.807 42.8177 294.932 42.5469 293.797 42.5469C292.599 42.5469 291.646 42.8125 290.938 43.3437C290.229 43.8646 289.76 44.5208 289.531 45.3125L283.375 44.8125C283.688 43.3542 284.302 42.0937 285.219 41.0312C286.135 39.9583 287.318 39.1354 288.766 38.5625C290.224 37.9792 291.911 37.6875 293.828 37.6875C295.161 37.6875 296.438 37.8437 297.656 38.1562C298.885 38.4687 299.974 38.9531 300.922 39.6094C301.88 40.2656 302.635 41.1094 303.188 42.1406C303.74 43.1615 304.016 44.3854 304.016 45.8125V62H297.703V58.6719H297.516C297.13 59.4219 296.615 60.0833 295.969 60.6562C295.323 61.2187 294.547 61.6615 293.641 61.9844C292.734 62.2969 291.688 62.4531 290.5 62.4531ZM292.406 57.8594C293.385 57.8594 294.25 57.6667 295 57.2812C295.75 56.8854 296.339 56.3542 296.766 55.6875C297.193 55.0208 297.406 54.2656 297.406 53.4219V50.875C297.198 51.0104 296.911 51.1354 296.547 51.25C296.193 51.3542 295.792 51.4531 295.344 51.5469C294.896 51.6302 294.448 51.7083 294 51.7812C293.552 51.8437 293.146 51.901 292.781 51.9531C292 52.0677 291.318 52.25 290.734 52.5C290.151 52.75 289.698 53.0885 289.375 53.5156C289.052 53.9323 288.891 54.4531 288.891 55.0781C288.891 55.9844 289.219 56.6771 289.875 57.1562C290.542 57.625 291.385 57.8594 292.406 57.8594Z" fill="#292A33"/>
<defs>
<linearGradient id="paint0_linear_11249_139796" x1="85.2798" y1="225.156" x2="208.119" y2="78.7892" gradientUnits="userSpaceOnUse">
<stop stop-color="#FF2189"/>
<stop offset="1" stop-color="#FF9D00"/>
</linearGradient>
<clipPath id="clip0_11249_139796">
<rect width="103" height="103" fill="white"/>
</clipPath>
</defs>
</svg>
