<svg width="305" height="103" viewBox="0 0 305 103" fill="none" xmlns="http://www.w3.org/2000/svg">
<g clip-path="url(#clip0_11195_154329)">
<mask id="mask0_11195_154329" style="mask-type:alpha" maskUnits="userSpaceOnUse" x="-21" y="0" width="123" height="124">
<path fill-rule="evenodd" clip-rule="evenodd" d="M83.5332 69.5497C94.3877 63.059 101.655 51.1899 101.655 37.6232C101.655 17.0935 85.0128 0.450806 64.483 0.450806C49.9932 0.450806 37.4397 8.7413 31.3073 20.8376L-21 73.1449L29.469 123.614L83.5332 69.5497Z" fill="#795E5E"/>
</mask>
<g mask="url(#mask0_11195_154329)">
<path fill-rule="evenodd" clip-rule="evenodd" d="M63.8607 -2.23935L63.8798 -2.25893C58.0201 -2.14911 52.3599 -0.570405 47.4923 2.51706C43.8418 6.39846 40.2695 10.358 36.8122 14.4261C33.0485 18.8453 29.4179 23.3845 25.9642 28.0746C24.6792 29.8363 23.4133 31.6235 22.2182 33.4815C24.0762 32.2864 25.8635 31.0205 27.6251 29.7355C29.7034 28.2009 31.7552 26.6332 33.7772 25.0358C43.6603 17.2381 52.9205 8.70039 61.8153 -0.157162C62.4985 -0.847723 63.178 -1.54194 63.8607 -2.23935ZM59.4785 20.9579C66.0715 14.2904 72.6035 7.54235 78.9508 0.629042C76.3006 -0.452258 73.5804 -1.23257 70.8565 -1.70398C64.9821 3.76825 59.2199 9.35919 53.52 14.9995C46.9618 21.6172 40.4684 28.3192 34.1597 35.1865C25.0115 45.1316 16.2338 55.4213 8.16364 66.3143C18.0042 59.0209 27.3583 51.1565 36.4014 42.955C44.2829 35.8183 51.9358 28.4335 59.4785 20.9579ZM90.266 7.51647C80.9612 17.8193 71.312 27.8037 61.5463 37.6588C55.6879 43.4725 49.7848 49.2415 43.7956 54.9179C30.7136 67.3221 17.2244 79.2994 2.90793 90.3387C14.1997 75.6953 26.4737 61.9168 39.1819 48.5532C44.5873 42.8722 50.0671 37.2658 55.5879 31.7003C65.1988 22.1788 74.9349 12.763 84.9638 3.67248C86.797 4.79613 88.5713 6.0756 90.266 7.51647ZM99.023 17.6039C97.8864 15.7837 96.5906 14.0258 95.1404 12.3478C84.8311 21.6591 74.8369 31.3181 64.9754 41.0903C59.1584 46.952 53.3828 52.8616 47.6999 58.8573C35.299 71.936 23.332 85.4224 12.2954 99.7287C26.9123 88.4559 40.6717 76.2085 54.0126 63.523C59.7163 58.0949 65.3455 52.5923 70.9338 47.0487C80.4781 37.415 89.9135 27.6594 99.023 17.6039ZM102.108 23.5795C103.211 26.193 104.017 28.8802 104.521 31.5715C98.9912 37.5184 93.3282 43.3453 87.6233 49.1172C80.9404 55.7405 74.1696 62.2953 67.2303 68.6686C57.3502 77.7518 47.1252 86.4574 36.3085 94.4736C43.5665 84.6758 51.3956 75.3646 59.5613 66.3573C66.7263 58.4325 74.1502 50.7405 81.6649 43.1588C88.3682 36.53 95.152 29.9621 102.108 23.5795ZM101.129 54.159C103.812 49.4206 105.148 44.0254 105.166 38.4583C104.364 39.2381 103.566 40.0216 102.774 40.8055C93.816 49.8012 85.1881 59.1665 77.3188 69.1733C75.8116 71.0902 74.3336 73.0299 72.8818 74.9957C71.5935 76.7606 70.3309 78.5446 69.1358 80.4026C70.9938 79.2075 72.781 77.9416 74.5427 76.6567C78.8519 73.4795 83.0401 70.1554 87.123 66.7129C91.923 62.6726 96.5802 58.4698 101.129 54.159Z" fill="url(#paint0_linear_11195_154329)"/>
</g>
</g>
<path d="M130.156 30H137.25L146.75 53.1875H147.125L156.625 30H163.719V62H158.156V40.0156H157.859L149.016 61.9062H144.859L136.016 39.9687H135.719V62H130.156V30ZM180.406 62.4688C178 62.4688 175.922 61.9688 174.172 60.9688C172.432 59.9583 171.094 58.5312 170.156 56.6875C169.219 54.8333 168.75 52.651 168.75 50.1406C168.75 47.6719 169.219 45.5052 170.156 43.6406C171.104 41.7656 172.427 40.3073 174.125 39.2656C175.823 38.2135 177.818 37.6875 180.109 37.6875C181.589 37.6875 182.984 37.9271 184.297 38.4062C185.62 38.875 186.786 39.6042 187.797 40.5937C188.818 41.5833 189.62 42.8437 190.203 44.375C190.786 45.8958 191.078 47.7083 191.078 49.8125V51.5469H171.406V47.7344H185.656C185.646 46.651 185.411 45.6875 184.953 44.8437C184.495 43.9896 183.854 43.3177 183.031 42.8281C182.219 42.3385 181.271 42.0937 180.187 42.0937C179.031 42.0937 178.016 42.375 177.141 42.9375C176.266 43.4896 175.583 44.2187 175.094 45.125C174.615 46.0208 174.37 47.0052 174.359 48.0781V51.4062C174.359 52.8021 174.615 54 175.125 55C175.635 55.9896 176.349 56.75 177.266 57.2812C178.182 57.8021 179.255 58.0625 180.484 58.0625C181.307 58.0625 182.052 57.9479 182.719 57.7187C183.385 57.4792 183.964 57.1302 184.453 56.6719C184.943 56.2135 185.313 55.6458 185.563 54.9687L190.844 55.5625C190.51 56.9583 189.875 58.1771 188.938 59.2188C188.01 60.25 186.823 61.0521 185.375 61.625C183.927 62.1875 182.271 62.4688 180.406 62.4688ZM207.848 38V42.375H194.051V38H207.848ZM197.457 32.25H203.113V54.7812C203.113 55.5417 203.228 56.125 203.457 56.5312C203.697 56.9271 204.009 57.1979 204.395 57.3437C204.78 57.4896 205.207 57.5625 205.676 57.5625C206.03 57.5625 206.353 57.5365 206.645 57.4844C206.947 57.4323 207.176 57.3854 207.332 57.3437L208.285 61.7656C207.983 61.8698 207.551 61.9844 206.988 62.1094C206.436 62.2344 205.759 62.3073 204.957 62.3281C203.54 62.3698 202.264 62.1562 201.129 61.6875C199.993 61.2083 199.092 60.4687 198.426 59.4687C197.77 58.4687 197.447 57.2187 197.457 55.7187V32.25ZM222.945 62.4688C220.539 62.4688 218.461 61.9688 216.711 60.9688C214.971 59.9583 213.633 58.5312 212.695 56.6875C211.758 54.8333 211.289 52.651 211.289 50.1406C211.289 47.6719 211.758 45.5052 212.695 43.6406C213.643 41.7656 214.966 40.3073 216.664 39.2656C218.362 38.2135 220.357 37.6875 222.648 37.6875C224.128 37.6875 225.523 37.9271 226.836 38.4062C228.159 38.875 229.326 39.6042 230.336 40.5937C231.357 41.5833 232.159 42.8437 232.742 44.375C233.326 45.8958 233.617 47.7083 233.617 49.8125V51.5469H213.945V47.7344H228.195C228.185 46.651 227.951 45.6875 227.492 44.8437C227.034 43.9896 226.393 43.3177 225.57 42.8281C224.758 42.3385 223.81 42.0937 222.727 42.0937C221.57 42.0937 220.555 42.375 219.68 42.9375C218.805 43.4896 218.122 44.2187 217.633 45.125C217.154 46.0208 216.909 47.0052 216.898 48.0781V51.4062C216.898 52.8021 217.154 54 217.664 55C218.174 55.9896 218.888 56.75 219.805 57.2812C220.721 57.8021 221.794 58.0625 223.023 58.0625C223.846 58.0625 224.591 57.9479 225.258 57.7187C225.924 57.4792 226.503 57.1302 226.992 56.6719C227.482 56.2135 227.852 55.6458 228.102 54.9687L233.383 55.5625C233.049 56.9583 232.414 58.1771 231.477 59.2188C230.549 60.25 229.362 61.0521 227.914 61.625C226.466 62.1875 224.81 62.4688 222.945 62.4688ZM248.871 62.4688C246.527 62.4688 244.496 61.9531 242.777 60.9219C241.059 59.8906 239.725 58.4479 238.777 56.5937C237.84 54.7396 237.371 52.5729 237.371 50.0937C237.371 47.6146 237.84 45.4427 238.777 43.5781C239.725 41.7135 241.059 40.2656 242.777 39.2344C244.496 38.2031 246.527 37.6875 248.871 37.6875C251.215 37.6875 253.246 38.2031 254.965 39.2344C256.684 40.2656 258.012 41.7135 258.949 43.5781C259.897 45.4427 260.371 47.6146 260.371 50.0937C260.371 52.5729 259.897 54.7396 258.949 56.5937C258.012 58.4479 256.684 59.8906 254.965 60.9219C253.246 61.9531 251.215 62.4688 248.871 62.4688ZM248.902 57.9375C250.173 57.9375 251.236 57.5885 252.09 56.8906C252.944 56.1823 253.579 55.2344 253.996 54.0469C254.423 52.8594 254.637 51.5365 254.637 50.0781C254.637 48.6094 254.423 47.2812 253.996 46.0937C253.579 44.8958 252.944 43.9427 252.09 43.2344C251.236 42.526 250.173 42.1719 248.902 42.1719C247.6 42.1719 246.517 42.526 245.652 43.2344C244.798 43.9427 244.158 44.8958 243.73 46.0937C243.314 47.2812 243.105 48.6094 243.105 50.0781C243.105 51.5365 243.314 52.8594 243.73 54.0469C244.158 55.2344 244.798 56.1823 245.652 56.8906C246.517 57.5885 247.6 57.9375 248.902 57.9375ZM265.172 62V38H270.656V42H270.906C271.344 40.6146 272.094 39.5469 273.156 38.7969C274.229 38.0365 275.453 37.6562 276.828 37.6562C277.141 37.6562 277.49 37.6719 277.875 37.7031C278.271 37.724 278.599 37.7604 278.859 37.8125V43.0156C278.62 42.9323 278.24 42.8594 277.719 42.7969C277.208 42.724 276.714 42.6875 276.234 42.6875C275.203 42.6875 274.276 42.9115 273.453 43.3594C272.641 43.7969 272 44.4062 271.531 45.1875C271.063 45.9687 270.828 46.8698 270.828 47.8906V62H265.172ZM289.094 62.4844C287.573 62.4844 286.203 62.2135 284.984 61.6719C283.776 61.1198 282.818 60.3073 282.109 59.2344C281.411 58.1615 281.063 56.8385 281.063 55.2656C281.063 53.9115 281.313 52.7917 281.813 51.9062C282.313 51.0208 282.995 50.3125 283.859 49.7812C284.724 49.25 285.698 48.849 286.781 48.5781C287.875 48.2969 289.005 48.0937 290.172 47.9687C291.578 47.8229 292.719 47.6927 293.594 47.5781C294.469 47.4531 295.104 47.2656 295.5 47.0156C295.906 46.7552 296.109 46.3542 296.109 45.8125V45.7188C296.109 44.5417 295.76 43.6302 295.063 42.9844C294.365 42.3385 293.359 42.0156 292.047 42.0156C290.661 42.0156 289.563 42.3177 288.75 42.9219C287.948 43.526 287.406 44.2396 287.125 45.0625L281.844 44.3125C282.26 42.8542 282.948 41.6354 283.906 40.6562C284.865 39.6667 286.036 38.9271 287.422 38.4375C288.807 37.9375 290.339 37.6875 292.016 37.6875C293.172 37.6875 294.323 37.8229 295.469 38.0937C296.615 38.3646 297.661 38.8125 298.609 39.4375C299.557 40.0521 300.318 40.8906 300.891 41.9531C301.474 43.0156 301.766 44.3437 301.766 45.9375V62H296.328V58.7031H296.141C295.797 59.3698 295.313 59.9948 294.688 60.5781C294.073 61.151 293.297 61.6146 292.359 61.9687C291.432 62.3125 290.344 62.4844 289.094 62.4844ZM290.563 58.3281C291.698 58.3281 292.682 58.1042 293.516 57.6562C294.349 57.1979 294.99 56.5937 295.438 55.8437C295.896 55.0937 296.125 54.276 296.125 53.3906V50.5625C295.948 50.7083 295.646 50.8437 295.219 50.9687C294.802 51.0937 294.333 51.2031 293.813 51.2969C293.292 51.3906 292.776 51.474 292.266 51.5469C291.755 51.6198 291.313 51.6823 290.938 51.7344C290.094 51.849 289.339 52.0365 288.672 52.2969C288.005 52.5573 287.479 52.9219 287.094 53.3906C286.708 53.849 286.516 54.4427 286.516 55.1719C286.516 56.2135 286.896 57 287.656 57.5312C288.417 58.0625 289.385 58.3281 290.563 58.3281Z" fill="white"/>
<defs>
<linearGradient id="paint0_linear_11195_154329" x1="85.2798" y1="225.156" x2="208.119" y2="78.7892" gradientUnits="userSpaceOnUse">
<stop stop-color="#FF2189"/>
<stop offset="1" stop-color="#FF9D00"/>
</linearGradient>
<clipPath id="clip0_11195_154329">
<rect width="103" height="103" fill="white"/>
</clipPath>
</defs>
</svg>
