<svg xmlns="http://www.w3.org/2000/svg" width="40" height="40" viewBox="0 0 40 40" fill="none"><path d="M40 20C40 8.9543 31.0457 0 20 0C8.9543 0 0 8.9543 0 20C0 31.0457 8.9543 40 20 40C31.0457 40 40 31.0457 40 20Z" fill="#EC1C24"/><path d="M19.9999 39.1903C30.0731 39.1903 38.2391 31.0243 38.2391 20.9511C38.2391 10.8779 30.0731 2.71191 19.9999 2.71191C9.9267 2.71191 1.76074 10.8779 1.76074 20.9511C1.76074 31.0243 9.9267 39.1903 19.9999 39.1903Z" fill="#EC1C24"/><path d="M34.9009 21.055L34.9527 21.0926C34.9527 21.0926 33.8604 9.01165 29.835 2.98999C29.449 2.4109 28.625 2.33086 28.1354 2.8205C26.9819 3.97869 25.094 7.08133 23.2107 12.2602C22.2032 12.0907 21.158 12.006 20.0846 12.006C19.0111 12.006 17.9659 12.0955 16.9584 12.2602C15.0751 7.08133 13.1872 3.97869 12.0384 2.8205C11.5488 2.33086 10.7249 2.4109 10.3388 2.98999C6.31807 9.01165 5.2258 21.0926 5.2258 21.0926L5.27758 21.055C4.92448 22.0907 4.73145 23.1783 4.73145 24.3036C4.73145 28.9881 8.00357 33.0559 12.8152 35.1322C14.981 36.0644 17.4574 36.5964 20.0893 36.5964C22.7211 36.5964 25.1928 36.0644 27.3586 35.1322C32.1749 33.0559 35.4471 28.9834 35.4471 24.2988C35.4471 23.1783 35.254 22.0907 34.9009 21.055Z" fill="white"/><path d="M0.447182 30.7964C0.305939 30.7964 0.164696 30.7258 0.0799505 30.5986C-0.0612924 30.3962 -0.00950337 30.1137 0.197653 29.9772C4.37374 27.1241 7.26451 27.9056 7.38692 27.9386C7.62703 28.0045 7.76357 28.254 7.69295 28.4941C7.62703 28.7295 7.3775 28.8708 7.1421 28.8001C7.10914 28.7907 4.49615 28.1222 0.701419 30.7163C0.621382 30.7728 0.536636 30.7964 0.447182 30.7964Z" fill="#231F20"/><path d="M2.81537 34.2563C2.73062 34.2563 2.65058 34.2328 2.57055 34.1857C2.36339 34.0539 2.30218 33.7761 2.43872 33.569C4.49616 30.3816 7.92365 29.7413 8.0696 29.7177C8.30972 29.6754 8.54512 29.8354 8.58749 30.0803C8.62987 30.3251 8.46979 30.5558 8.22497 30.5981C8.1826 30.6076 5.02817 31.2102 3.19201 34.0539C3.10727 34.181 2.96132 34.2563 2.81537 34.2563Z" fill="#231F20"/><path d="M39.5526 30.7964C39.4678 30.7964 39.3784 30.7728 39.303 30.7163C35.5036 28.1222 32.8859 28.7954 32.8623 28.8001C32.6269 28.8661 32.3774 28.7248 32.3115 28.4894C32.2456 28.254 32.3821 28.0045 32.6175 27.9386C32.7399 27.9056 35.6307 27.1241 39.8068 29.9772C40.0092 30.1184 40.0657 30.3962 39.9245 30.5986C39.835 30.7305 39.6985 30.7964 39.5526 30.7964Z" fill="#231F20"/><path d="M37.1847 34.2563C37.0387 34.2563 36.8928 34.1857 36.808 34.0539C34.9625 31.1914 31.8033 30.6029 31.7751 30.5981C31.5303 30.5558 31.3702 30.3251 31.4126 30.0803C31.4549 29.8354 31.6903 29.6754 31.9304 29.7177C32.0764 29.7413 35.5039 30.3816 37.5613 33.569C37.6932 33.7761 37.6367 34.0539 37.4295 34.1857C37.3542 34.2328 37.2694 34.2563 37.1847 34.2563Z" fill="#231F20"/><path d="M16.2568 23.0795C16.2097 25.3865 14.3312 27.2414 12.0148 27.2414C9.69839 27.2414 7.76807 25.3394 7.76807 22.9947C7.76807 22.3168 7.92814 21.6812 8.21063 21.1162L16.2568 23.0795Z" fill="#A7DFF8"/><path d="M14.8775 22.7403C14.8869 22.8344 14.9057 23.0227 14.9057 23.1169C14.9057 24.6423 13.6675 25.8806 12.1421 25.8806C10.6166 25.8806 9.37842 24.6423 9.37842 23.1169C9.37842 22.5566 9.61853 21.9634 9.90102 21.5303L14.8775 22.7403Z" fill="#231F20"/><path d="M23.4463 23.0795C23.4934 25.3865 25.3719 27.2414 27.6883 27.2414C30.0329 27.2414 31.935 25.3394 31.935 22.9947C31.935 22.3168 31.7749 21.6812 31.4924 21.1162L23.4463 23.0795Z" fill="#A7DFF8"/><path d="M24.8539 22.7026C24.8444 22.7968 24.7974 23.0227 24.7974 23.1169C24.7974 24.6423 26.0356 25.8806 27.561 25.8806C29.0864 25.8806 30.3247 24.6423 30.3247 23.1169C30.3247 22.5566 30.1128 21.9634 29.8303 21.5303L24.8539 22.7026Z" fill="#231F20"/><path d="M20.9885 31.1298C20.5648 31.1298 20.1081 31.0027 19.6656 30.659C18.4744 31.5865 17.1797 30.9462 16.6288 30.4378C16.4452 30.2683 16.4358 29.9858 16.6053 29.8069C16.7748 29.628 17.0573 29.6138 17.2362 29.7833C17.3445 29.8822 18.352 30.7438 19.2983 29.7974C19.3831 29.7127 19.4961 29.6656 19.6138 29.6656H19.7174C19.8351 29.6656 19.9481 29.7127 20.0328 29.7974C20.9791 30.7438 21.9867 29.8869 22.095 29.7833C22.2786 29.6185 22.5611 29.628 22.7258 29.8116C22.8906 29.9905 22.8812 30.273 22.7023 30.4425C22.3539 30.7579 21.7136 31.1298 20.9885 31.1298Z" fill="#231F20"/><path d="M19.6328 29.534C20.353 29.534 20.9369 29.2557 20.9369 28.9125C20.9369 28.5693 20.353 28.291 19.6328 28.291C18.9125 28.291 18.3286 28.5693 18.3286 28.9125C18.3286 29.2557 18.9125 29.534 19.6328 29.534Z" fill="#F7BAD5"/><path d="M7.56592 16.9825C7.56592 16.9825 8.27213 9.15297 10.8804 5.24996C11.1299 4.87802 11.662 4.82152 11.9821 5.14167C12.7307 5.89497 14.129 9.12943 15.3531 12.5051C15.3531 12.5004 13.936 12.8206 7.56592 16.9825Z" fill="#F7BAD5"/><path d="M32.7587 16.9825C32.7587 16.9825 32.0525 9.15297 29.4442 5.24996C29.1947 4.87802 28.6627 4.82152 28.3425 5.14167C27.5939 5.89497 26.1203 9.12943 24.9009 12.5051C24.8962 12.5004 27.1231 12.8206 32.7587 16.9825Z" fill="#F7BAD5"/><path d="M24.5716 15.627C26.0217 10.2033 17.9143 11.1213 18.0979 5.70703C18.1168 8.00929 17.6883 10.4528 19.2561 12.3125C16.7185 12.6091 15.9369 9.21456 15.2495 7.62794C15.033 10.5846 14.4821 15.1844 17.8296 16.4509" fill="#D5E9F8"/><path d="M25.2259 15.6263C26.8737 8.87958 17.966 10.3909 18.1449 4.97656C18.1637 7.27882 17.8483 9.46338 19.4114 11.3231C16.8737 11.6197 15.9133 8.50293 15.2212 6.9163C15.0046 9.87298 16.6665 15.2967 21.2758 16.4502" fill="white"/></svg>