<svg xmlns="http://www.w3.org/2000/svg" xmlns:xlink="http://www.w3.org/1999/xlink" xmlns:serif="http://www.serif.com/" width="100%" height="100%" viewBox="0 0 446 125" version="1.1" xml:space="preserve" style="fill-rule:evenodd;clip-rule:evenodd;stroke-linejoin:round;stroke-miterlimit:2;"><g id="g886" transform="matrix(0.399727,0,0,0.34818,-0.35983,0)"><g id="Layer-1" serif:id="Layer 1"><g id="g8861" serif:id="g886"><path id="path839" d="M328.314,0L8.341,0C6.368,0 4.475,0.842 3.08,2.341C1.684,3.84 0.9,5.874 0.9,7.994L0.9,351.72C0.9,353.84 1.684,355.876 3.08,357.375C4.475,358.872 6.368,359.714 8.341,359.714L328.314,359.714C330.29,359.714 332.181,358.872 333.578,357.375C334.973,355.876 335.758,353.84 335.758,351.72L335.758,7.994C335.758,5.874 334.973,3.84 333.578,2.341C332.181,0.842 330.29,0 328.314,0ZM224.138,231.816C224.138,233.937 223.354,235.97 221.958,237.469C220.563,238.968 218.67,239.81 216.697,239.81L119.96,239.81C117.987,239.81 116.094,238.968 114.699,237.469C113.303,235.97 112.519,233.937 112.519,231.816L112.519,127.899C112.519,125.779 113.303,123.745 114.699,122.246C116.094,120.747 117.987,119.905 119.96,119.905L216.697,119.905C218.67,119.905 220.563,120.747 221.958,122.246C223.354,123.745 224.138,125.779 224.138,127.899L224.138,231.816Z" style="fill:white;fill-rule:nonzero;"/><path id="path841" d="M998.167,119.92L901.429,119.92C897.321,119.92 893.988,123.498 893.988,127.913L893.988,231.831C893.988,236.246 897.321,239.825 901.429,239.825L998.167,239.825C1002.28,239.825 1005.61,236.246 1005.61,231.831L1005.61,127.913C1005.61,123.498 1002.28,119.92 998.167,119.92Z" style="fill:white;fill-rule:nonzero;"/><path id="path843" d="M886.572,0.006L789.837,0.006C785.727,0.006 782.396,3.585 782.396,7.999L782.396,111.917C782.396,116.332 785.727,119.911 789.837,119.911L886.572,119.911C890.683,119.911 894.016,116.332 894.016,111.917L894.016,7.999C894.016,3.585 890.683,0.006 886.572,0.006Z" style="fill:white;fill-rule:nonzero;"/><path id="path845" d="M1109.85,0.006L1013.11,0.006C1009,0.006 1005.67,3.585 1005.67,7.999L1005.67,111.917C1005.67,116.332 1009,119.911 1013.11,119.911L1109.85,119.911C1113.96,119.911 1117.29,116.332 1117.29,111.917L1117.29,7.999C1117.29,3.585 1113.96,0.006 1109.85,0.006Z" style="fill:white;fill-rule:nonzero;"/><path id="path847" d="M886.572,239.822L789.837,239.822C785.727,239.822 782.396,243.401 782.396,247.815L782.396,351.734C782.396,356.148 785.727,359.728 789.837,359.728L886.572,359.728C890.683,359.728 894.016,356.148 894.016,351.734L894.016,247.815C894.016,243.401 890.683,239.822 886.572,239.822Z" style="fill:white;fill-rule:nonzero;"/><path id="path849" d="M1109.85,239.822L1013.11,239.822C1009,239.822 1005.67,243.401 1005.67,247.815L1005.67,351.734C1005.67,356.148 1009,359.728 1013.11,359.728L1109.85,359.728C1113.96,359.728 1117.29,356.148 1117.29,351.734L1117.29,247.815C1117.29,243.401 1113.96,239.822 1109.85,239.822Z" style="fill:white;fill-rule:nonzero;"/><path id="path851" d="M719.011,0.006L622.276,0.006C618.165,0.006 614.832,3.585 614.832,7.999L614.832,111.917C614.832,116.332 618.165,119.911 622.276,119.911L719.011,119.911C723.121,119.911 726.452,116.332 726.452,111.917L726.452,7.999C726.452,3.585 723.121,0.006 719.011,0.006Z" style="fill:white;fill-rule:nonzero;"/><path id="path853" d="M719.011,239.822L622.276,239.822C618.165,239.822 614.832,243.401 614.832,247.815L614.832,351.734C614.832,356.148 618.165,359.728 622.276,359.728L719.011,359.728C723.121,359.728 726.452,356.148 726.452,351.734L726.452,247.815C726.452,243.401 723.121,239.822 719.011,239.822Z" style="fill:white;fill-rule:nonzero;"/><path id="path855" d="M614.801,127.809C614.801,125.689 614.015,123.655 612.621,122.157C611.226,120.657 609.333,119.815 607.36,119.815L503.181,119.815L503.181,7.994C503.181,5.874 502.396,3.84 501.001,2.341C499.606,0.842 497.713,0 495.74,0L399.005,0C397.029,0 395.138,0.842 393.741,2.341C392.346,3.84 391.561,5.874 391.561,7.994L391.561,351.541C391.561,353.662 392.346,355.694 393.741,357.194C395.138,358.693 397.029,359.535 399.005,359.535L495.74,359.535C497.713,359.535 499.606,358.693 501.001,357.194C502.396,355.694 503.181,353.662 503.181,351.541L503.181,239.72L607.36,239.72C609.333,239.72 611.226,238.878 612.621,237.379C614.015,235.88 614.801,233.846 614.801,231.726L614.801,127.809Z" style="fill:white;fill-rule:nonzero;"/></g></g></g></svg>