<svg width="14" height="14" viewBox="0 0 24 24" fill="none" xmlns="http://www.w3.org/2000/svg"><g clip-path="url(#clip0_8_14)"><path d="M14.4999 10.0002C14.4999 11.3256 13.3805 12.4003 11.9999 12.4003V14.8003C14.7611 14.8003 16.9999 12.651 16.9999 10.0002C16.9999 7.34948 14.7611 5.2002 11.9999 5.2002C11.0897 5.2002 10.2348 5.43358 9.49988 5.84281C8.00507 6.67212 6.99988 8.2233 6.99988 10.0002V22.0004L9.24772 24.1583L9.49988 24.4004V10.0002C9.49988 8.67486 10.6193 7.60023 11.9999 7.60023C13.3805 7.60023 14.4999 8.67486 14.4999 10.0002Z" fill="#E6DAFE"/><path d="M12 0C10.1784 0 8.47105 0.467847 7 1.28522C6.05811 1.80734 5.21461 2.47275 4.5 3.25106C2.94414 4.94333 2 7.16643 2 9.6001V16.8002L4.5 19.2002V9.6001C4.5 7.4682 5.46563 5.5523 7 4.23343C7.72139 3.61469 8.5683 3.12622 9.5 2.81144C10.2813 2.54439 11.1237 2.40003 12 2.40003C16.1418 2.40003 19.5 5.62395 19.5 9.6001C19.5 13.5763 16.1418 16.8002 12 16.8002V19.2002C17.5235 19.2002 22 14.9017 22 9.6001C22 4.29856 17.5235 0 12 0Z" fill="#E6DAFE"/></g><defs><clipPath id="clip0_8_14"><rect width="20" height="24" fill="white" transform="translate(2)"/></clipPath></defs></svg>