<svg xmlns="http://www.w3.org/2000/svg" viewBox="0 0 16 16"><g xmlns="http://www.w3.org/2000/svg" clip-path="url(#clip0_33328_22731)"><path d="M8 16C12.4183 16 16 12.4183 16 8C16 3.58172 12.4183 0 8 0C3.58172 0 0 3.58172 0 8C0 12.4183 3.58172 16 8 16Z" fill="#110F24"/><path d="M8.01274 10.4176V9.67678C8.32137 9.61692 8.62597 9.53783 8.92474 9.43998C9.44105 9.22988 9.86763 8.84584 10.1306 8.35436C10.3936 7.86287 10.4764 7.2949 10.3647 6.74878C10.2494 6.15793 9.91768 5.63141 9.43448 5.27235C8.95128 4.9133 8.35144 4.74757 7.75244 4.80763C7.15344 4.86769 6.59845 5.14921 6.19615 5.59705C5.79386 6.0449 5.57325 6.6268 5.57754 7.22878C5.56634 8.18878 5.57754 9.14878 5.57754 10.0992V10.4C5.29914 10.1296 5.04634 9.88638 4.79674 9.63838C4.77722 9.60334 4.76938 9.56299 4.77434 9.52318C4.78234 8.64158 4.75034 7.76318 4.80634 6.87838C4.90234 5.38878 6.16954 4.14558 7.65754 4.01438C9.57754 3.84638 11.1215 5.19998 11.2175 7.12478C11.3039 8.85918 9.81594 10.4288 8.07674 10.4352C8.05498 10.431 8.03359 10.4251 8.01274 10.4176Z" fill="#E8D9FF"/><path d="M7.14877 12C6.90877 11.7568 6.66877 11.52 6.43197 11.2704C6.40055 11.2232 6.38539 11.167 6.38877 11.1104C6.38877 9.8096 6.37757 8.5088 6.38877 7.208C6.38688 6.88987 6.47932 6.57831 6.65439 6.31268C6.82947 6.04704 7.07934 5.83925 7.37245 5.71554C7.66555 5.59183 7.98874 5.55776 8.3012 5.61762C8.61365 5.67748 8.90137 5.82859 9.12799 6.05187C9.35462 6.27515 9.51 6.56058 9.5745 6.87211C9.63901 7.18364 9.60975 7.5073 9.49042 7.80221C9.37109 8.09713 9.16704 8.35006 8.90404 8.52908C8.64104 8.70809 8.33089 8.80515 8.01277 8.808V8.0848C8.21273 7.996 8.40261 7.88604 8.57917 7.7568C8.70267 7.63227 8.78033 7.46957 8.79951 7.29523C8.81869 7.1209 8.77824 6.94521 8.68477 6.7968C8.5961 6.65242 8.46388 6.53992 8.30717 6.4755C8.15046 6.41109 7.97734 6.3981 7.81277 6.4384C7.6396 6.47745 7.48476 6.57398 7.37348 6.71228C7.2622 6.85058 7.20104 7.0225 7.19997 7.2C7.19997 8.1216 7.19997 9.0448 7.19997 9.968V11.968L7.14877 12Z" fill="#E8D9FF"/></g></svg>