<svg viewBox="0 0 16 16" xmlns="http://www.w3.org/2000/svg" fill="none" class="size-full p-[0.2rem]"><path fill="#1A2138" d="m1 4 7-4 7 4v8l-7 4-7-4V4Z"/><path fill="url(#a)" d="M14.206 6.005v5.579L8 15.166l-6.209-3.582V4.416L8 .831l4.77 2.755.72-.416L8 0 1.071 4v8L8 16l6.929-4V5.59l-.723.415Z"/><path fill="url(#b)" d="M6.263 11.587H5.224V8.106h3.461a1.246 1.246 0 0 0 1.14-1.715 1.187 1.187 0 0 0-.271-.397 1.2 1.2 0 0 0-.869-.363h-3.46V4.57h3.464a2.305 2.305 0 0 1 2.29 2.292c.005.464-.137.918-.404 1.298a2.256 2.256 0 0 1-.997.817c-.4.127-.819.19-1.239.187H6.263v2.422Z"/><path fill="url(#c)" d="M10.956 11.5H9.744L8.81 9.87c.37-.022.734-.096 1.083-.22l1.063 1.85Z"/><path fill="url(#d)" d="m13.482 4.845.717.398.716-.398v-.84l-.716-.416-.717.415v.841Z"/><defs><linearGradient id="a" x1="14.917" x2=".224" y1="4.005" y2="9.881" gradientUnits="userSpaceOnUse"><stop stop-color="#C200FB"/><stop offset=".49" stop-color="#3772FF"/><stop offset=".49" stop-color="#3773FE"/><stop offset="1" stop-color="#5AC4BE"/></linearGradient><linearGradient id="b" x1="14.916" x2=".224" y1="4.005" y2="9.881" gradientUnits="userSpaceOnUse"><stop stop-color="#C200FB"/><stop offset=".49" stop-color="#3772FF"/><stop offset=".49" stop-color="#3773FE"/><stop offset="1" stop-color="#5AC4BE"/></linearGradient><linearGradient id="c" x1="14.916" x2=".224" y1="4.005" y2="9.881" gradientUnits="userSpaceOnUse"><stop stop-color="#C200FB"/><stop offset=".49" stop-color="#3772FF"/><stop offset=".49" stop-color="#3773FE"/><stop offset="1" stop-color="#5AC4BE"/></linearGradient><linearGradient id="d" x1="14.917" x2=".224" y1="4.005" y2="9.881" gradientUnits="userSpaceOnUse"><stop stop-color="#C200FB"/><stop offset=".49" stop-color="#3772FF"/><stop offset=".49" stop-color="#3773FE"/><stop offset="1" stop-color="#5AC4BE"/></linearGradient></defs></svg>