<svg width="45" height="36" viewBox="0 0 45 36" fill="none" xmlns="http://www.w3.org/2000/svg"><path d="M22.5168 35.1592C2.73168 34.7517 0.858538 27.4743 0.858539 17.9946C0.858539 8.51478 3.02436 1.03362 22.5168 0.829908C42.0092 0.626194 44.175 8.51478 44.175 17.9946C44.175 27.4743 42.3019 35.5667 22.5168 35.1592Z" fill="#6DC4FE"/><path fill-rule="evenodd" clip-rule="evenodd" d="M16.478 29.199C16.473 29.199 16.4681 29.199 16.4632 29.199C11.2701 29.199 7.0603 24.9892 7.0603 19.7962C7.0603 15.2944 10.2239 11.5315 14.4493 10.6095C16.5816 7.63215 20.0699 5.69202 24.0115 5.69202C30.0868 5.69202 35.0856 10.3015 35.7013 16.2139C37.3202 17.5602 38.3508 19.5896 38.3508 21.8597C38.3508 25.9132 35.0648 29.1991 31.0114 29.1991C30.998 29.1991 30.9847 29.1991 30.9713 29.199H24.0621C24.0452 29.1991 24.0283 29.1991 24.0115 29.1991C23.9946 29.1991 23.9777 29.1991 23.9608 29.199H16.478ZM21.5431 15.2129C22.6576 15.2129 23.5611 14.3094 23.5611 13.1949C23.5611 12.0804 22.6576 11.1769 21.5431 11.1769C20.4286 11.1769 19.5252 12.0804 19.5252 13.1949C19.5252 14.3094 20.4286 15.2129 21.5431 15.2129ZM29.6143 15.2129C30.7287 15.2129 31.6322 14.3094 31.6322 13.1949C31.6322 12.0804 30.7287 11.1769 29.6143 11.1769C28.4998 11.1769 27.5963 12.0804 27.5963 13.1949C27.5963 14.3094 28.4998 15.2129 29.6143 15.2129ZM29.2535 17.0402C30.0196 16.9324 30.6662 16.8414 31.0556 16.8414C32.0107 16.8414 32.7852 17.6158 32.7852 18.571C32.7852 22.551 29.5587 25.7775 25.5787 25.7775C21.5987 25.7775 18.3722 22.551 18.3722 18.571C18.3722 17.6158 19.1466 16.8414 20.1018 16.8414C20.4911 16.8414 21.1377 16.9324 21.9039 17.0402C23.0174 17.1969 24.3834 17.3891 25.5787 17.3891C26.774 17.3891 28.1399 17.1969 29.2535 17.0402ZM25.5784 24.3362C27.1578 24.3362 28.5889 23.701 29.63 22.6722H29.6295C30.0928 22.2143 29.9411 21.4313 29.3432 21.1732C28.3332 20.7373 27.0173 20.4735 25.5782 20.4735C24.139 20.4735 22.8231 20.7373 21.8131 21.1732C21.2152 21.4313 21.0635 22.2146 21.5268 22.6722C22.5682 23.701 23.999 24.3362 25.5784 24.3362Z" fill="#F7F9FB"/></svg>