<svg width="129" height="30" viewBox="-1 -1 129 30" fill="none" id="svg1279530580_1804"><path d="M10.8319 0.888672H26.5121L23.9331 5.68868H8.25293L10.8319 0.888672Z" fill="#0F140E"/><path d="M8.14831 20.0887H21.3527L18.7737 24.8887H5.56934L8.14831 20.0887Z" fill="#0F140E"/><path d="M5.74427 10.4887H26.513L23.9678 15.2887H3.19908L5.74427 10.4887Z" fill="#0F140E"/><path d="M2.57897 5.68881L8.25293 5.68868L5.67374 10.4888H0L2.57897 5.68881Z" fill="#0F140E"/><path d="M23.9327 15.2887H28.9875L26.4085 20.0887H21.3537L23.9327 15.2887Z" fill="#0F140E"/><path d="M49.598 15.8831V20.1392L46.5691 21.8887H39.7801V19.617H47.0652V16.4053H42.809L39.7801 14.6559V10.5825L42.809 8.83307H49.3368V11.1047H42.3129V14.1336H46.5691L49.598 15.8831Z" fill="#0F140E"/><path d="M64.8765 20.2698L61.8476 22.0192H56.8081L53.7792 20.2698V10.452L56.8081 8.70252H61.8476L64.8765 10.452V20.2698ZM56.312 10.9742V19.7476H62.3437V10.9742H56.312Z" fill="#0F140E"/><path d="M72.0822 21.8887L69.0533 20.1392V2.82749H71.586V19.617H74.7194V21.8887H72.0822Z" fill="#0F140E"/><path d="M79.3511 16.5359V19.7476H84.5994V16.5359H79.3511ZM79.8472 22.0192L76.8183 20.2698V16.0137L79.8472 14.2642H84.5994V11.1047H78.1238V8.83307H84.1033L87.1322 10.5825V22.0192H86.4533L84.5994 20.9487L82.7455 22.0192H79.8472Z" fill="#0F140E"/><path d="M92.5152 27.1109L94.7869 21.2881L89.7474 8.83307H92.2802L95.988 18.1287H96.0402L99.7219 8.83307H102.255L94.9958 27.1109H92.5152Z" fill="#0F140E"/><path d="M115.168 19.617V21.8887H107.883L104.854 20.1392V10.452L107.883 8.70252H112.139L115.168 10.452V16.2487H107.387V19.617H115.168ZM107.387 10.9742V13.977H112.635V10.9742H107.387Z" fill="#0F140E"/><path d="M126.623 11.1047H121.871V21.8887H119.338V8.83307H121.244L121.871 9.90363L123.724 8.83307H126.623V11.1047Z" fill="#0F140E"/></svg>