<svg xmlns="http://www.w3.org/2000/svg" xmlns:xlink="http://www.w3.org/1999/xlink" id="_图层_2" viewBox="0 0 173.33 26"><defs><style>.cls-1{fill:none;}.cls-2,.cls-3{fill:#1ae5a1;}.cls-4{fill:#ebf7fd;}.cls-3{fill-rule:evenodd;}.cls-5{clip-path:url(#clippath);}</style><clipPath id="clippath"><rect class="cls-1" width="173.33" height="26"/></clipPath></defs><g id="_图层_1-2"><g class="cls-5"><path class="cls-2" d="M12.57,8.12c.65.65.65,1.62,0,2.27-.65.65-1.73.65-2.38,0-.76-.65-.76-1.62,0-2.27.65-.65,1.73-.65,2.38,0Z"/><path class="cls-2" d="M8.56,11.92c.65.65.65,1.62,0,2.27-.65.65-1.73.65-2.38,0-.76-.54-.76-1.62-.11-2.27.65-.65,1.73-.65,2.49,0Z"/><path class="cls-2" d="M12.57,15.82c.65.65.65,1.63,0,2.27-.65.65-1.73.65-2.38,0-.65-.65-.65-1.62,0-2.27.65-.65,1.73-.65,2.38,0Z"/><path class="cls-2" d="M16.57,14.3c.65-.65.65-1.62,0-2.28-.65-.65-1.73-.65-2.38,0-.65.65-.65,1.62,0,2.28.65.54,1.73.54,2.38,0Z"/><path class="cls-3" d="M17.98,0C8.88.33-7.69,8.45,4.01,17.66c2.06,1.62.65,3.36-.43,4.77-.11.22-.32.32-.43.54-.97,1.19-.54,3.14,1.3,3.03,9.1-.32,25.67-8.45,13.97-17.66-2.06-1.62-.65-3.36.54-4.87.11-.11.22-.33.33-.43C20.37,1.62,19.72-.11,17.98,0ZM3.57,14.62c-.87-.87-.87-2.27,0-3.03l6.17-5.85c.87-.87,2.38-.87,3.25,0l6.17,5.85c.87.87.87,2.28,0,3.03l-6.17,5.85c-.87.87-2.38.87-3.25,0l-6.17-5.85Z"/><path class="cls-4" d="M39.87,21.45c-1.41,0-2.82-.22-4.12-.65-1.41-.43-2.6-1.19-3.57-2.06l2.06-2.38c.97.87,1.95,1.41,2.92,1.73.97.33,1.95.54,3.03.54.76,0,1.41-.11,1.95-.22.54-.22.97-.43,1.19-.65.33-.33.43-.65.43-1.08,0-.54-.22-.97-.65-1.19-.43-.32-1.19-.54-2.27-.65l-3.47-.54c-1.52-.22-2.6-.65-3.36-1.41-.76-.76-1.19-1.62-1.19-2.82,0-.98.33-1.84.87-2.6.54-.76,1.41-1.3,2.38-1.62,1.08-.43,2.28-.54,3.68-.54,1.3,0,2.6.22,3.79.54,1.3.43,2.38.97,3.36,1.62l-1.95,2.49c-1.84-1.3-3.68-1.95-5.52-1.95-.65,0-1.19.11-1.73.22-.43.11-.87.32-1.08.65-.22.22-.33.54-.33.97s.22.87.54,1.08c.43.22.97.43,1.95.54l3.36.54c1.73.22,3.03.76,3.9,1.52.87.76,1.3,1.73,1.3,2.92,0,.98-.33,1.95-.87,2.71-.65.76-1.52,1.3-2.6,1.73-1.19.32-2.49.54-4.01.54Z"/><path class="cls-4" d="M55.79,21.45c-1.3,0-2.49-.32-3.57-.87-1.08-.54-1.84-1.3-2.49-2.17-.65-.97-.97-1.95-.97-3.14s.32-2.17.87-3.14c.65-.98,1.41-1.62,2.49-2.17,1.08-.54,2.28-.87,3.58-.87s2.49.32,3.57.87c1.08.54,1.95,1.3,2.49,2.17.65.98.98,1.95.98,3.14s-.33,2.17-.98,3.14c-.65.98-1.41,1.62-2.49,2.17-.87.65-2.06.87-3.47.87ZM55.79,18.74c.65,0,1.3-.11,1.84-.43.54-.33.98-.76,1.3-1.19.32-.54.54-1.08.54-1.73s-.22-1.19-.54-1.73c-.33-.54-.76-.97-1.3-1.19-.54-.32-1.19-.43-1.84-.43s-1.3.11-1.84.43c-.54.32-.98.76-1.3,1.19-.32.54-.43,1.08-.43,1.73s.11,1.19.43,1.73c.33.54.76.98,1.3,1.19.65.32,1.19.43,1.84.43Z"/><path class="cls-4" d="M64.89,21.23V5.42l3.47-.54v16.36h-3.47Z"/><path class="cls-4" d="M77.24,21.45c-1.3,0-2.49-.22-3.47-.76-1.08-.54-1.84-1.3-2.49-2.17-.65-.98-.87-1.95-.87-3.14s.32-2.17.87-3.14c.65-.98,1.41-1.62,2.49-2.17,1.08-.54,2.17-.87,3.47-.87,1.08,0,2.06.22,2.93.54.97.32,1.73.87,2.49,1.52l-2.06,2.06c-.43-.43-.97-.87-1.52-1.08-.54-.22-1.08-.33-1.73-.33s-1.3.11-1.84.43c-.54.33-.97.76-1.3,1.19-.32.54-.43,1.08-.43,1.73s.11,1.19.43,1.73c.33.54.76.97,1.3,1.19.54.32,1.19.43,1.84.43.54,0,1.08-.11,1.62-.33.54-.22.97-.54,1.52-.98l2.06,1.95c-.65.65-1.52,1.19-2.38,1.52-.87.54-1.84.65-2.93.65Z"/><path class="cls-4" d="M88.61,21.45c-.97,0-1.73-.11-2.49-.43-.76-.33-1.3-.76-1.73-1.3-.43-.54-.65-1.19-.65-1.84,0-1.08.43-2.06,1.41-2.6.97-.65,2.27-.98,3.9-.98,1.19,0,2.17.11,3.25.43v-.87c0-.65-.22-1.19-.65-1.52-.43-.33-1.19-.54-2.06-.54-.54,0-1.19.11-1.73.22-.65.11-1.41.43-2.17.76l-1.3-2.28c1.08-.43,2.06-.76,2.93-.97.97-.22,1.95-.32,2.82-.32,1.73,0,3.14.43,4.12,1.19.97.76,1.52,1.84,1.52,3.25v7.69h-3.36v-.87c-.54.33-1.08.65-1.73.76-.65.11-1.41.22-2.06.22ZM87.1,17.77c0,.43.22.87.65,1.08.43.22.97.43,1.73.43.54,0,1.08-.11,1.62-.22.43-.11.87-.32,1.3-.54v-1.73c-.43-.11-.87-.22-1.3-.32-.43-.11-.97-.11-1.41-.11-.76,0-1.41.11-1.84.43-.54.22-.76.54-.76.97Z"/><path class="cls-4" d="M103.24,21.45c-1.19,0-2.28-.11-3.36-.43-.97-.32-1.95-.65-2.71-1.19l1.73-2.06c.76.43,1.52.76,2.17.97.65.22,1.41.33,2.06.33.76,0,1.41-.11,1.84-.33.43-.22.65-.54.65-.97,0-.33-.11-.54-.43-.76-.22-.22-.65-.32-1.19-.43l-2.49-.33c-1.3-.22-2.27-.54-2.92-1.08-.65-.54-.97-1.41-.97-2.27,0-.76.22-1.41.65-1.95.43-.54,1.08-.97,1.84-1.3.87-.32,1.84-.43,2.93-.43.97,0,1.84.11,2.82.32.87.22,1.73.65,2.6,1.08l-1.62,2.06c-.76-.43-1.41-.65-2.06-.87-.65-.22-1.3-.32-1.95-.32s-1.08.11-1.52.32c-.33.22-.54.54-.54.87s.11.54.43.76c.22.22.76.32,1.41.43l2.49.32c1.3.22,2.28.54,3.03,1.08.65.54.97,1.3.97,2.27,0,.76-.22,1.41-.76,2.06-.54.54-1.19,1.08-2.06,1.41-.98.33-1.95.43-3.03.43Z"/><path class="cls-4" d="M110.61,21.23v-11.81h3.47v11.81h-3.47ZM112.34,8.02c-.54,0-.97-.22-1.41-.54-.43-.32-.54-.76-.54-1.3s.22-.87.54-1.3c.43-.32.87-.54,1.41-.54s.98.22,1.41.54c.43.32.54.76.54,1.3,0,.43-.22.87-.54,1.3-.43.43-.87.54-1.41.54Z"/><path class="cls-4" d="M116.78,21.23v-11.81h3.47v.97c.97-.76,2.17-1.19,3.68-1.19.97,0,1.95.22,2.71.65.76.43,1.41.97,1.84,1.62.43.65.65,1.52.65,2.49v7.37h-3.47v-6.82c0-.76-.22-1.41-.76-1.84-.43-.43-1.19-.65-1.95-.65-.54,0-1.08.11-1.52.33-.43.22-.87.43-1.08.87v8.12h-3.58v-.11Z"/><path class="cls-4" d="M138.01,21.45c-1.3,0-2.49-.32-3.58-.87-1.08-.54-1.84-1.3-2.49-2.17-.65-.97-.98-1.95-.98-3.14s.32-2.17.87-3.14c.65-.98,1.41-1.62,2.49-2.17,1.08-.54,2.28-.87,3.58-.87s2.49.32,3.57.87c1.08.54,1.95,1.3,2.49,2.17.65.98.98,1.95.98,3.14s-.33,2.17-.98,3.14c-.65.98-1.41,1.62-2.49,2.17-.98.65-2.17.87-3.47.87ZM138.01,18.74c.65,0,1.3-.11,1.84-.43.54-.33.97-.76,1.3-1.19.32-.54.54-1.08.54-1.73s-.22-1.19-.54-1.73c-.33-.54-.76-.97-1.3-1.19-.54-.32-1.19-.43-1.84-.43s-1.3.11-1.84.43c-.54.32-.97.76-1.3,1.19-.32.54-.43,1.08-.43,1.73s.11,1.19.43,1.73c.33.54.76.98,1.3,1.19.54.32,1.19.43,1.84.43Z"/><path class="cls-4" d="M148.41,21.45c-.54,0-.98-.22-1.41-.54-.43-.32-.65-.76-.65-1.3s.22-.98.65-1.3c.43-.33.87-.54,1.41-.54s.98.22,1.41.54c.43.32.65.76.65,1.3s-.22.98-.65,1.3c-.43.43-.87.54-1.41.54Z"/><path class="cls-4" d="M152.85,21.23v-11.81h3.47v11.81h-3.47ZM154.59,8.02c-.54,0-.98-.22-1.41-.54-.43-.32-.54-.76-.54-1.3s.22-.87.54-1.3c.43-.32.87-.54,1.41-.54s.97.22,1.41.54c.43.32.54.76.54,1.3,0,.43-.22.87-.54,1.3-.43.43-.87.54-1.41.54Z"/><path class="cls-4" d="M165.42,21.45c-1.3,0-2.49-.32-3.58-.87-1.08-.54-1.84-1.3-2.49-2.17-.65-.97-.97-1.95-.97-3.14s.32-2.17.87-3.14c.65-.98,1.41-1.62,2.49-2.17,1.08-.54,2.27-.87,3.57-.87s2.49.32,3.57.87c1.08.54,1.95,1.3,2.49,2.17.65.98.97,1.95.97,3.14s-.32,2.17-.97,3.14c-.65.98-1.41,1.62-2.49,2.17-.98.65-2.17.87-3.47.87ZM165.42,18.74c.65,0,1.3-.11,1.84-.43.54-.33.98-.76,1.3-1.19.32-.54.54-1.08.54-1.73s-.22-1.19-.54-1.73c-.32-.54-.76-.97-1.3-1.19-.54-.32-1.19-.43-1.84-.43s-1.3.11-1.84.43c-.54.32-.98.76-1.3,1.19-.32.54-.43,1.08-.43,1.73s.11,1.19.43,1.73c.32.54.76.98,1.3,1.19.54.32,1.08.43,1.84.43Z"/></g></g></svg>