<svg width="110" height="83" viewBox="0 0 110 83" fill="none" id="svg422956594_5024"><path d="M9.08056 79.3408C0.932598 79.3408 0 75.8288 0 73.782V73.5513H5.07775C5.13911 74.4913 5.68149 76.0056 9.69411 76.0056H9.98617C14.0822 76.0056 14.5436 75.1908 14.5436 74.3539C14.5436 73.4556 14.0528 72.8814 10.4672 72.7881L7.7921 72.7243C1.983 72.5574 0.208602 70.594 0.208602 68.1693V67.9803C0.208602 65.6611 1.58788 63.2388 8.67071 63.2388H10.1113C17.474 63.2388 19.1404 65.8083 19.1404 68.1472V68.3582H14.0822C13.9792 67.7717 13.665 66.498 9.59104 66.498H9.25482C5.49497 66.498 5.22256 67.1655 5.22256 67.8355C5.22256 68.5055 5.63976 69.1092 8.81796 69.173L11.4292 69.2148C17.2801 69.3178 19.641 70.7388 19.641 73.8311V74.1256C19.641 76.6952 18.3452 79.3285 10.531 79.3285L9.08056 79.3408Z" fill="white"/><path d="M38.3983 67.8256V82.9975H33.7354V77.5222C33.2764 78.0449 31.772 79.3408 28.2404 79.3408H28.071C22.8264 79.3408 20.863 76.6853 20.863 73.5513V73.1537C20.863 70.167 22.743 67.5557 27.8207 67.5557H28.1128C31.5806 67.5557 33.2322 68.9129 33.7746 69.3522C33.9906 68.8688 34.125 68.3529 34.1722 67.8256H38.3983ZM33.7354 73.3648C33.7354 71.8923 32.2628 70.5007 29.4724 70.5007H29.3693C26.4439 70.5007 25.6291 71.9217 25.6291 73.3844V73.4678C25.6291 74.8275 26.5691 76.3933 29.411 76.3933H29.5166C32.3144 76.3933 33.7354 74.8692 33.7354 73.4482V73.3648Z" fill="white"/><path d="M56.1179 79.0684H51.5015V77.132C50.9371 77.6547 49.3075 79.326 46.0458 79.326H45.879C42.0136 79.326 40.5312 76.943 40.5312 74.8349V67.833H45.231V73.3918C45.231 75.0631 46.1317 76.192 48.1147 76.192C50.1419 76.192 51.4598 74.9797 51.4598 73.1415V67.833H56.1228L56.1179 79.0684Z" fill="white"/><path d="M63.142 79.2768H62.8695C59.0876 79.2768 57.6445 77.522 57.6445 75.5955V75.4482C57.6445 73.3793 59.0042 72.3976 62.3664 72.0835L67.508 71.5927C68.0307 71.5313 68.2197 71.3644 68.2197 71.0086C68.2197 70.5914 68.0307 70.0882 65.2943 70.0882H65.1888C62.4106 70.0882 62.3051 70.9668 62.2437 71.3423H57.9194V71.3006C57.9194 69.8281 58.3587 67.4966 64.6268 67.4966H65.7753C72.2961 67.4966 72.7134 69.5041 72.7134 71.1337V75.4384C72.7134 75.7722 72.8189 76.0029 73.2999 76.0029H73.9036V79.0534H70.1217C69.2235 79.0534 68.5142 78.5626 68.3473 77.5073C67.8638 78.1282 66.4429 79.2768 63.142 79.2768ZM68.2197 73.718L63.7678 74.4076C62.5775 74.5966 62.0744 74.8052 62.0744 75.4531V75.4752C62.0744 76.0789 62.5358 76.7489 64.1236 76.7489C66.6097 76.7489 68.2197 75.4114 68.2197 74.0739V73.718Z" fill="white"/><path d="M92.249 63.521V79.0684H87.6106V77.3505C87.2964 77.7898 85.6668 79.3359 82.0518 79.3359H81.7818C76.7875 79.3359 74.6965 76.7026 74.6965 73.5465V73.1489C74.6965 70.14 76.5568 67.5508 81.5928 67.5508H81.9266C85.4386 67.5508 87.0461 68.8663 87.5713 69.3252V63.5161L92.249 63.521ZM87.5688 73.3845C87.5688 71.9119 86.0644 70.5008 83.3059 70.5008H83.2004C80.2749 70.5008 79.4601 71.9218 79.4601 73.3845V73.4679C79.4601 74.8275 80.5056 76.3737 83.2445 76.3737H83.3476C86.1061 76.3737 87.5688 74.9012 87.5688 73.4679V73.3845Z" fill="white"/><path d="M101.025 79.3827C94.4652 79.3827 93.7952 76.8328 93.7952 75.3897V75.2645H98.603C98.603 75.6842 98.7698 76.791 101.487 76.791H101.528C104.12 76.791 104.432 76.2683 104.432 75.7259V75.6842C104.432 75.0976 104.162 74.7639 101.977 74.7025L99.97 74.6608C95.0812 74.5577 93.9105 72.803 93.9105 71.1513V71.0261C93.9105 69.291 94.8308 67.5142 101.015 67.5142H101.85C107.534 67.5142 108.893 69.291 108.893 71.0457V71.193H104.152C104.088 70.7758 103.88 70.0444 101.374 70.0444H101.352C99.1159 70.0444 98.6766 70.3144 98.6766 70.8789V70.9206C98.6766 71.4114 99.0963 71.7575 101.038 71.8188L103.045 71.8606C108.226 71.9661 109.313 73.1367 109.313 75.3922V75.5173C109.313 77.5862 108.101 79.3852 101.897 79.3852L101.025 79.3827Z" fill="white"/><path d="M76.0535 12.9986L65.1887 2.13386C65.0979 2.04305 65.0022 1.95714 64.904 1.87615C64.2119 1.30867 63.3448 0.998239 62.4498 0.997559H47.084C46.189 0.997833 45.3217 1.30831 44.6298 1.87615C44.5303 1.95685 44.4353 2.04288 44.3451 2.13386L33.4705 12.9986C33.1098 13.3588 32.8236 13.7864 32.6282 14.2572C32.4328 14.728 32.3321 15.2327 32.3318 15.7424V31.1082C32.3319 31.618 32.4326 32.1227 32.628 32.5935C32.8234 33.0643 33.1097 33.492 33.4705 33.852L44.3353 44.7168C44.4258 44.8036 44.5208 44.8855 44.62 44.9622C45.3119 45.5301 46.1792 45.8405 47.0742 45.8408H62.44C63.335 45.8401 64.2021 45.5297 64.8942 44.9622C64.9924 44.8812 65.0881 44.7953 65.1789 44.7168L76.0437 33.852C76.7708 33.124 77.1795 32.1372 77.18 31.1082V15.7424C77.1816 14.7149 76.7766 13.7286 76.0535 12.9986V12.9986ZM71.2653 23.4339V36.316C71.2647 37.2737 70.8838 38.192 70.2064 38.8689C69.5289 39.5459 68.6104 39.9262 67.6527 39.9262H41.8836C40.9261 39.9262 40.0078 39.5458 39.3308 38.8688C38.6538 38.1918 38.2734 37.2735 38.2734 36.316V10.5469C38.2734 9.58939 38.6538 8.67115 39.3308 7.99411C40.0078 7.31708 40.9261 6.93673 41.8836 6.93673H67.6527C68.6083 6.93672 69.525 7.31531 70.202 7.98962C70.8791 8.66393 71.2614 9.57904 71.2653 10.5346V23.4339Z" fill="white"/></svg>