<svg width="148" height="148" viewBox="0 0 148 148" fill="none" id="svg-304225829_1743"><path d="M143.31 39.3777L123.397 19.4636L107.684 3.72527C107.386 3.42756 107.072 3.1461 106.75 2.88058C104.479 1.02358 101.638 0.00619414 98.7045 0H48.3304C45.3969 0.00487639 42.5549 1.02242 40.2848 2.88058C39.9629 3.1461 39.6491 3.42756 39.3514 3.72527L23.6463 19.4313L3.73321 39.3455C2.55061 40.5262 1.61219 41.9284 0.971632 43.4719C0.331074 45.0154 0.000921076 46.6701 3.56479e-07 48.3412V98.718C-0.00039564 100.389 0.329133 102.044 0.969766 103.588C1.6104 105.132 2.54954 106.534 3.73321 107.714L39.3514 143.342C39.6491 143.64 39.9629 143.921 40.2848 144.146C42.5549 146.005 45.3969 147.022 48.3304 147.027H98.7045C101.638 147.021 104.479 146.003 106.75 144.146C107.072 143.881 107.386 143.599 107.684 143.342L143.302 107.714C144.483 106.532 145.42 105.13 146.059 103.586C146.698 102.043 147.027 100.389 147.027 98.718V48.3412C147.017 44.9803 145.682 41.759 143.31 39.3777V39.3777ZM127.605 73.5899V115.824C127.602 117.38 127.292 118.92 126.693 120.355C126.094 121.791 125.218 123.095 124.115 124.192C123.013 125.289 121.704 126.158 120.265 126.749C118.826 127.34 117.285 127.641 115.729 127.636H31.2495C29.6949 127.637 28.1554 127.331 26.719 126.737C25.2826 126.142 23.9776 125.271 22.8784 124.171C21.7792 123.072 20.9074 121.767 20.313 120.331C19.7186 118.894 19.4132 117.355 19.4143 115.8V31.3155C19.4132 29.7605 19.7185 28.2206 20.3128 26.7837C20.9071 25.3467 21.7788 24.0408 22.8779 22.9409C23.977 21.841 25.282 20.9688 26.7184 20.3735C28.1549 19.7782 29.6946 19.4714 31.2495 19.4714H115.729C118.87 19.4714 121.883 20.7194 124.104 22.9405C126.325 25.1617 127.572 28.1743 127.572 31.3155V73.5978L127.605 73.5899Z" fill="white"/></svg>