<svg width="14" height="14" viewBox="0 0 24 24" fill="none" xmlns="http://www.w3.org/2000/svg"><g clip-path="url(#clip0_8_2)"><path fill-rule="evenodd" clip-rule="evenodd" d="M2.37646 9.41978C2.37646 5.61559 5.02977 3.07328 9.12039 3H23.9999C23.1124 4.94922 22.398 5.93753 21.8566 5.96491H8.98822C6.76043 5.97088 5.4193 7.26038 5.4193 9.41978C5.4193 11.5558 6.75623 12.9367 8.91309 12.9453L14.6116 12.9367C15.4392 12.9453 16.1485 13.6553 16.1485 14.5102C16.1485 15.365 15.5027 15.8595 14.6907 15.9005L9.0787 15.907C5.08057 15.907 2.43789 13.2778 2.37752 9.55013L2.37646 9.41978Z" fill="#4C6FFF"/><path fill-rule="evenodd" clip-rule="evenodd" d="M21.5558 14.4787C21.5558 18.2828 18.9025 20.8252 14.8119 20.8984H-0.0676524C0.819851 18.9492 1.53429 17.9609 2.07568 17.9335H14.944C17.1718 17.9276 18.5129 16.6381 18.5129 14.4787C18.5129 12.3427 17.176 10.9617 15.0192 10.9531L9.32069 10.9617C8.49304 10.9531 7.78374 10.2431 7.78374 9.38826C7.78374 8.5334 8.42952 8.03898 9.2416 7.9979L14.8535 7.99145C18.8517 7.99145 21.4944 10.6206 21.5547 14.3483L21.5558 14.4787Z" fill="#4C6FFF"/></g><defs><clipPath id="clip0_8_2"><rect width="24" height="24" fill="white"/></clipPath></defs></svg>