<svg xmlns="http://www.w3.org/2000/svg" width="25" height="24" viewBox="0 0 25 24" fill="none"><path fill-rule="evenodd" clip-rule="evenodd" d="M14 8.00001H7.3C5.61984 8.00001 4.77976 8.00001 4.13803 8.32699C4.09352 8.34967 4.04967 8.37341 4.00651 8.39818C4.0177 7.84029 4.04457 7.66859 4.09673 7.53047C4.18219 7.30418 4.32111 7.10191 4.50164 6.94091C4.65673 6.8026 4.89192 6.68717 6.11537 6.21661L9.51536 4.90892C10.6367 4.47764 11.3832 4.19208 11.9594 4.02837C12.5308 3.86602 12.7391 3.88504 12.8189 3.90239C13.2024 3.98583 13.538 4.21629 13.7535 4.54432C13.7984 4.61254 13.8909 4.80014 13.9445 5.39175C13.9985 5.98829 14 6.78756 14 7.98896V8.00001ZM15.5 8.00001V7.98896C15.5 5.64338 15.5 4.47059 15.0071 3.72054C14.576 3.06448 13.9048 2.60356 13.1377 2.43667C12.2608 2.24588 11.1661 2.66688 8.97691 3.50889L8.9769 3.5089L5.5769 4.81659C4.46695 5.2435 3.91197 5.45695 3.50328 5.82141C3.14222 6.14341 2.86438 6.54795 2.69346 7.00054C2.5 7.51282 2.5 8.10743 2.5 9.29665V10.0111C2.5 10.5939 2.5 11.1043 2.50756 11.5537C2.5 11.9109 2.5 12.3214 2.5 12.8V17.2C2.5 18.8802 2.5 19.7202 2.82698 20.362C3.1146 20.9265 3.57354 21.3854 4.13803 21.673C4.77976 22 5.61984 22 7.3 22H19.125C19.4733 22 19.6474 22 19.7941 21.9856C21.2184 21.8453 22.3453 20.7184 22.4856 19.2941C22.5 19.1474 22.5 18.9733 22.5 18.625C22.5 18.5089 22.5 18.4509 22.4952 18.402C22.4484 17.9272 22.0728 17.5516 21.598 17.5048C21.5491 17.5 21.4911 17.5 21.375 17.5H19.5C18.1193 17.5 17 16.3807 17 15C17 13.6193 18.1193 12.5 19.5 12.5H21.375C21.4911 12.5 21.5491 12.5 21.598 12.4952C22.0728 12.4484 22.4484 12.0728 22.4952 11.598C22.5 11.5491 22.5 11.4911 22.5 11.375C22.5 11.0268 22.5 10.8526 22.4856 10.706C22.3453 9.28163 21.2184 8.15474 19.7941 8.01446C19.6474 8.00001 19.4733 8.00001 19.125 8.00001H15.5ZM18.5 15C18.5 14.4477 18.9477 14 19.5 14H21.5C22.0523 14 22.5 14.4477 22.5 15C22.5 15.5523 22.0523 16 21.5 16H19.5C18.9477 16 18.5 15.5523 18.5 15Z" fill="white"/></svg>