<svg fill="none" class="css-zdjh87 e1w923fb1" viewBox="0 0 24 24"><title>Wallet</title><path fill-rule="evenodd" clip-rule="evenodd" d="M8.599 12c0-2.723 2.388-4.779 5.138-4.779h6.883c1.222 0 2.38.932 2.38 2.26v5.037c0 1.327-1.158 2.259-2.38 2.259h-6.883c-2.75 0-5.138-2.055-5.138-4.778Zm5.138-2.779c-1.821 0-3.138 1.328-3.138 2.778s1.317 2.778 3.138 2.778h6.883a.445.445 0 0 0 .3-.109c.065-.06.08-.115.08-.15V9.48c0-.035-.015-.09-.08-.15a.444.444 0 0 0-.3-.11h-6.883Z" fill="currentColor"/><path fill-rule="evenodd" clip-rule="evenodd" d="M4.353 5C3.52 5 3 5.6 3 6.148v11.704C3 18.4 3.52 19 4.353 19h12.834c.834 0 1.353-.6 1.353-1.148v-2.074h2v2.074c0 1.821-1.59 3.148-3.353 3.148H4.353C2.59 21 1 19.673 1 17.852V6.148C1 4.327 2.59 3 4.353 3h12.834c1.763 0 3.353 1.327 3.353 3.148v2.074h-2V6.148C18.54 5.6 18.02 5 17.187 5H4.353Z" fill="currentColor"/><path fill-rule="evenodd" clip-rule="evenodd" d="M15.4 12a1.4 1.4 0 1 1-2.8 0 1.4 1.4 0 0 1 2.8 0Z" fill="currentColor"/></svg>